SplineFontDB: 3.2
FontName: ChromDingbats
FullName: Chrom Dingbats
FamilyName: Chrom Dingbats
Weight: Normal
Copyright:                                           
Version: 001.001
ItalicAngle: 0
UnderlinePosition: -100
UnderlineWidth: 50
Ascent: 800
Descent: 200
InvalidEm: 0
sfntRevision: 0x00000000
LayerCount: 2
Layer: 0 0 "Back" 1
Layer: 1 0 "Fore" 0
StyleMap: 0x0000
FSType: 0
OS2Version: 0
OS2_WeightWidthSlopeOnly: 0
OS2_UseTypoMetrics: 0
CreationTime: 0
ModificationTime: 1757284878
OS2TypoAscent: 0
OS2TypoAOffset: 0
OS2TypoDescent: 0
OS2TypoDOffset: 0
OS2TypoLinegap: 0
OS2WinAscent: 0
OS2WinAOffset: 0
OS2WinDescent: 0
OS2WinDOffset: 0
HheadAscent: 0
HheadAOffset: 0
HheadDescent: 0
HheadDOffset: 0
DEI: 91125
Encoding: AdobeStandard
UnicodeInterp: none
NameList: AGL For New Fonts
DisplaySize: -48
AntiAlias: 1
FitToEm: 0
BeginPrivate: 4
BlueValues 23 [-14 0 346 359 692 705]
BlueScale 1 0
StdHW 4 [28]
StdVW 4 [90]
EndPrivate
BeginChars: 457 202

StartChar: a1
Encoding: 256 9985 0
Width: 974
Flags: HMW
HStem: 132 20<210 367 210 367 476 640> 170 35<847 867 839 888> 257 46 300 27 301 27<851.5 875.5> 542 40 543 40<759.5 786.5>
VStem: 614 33 670 38 670 129 672 126 818 42 819 42<497.5 509.5> 912 48 913 48<238.5 269.5>
LayerCount: 2
Fore
SplineSet
582 284 m 0
 582 275 588 269 597 269 c 0
 605 269 614 276 614 284 c 0
 614 293 605 300 596 300 c 0
 587 300 582 292 582 284 c 0
799 248 m 0
 799 218 826 205 852 205 c 0
 882 205 913 222 913 255 c 0
 913 284 889 301 862 301 c 0
 832 301 799 281 799 248 c 0
708 484 m 0
 708 459 731 440 755 440 c 0
 784 440 819 466 819 497 c 0
 819 522 799 543 774 543 c 0
 745 543 708 515 708 484 c 0
6 216 m 1
 3 227 l 1
 543 322 l 1
 543 321 l 1
 439 234 l 1
 6 216 l 1
210 132 m 1
 210 152 l 1
 367 152 l 1
 593 340 l 2
 636 376 664 402 670 461 c 0
 676 523 712 583 782 583 c 0
 823 583 861 555 861 512 c 0
 861 483 843 459 821 442 c 0
 779 410 730 388 691 352 c 2
 649 313 l 1
 645 258 l 1
 476 152 l 1
 640 152 l 1
 640 132 l 1
 210 132 l 1
671 257 m 1
 674 302 l 1
 713 305 l 2
 768 309 825 328 878 328 c 0
 921 328 961 304 961 257 c 0
 961 208 911 170 865 170 c 0
 829 170 796 190 771 214 c 0
 736 247 719 255 671 257 c 1
EndSplineSet
EndChar

StartChar: a10
Encoding: 257 10017 1
Width: 692
Flags: HMW
HStem: -14 21G<346 346> 169 35<95 220 95 240 288 412 288 288 474 593> 488 36<98 219 98 98 35 262 282 409 472 594 472 472> 685 20G<346 346>
LayerCount: 2
Fore
SplineSet
288 169 m 1
 346 61 l 1
 412 169 l 1
 288 169 l 1
282 524 m 1
 409 524 l 1
 346 635 l 1
 282 524 l 1
262 204 m 1
 431 204 l 1
 513 346 l 1
 431 488 l 1
 262 488 l 1
 180 346 l 1
 262 204 l 1
158 385 m 1
 219 488 l 1
 98 488 l 1
 158 385 l 1
95 204 m 1
 220 204 l 1
 158 308 l 1
 95 204 l 1
474 204 m 1
 593 204 l 1
 535 308 l 1
 474 204 l 1
535 385 m 1
 594 488 l 1
 472 488 l 1
 535 385 l 1
35 169 m 1
 136 346 l 1
 35 524 l 1
 240 524 l 1
 346 705 l 1
 452 524 l 1
 657 524 l 1
 555 346 l 1
 657 169 l 1
 452 169 l 1
 346 -14 l 1
 240 169 l 1
 35 169 l 1
EndSplineSet
EndChar

StartChar: a100
Encoding: 258 10078 2
Width: 668
Flags: HMW
HStem: 228 471<80 230.5 137 385>
VStem: 37 602<527 550.5 408.5 590.5> 239 96<408.5 417> 544 95<408.5 417>
LayerCount: 2
Fore
SplineSet
385 228 m 1
 380 249 l 1
 510 281 544 346 544 396 c 0
 544 438 519 459 482 459 c 0
 456 459 447 454 429 449 c 0
 412 444 398 448 387 454 c 0
 366 466 341 499 341 555 c 0
 341 626 396 699 486 699 c 0
 583 699 639 593 639 508 c 0
 639 309 504 245 385 228 c 1
80 228 m 1
 76 249 l 1
 206 281 239 346 239 396 c 0
 239 438 215 459 177 459 c 0
 152 459 142 454 125 449 c 0
 108 444 93 448 82 454 c 0
 62 466 37 499 37 555 c 0
 37 626 92 699 182 699 c 0
 279 699 335 593 335 508 c 0
 335 309 200 245 80 228 c 1
EndSplineSet
EndChar

StartChar: a101
Encoding: 259 10081 3
Width: 732
Flags: HMW
HStem: -164 75<327.5 372.5 320 386> 681 20G<471 496 496 496 532 532> 806 20G<576 576>
VStem: 504 28<149 193 193 193>
LayerCount: 2
Fore
SplineSet
256 -92 m 1
 266 -78 l 1
 280 -84 312 -89 328 -89 c 0
 417 -89 504 -47 504 149 c 2
 504 193 l 1
 467 179 457 176 451 176 c 0
 322 176 156 254 156 439 c 0
 156 613 298 701 471 701 c 2
 496 701 l 1
 501 812 l 1
 576 826 l 1
 532 701 l 1
 532 133 l 2
 532 -116 423 -164 349 -164 c 0
 306 -164 274 -130 256 -92 c 1
EndSplineSet
EndChar

StartChar: a102
Encoding: 260 10082 4
Width: 544
Flags: HMW
HStem: -14 21G<239 308> 686 20G<215 322.5>
LayerCount: 2
Fore
SplineSet
148 111 m 0
 148 181 205 236 273 236 c 0
 343 236 398 181 398 111 c 0
 398 43 343 -14 273 -14 c 0
 205 -14 148 43 148 111 c 0
272 272 m 1
 252 343 222 354 156 383 c 0
 81 416 56 474 56 558 c 0
 56 687 164 706 266 706 c 0
 379 706 488 699 488 552 c 0
 488 471 460 413 388 383 c 0
 323 354 292 343 272 272 c 1
EndSplineSet
EndChar

StartChar: a103
Encoding: 261 10083 5
Width: 544
Flags: HMW
HStem: -14 21G<236 306> 685 20G<111.5 183.5 358.5 429>
LayerCount: 2
Fore
SplineSet
145 112 m 0
 145 183 202 238 271 238 c 0
 341 238 397 183 397 112 c 0
 397 43 341 -14 271 -14 c 0
 201 -14 145 43 145 112 c 0
271 276 m 1
 247 342 196 370 135 397 c 0
 75 423 34 501 34 571 c 0
 34 644 71 705 152 705 c 0
 215 705 259 651 271 594 c 1
 286 651 326 705 391 705 c 0
 467 705 508 648 508 578 c 0
 508 503 474 426 408 397 c 0
 347 371 296 342 271 276 c 1
EndSplineSet
EndChar

StartChar: a104
Encoding: 262 10084 6
Width: 910
Flags: HMW
HStem: 40 21G 631 20G<176.5 291.5 616.5 732.5>
LayerCount: 2
Fore
SplineSet
455 40 m 1
 418 128 330 178 181 233 c 0
 94 264 35 350 35 443 c 0
 35 562 116 651 237 651 c 0
 346 651 427 556 455 454 c 1
 486 556 561 651 672 651 c 0
 793 651 875 563 875 444 c 0
 875 347 818 266 665 210 c 0
 580 178 492 127 455 40 c 1
EndSplineSet
EndChar

StartChar: a105
Encoding: 263 10000 7
Width: 911
Flags: HMW
HStem: -63 21G -19 21G<215 215> 505 20G<737 737> 576 20G<786 786>
VStem: 586 11
LayerCount: 2
Fore
SplineSet
599 425 m 1
 639 409 l 1
 650 388 l 1
 737 525 l 1
 727 534 l 1
 596 457 l 1
 599 425 l 1
143 53 m 1
 562 472 l 1
 786 596 l 1
 797 585 l 1
 694 363 l 1
 263 -68 l 1
 215 -19 l 1
 632 398 l 1
 596 412 l 1
 190 6 l 1
 179 16 l 1
 587 424 l 1
 586 452 l 1
 164 31 l 1
 143 53 l 1
EndSplineSet
EndChar

StartChar: a106
Encoding: 264 10085 8
Width: 667
Flags: HMW
HStem: -14 21G<160.5 229> 328 36<572.5 597> 685 20G<166.5 238.5>
VStem: 35 598<114 366 326 580>
LayerCount: 2
Fore
SplineSet
197 338 m 1
 197 354 l 1
 112 369 35 442 35 530 c 0
 35 630 117 705 216 705 c 0
 261 705 304 686 336 654 c 0
 401 586 400 477 481 418 c 0
 515 393 557 367 597 364 c 1
 633 366 l 1
 633 326 l 1
 597 328 l 2
 548 328 499 293 464 260 c 0
 393 192 396 80 317 21 c 0
 285 -3 249 -14 209 -14 c 0
 112 -14 35 66 35 162 c 0
 35 251 112 322 197 338 c 1
EndSplineSet
EndChar

StartChar: a107
Encoding: 265 10086 9
Width: 760
Flags: HMW
HStem: -10 32<258.5 430.5> 121 25<238 255.5> 151 83 416 9 416 112 636 23<243 361>
VStem: 18 46<243 383> 215 124<289 420> 296 18 444 36<510 529> 467 162<318 419.5> 700 42<302 431>
LayerCount: 2
Fore
SplineSet
339 303 m 0
 339 275 349 254 361 240 c 0
 368 232 369 231 381 234 c 0
 431 245 467 293 467 343 c 0
 467 371 457 394 444 409 c 0
 439 415 439 417 428 416 c 0
 369 411 339 357 339 303 c 0
314 160 m 1
 301 137 276 121 235 121 c 0
 199 121 174 144 174 178 c 0
 174 193 178 205 188 217 c 0
 196 227 200 224 199 213 c 0
 197 189 220 146 256 146 c 0
 263 146 293 153 296 187 c 0
 299 224 287 242 249 294 c 0
 225 327 215 346 215 385 c 0
 215 455 263 528 338 528 c 0
 403 528 424 478 433 441 c 1
 435 441 l 1
 441 458 445 483 444 505 c 0
 444 553 413 636 309 636 c 0
 152 636 64 469 64 327 c 0
 64 159 170 22 347 22 c 0
 553 22 700 184 700 387 c 0
 700 475 666 541 622 572 c 0
 611 579 599 583 594 586 c 1
 601 599 613 606 625 606 c 0
 675 606 742 530 742 412 c 0
 742 192 541 -10 320 -10 c 0
 105 -10 18 142 18 295 c 0
 18 471 149 659 337 659 c 0
 454 659 480 576 480 531 c 0
 480 489 466 463 446 427 c 1
 450 425 l 1
 476 457 508 483 551 483 c 0
 604 483 629 439 629 400 c 0
 629 322 578 263 523 220 c 0
 447 161 362 151 345 151 c 0
 332 151 323 153 316 160 c 1
 314 160 l 1
EndSplineSet
EndChar

StartChar: a108
Encoding: 266 10087 10
Width: 760
Flags: HMW
HStem: 68 163 68 164<423.5 424.5> 168 63<61.5 137.5> 349 176<419.5 461 407 464.5> 568 20G<106.5 124.5>
VStem: 11 85<211.5 269.5> 73 68<462.5 527> 201 21 222 84 325 33 703 40<270 309.5>
LayerCount: 2
Fore
SplineSet
361 292 m 0
 369 269 398 232 449 232 c 0
 481 232 511 242 528 256 c 0
 534 260 535 263 532 271 c 0
 520 307 489 349 440 349 c 0
 399 349 379 331 363 312 c 0
 357 305 357 303 361 292 c 0
311 289 m 1
 307 293 311 300 298 305 c 0
 288 308 240 328 222 338 c 1
 223 287 191 223 147 191 c 0
 122 173 101 168 80 168 c 0
 43 168 11 194 11 229 c 0
 11 261 36 286 64 286 c 0
 77 286 87 280 94 275 c 0
 96 272 96 274 96 265 c 0
 96 251 103 231 128 231 c 0
 147 231 167 242 180 265 c 0
 197 295 203 330 201 354 c 1
 171 377 137 409 109 445 c 0
 77 488 73 507 73 516 c 0
 73 538 93 588 120 588 c 0
 129 588 142 578 152 564 c 0
 161 553 158 548 153 538 c 0
 147 523 141 509 141 478 c 0
 141 447 153 429 172 415 c 1
 196 421 202 417 210 406 c 0
 218 394 227 377 227 362 c 1
 259 340 292 330 305 329 c 0
 311 328 318 327 324 328 c 0
 328 331 328 334 325 340 c 0
 321 346 306 377 306 406 c 0
 306 436 318 466 338 488 c 0
 360 512 393 525 421 525 c 0
 501 525 531 474 561 400 c 0
 567 386 573 370 579 354 c 0
 618 251 651 248 669 248 c 0
 689 248 703 261 703 279 c 0
 703 291 693 298 685 301 c 0
 681 302 678 308 681 315 c 0
 685 323 695 338 712 338 c 0
 731 338 743 321 743 298 c 0
 743 285 735 264 720 251 c 0
 702 237 673 219 639 211 c 0
 594 200 579 191 531 133 c 0
 500 95 448 68 401 68 c 0
 379 68 337 75 300 108 c 0
 260 144 253 182 253 198 c 0
 253 214 258 234 272 253 c 0
 283 269 305 284 311 289 c 1
EndSplineSet
EndChar

StartChar: a109
Encoding: 267 9824 11
Width: 626
Flags: HMW
HStem: 0 21G<218 218 218 313 313 408> 722 20G<313 313>
VStem: 294 38<322 322>
LayerCount: 2
Fore
SplineSet
218 0 m 1
 218 11 l 1
 262 76 289 182 294 322 c 1
 286 322 l 1
 282 300 l 2
 270 236 220 197 172 197 c 0
 124 197 58 226 58 318 c 0
 58 358 79 390 105 418 c 0
 135 450 173 475 192 496 c 0
 234 543 286 620 304 740 c 1
 313 742 l 1
 322 740 l 1
 340 620 392 543 434 496 c 0
 452 475 487 452 517 422 c 0
 545 394 568 359 568 318 c 0
 568 226 502 197 454 197 c 0
 406 197 356 236 344 300 c 2
 340 322 l 1
 332 322 l 1
 337 182 364 76 408 11 c 1
 408 0 l 1
 313 0 l 1
 218 0 l 1
EndSplineSet
EndChar

StartChar: a11
Encoding: 268 9755 12
Width: 960
Flags: HMW
HStem: 133 21G<470 470> 424 79 431 72 513 20G<309 309>
LayerCount: 2
Fore
SplineSet
420 148 m 1
 406 160 386 182 386 201 c 0
 386 210 391 217 399 220 c 1
 521 173 l 1
 500 149 l 1
 470 133 l 1
 420 148 l 1
52 199 m 1
 31 234 19 274 19 315 c 0
 19 350 28 385 47 414 c 1
 178 410 l 1
 309 533 l 1
 468 527 l 1
 575 418 l 2
 575 413 576 408 576 403 c 0
 576 384 564 381 546 381 c 0
 542 381 527 382 525 384 c 2
 437 446 l 1
 447 483 l 1
 431 488 l 1
 421 446 l 1
 364 429 l 1
 368 414 l 1
 429 432 l 1
 516 371 l 1
 436 393 l 1
 404 389 384 366 384 334 c 1
 353 313 319 303 281 303 c 0
 265 303 250 304 235 307 c 1
 232 291 l 1
 247 288 262 286 278 286 c 0
 309 286 340 293 368 307 c 1
 365 301 363 294 363 287 c 0
 363 266 375 246 387 230 c 1
 376 224 368 214 368 201 c 0
 368 183 383 165 395 153 c 1
 384 154 309 161 303 163 c 0
 288 167 213 203 194 212 c 1
 52 199 l 1
404 235 m 1
 393 248 379 267 379 284 c 0
 379 295 385 304 395 309 c 1
 595 242 l 1
 564 184 l 1
 546 181 l 1
 404 235 l 1
401 323 m 2
 400 327 400 331 400 335 c 0
 400 356 410 374 433 377 c 1
 457 371 495 358 518 354 c 0
 533 351 542 352 558 350 c 2
 638 342 l 1
 640 352 l 1
 585 380 l 1
 591 386 593 396 593 404 c 0
 593 408 591 424 588 427 c 2
 517 503 l 1
 884 504 l 2
 908 504 929 494 929 468 c 0
 929 443 910 433 887 431 c 0
 851 429 815 426 779 424 c 0
 733 421 687 419 641 417 c 1
 698 344 l 1
 698 310 l 1
 661 256 l 1
 619 250 l 1
 401 323 l 2
EndSplineSet
EndChar

StartChar: a110
Encoding: 269 9829 13
Width: 694
Flags: HMW
HStem: -14 21G 663 20G
LayerCount: 2
Fore
SplineSet
347 -14 m 1
 323 90 230 227 145 331 c 0
 92 396 35 469 35 557 c 0
 35 639 100 705 181 705 c 0
 269 705 326 630 347 551 c 1
 364 627 427 705 508 705 c 0
 593 705 659 643 659 558 c 0
 659 465 611 401 556 332 c 0
 479 235 376 90 347 -14 c 1
EndSplineSet
EndChar

StartChar: a111
Encoding: 270 9830 14
Width: 595
Flags: HMW
HStem: -12 21G<297 297> 722 20G<297 297>
VStem: 64 466<365 365>
LayerCount: 2
Fore
SplineSet
288 -10 m 1
 262 155 160 297 66 356 c 1
 64 365 l 1
 66 374 l 1
 160 433 262 575 288 740 c 1
 297 742 l 1
 306 740 l 1
 332 575 434 433 528 374 c 1
 530 365 l 1
 528 356 l 1
 434 297 332 155 306 -10 c 1
 297 -12 l 1
 288 -10 l 1
EndSplineSet
EndChar

StartChar: a112
Encoding: 271 9827 15
Width: 776
Flags: HMW
HStem: 0 21G<293 293 293 388 388 483> 316 34<354 369 354 370 407 407 407 422> 680 20G<350.5 425.5>
VStem: 369 38<316 316> 370 36<350 377 377 431>
LayerCount: 2
Fore
SplineSet
293 0 m 1
 293 11 l 1
 337 75 363 179 369 316 c 1
 354 316 l 1
 346 249 289 198 220 198 c 0
 145 198 85 258 85 333 c 0
 85 408 145 468 220 468 c 0
 289 468 346 417 354 350 c 1
 370 350 l 1
 370 359 370 368 370 377 c 2
 370 431 l 1
 304 440 253 497 253 565 c 0
 253 640 313 700 388 700 c 0
 463 700 523 640 523 565 c 0
 523 497 472 440 406 431 c 1
 406 377 l 2
 406 368 406 359 406 350 c 1
 422 350 l 1
 430 417 487 468 556 468 c 0
 631 468 691 408 691 333 c 0
 691 258 631 198 556 198 c 0
 487 198 430 249 422 316 c 1
 407 316 l 1
 413 179 439 75 483 11 c 1
 483 0 l 1
 388 0 l 1
 293 0 l 1
EndSplineSet
EndChar

StartChar: a117
Encoding: 272 9993 16
Width: 690
Flags: HMW
HStem: 138 21G<35 35 35 655> 178 336<54 54> 263 165<328 361.5 326.5 365> 533 20G<35 655 655 655>
VStem: 54 374<157 335 335 335 335 358 335 514 178 335 335 537> 265 390<317 317 375 375> 343 312
LayerCount: 2
Fore
SplineSet
54 178 m 1
 261 335 l 1
 261 358 l 1
 54 514 l 1
 54 178 l 1
265 375 m 1
 276 406 310 428 343 428 c 0
 380 428 410 409 423 375 c 1
 636 537 l 1
 54 537 l 1
 265 375 l 1
54 157 m 1
 634 157 l 1
 424 317 l 1
 411 285 383 263 347 263 c 0
 309 263 279 282 265 317 c 1
 54 157 l 1
428 335 m 1
 636 178 l 1
 636 514 l 1
 428 358 l 1
 428 335 l 1
35 138 m 1
 35 553 l 1
 655 553 l 1
 655 138 l 1
 35 138 l 1
EndSplineSet
EndChar

StartChar: a118
Encoding: 273 9992 17
Width: 791
Flags: HMW
HStem: 143 20<191.5 216.5 191.5 217> 219 20<451.5 470.5 451.5 473.5> 232 14 245 20<590.5 607 590.5 613> 293 20<170 181.5 170 182.5> 323 20<97 106 97 109> 347 20 465 24 573 20G<545 545>
VStem: 139 20<321 336> 148 20<186.5 206.5 186.5 207.5> 371 14 417 20<259 273> 448 30<274 278> 557 20<279 292> 585 26<291 293>
LayerCount: 2
Fore
SplineSet
89 360 m 1
 89 351 92 343 102 343 c 0
 110 343 115 345 120 349 c 1
 89 360 l 1
159 336 m 1
 157 324 163 313 177 313 c 0
 186 313 194 316 201 321 c 1
 159 336 l 1
247 316 m 1
 316 360 l 1
 61 408 l 1
 33 392 l 1
 247 316 l 1
189 241 m 1
 179 230 168 216 168 197 c 0
 168 176 183 163 200 163 c 0
 233 163 268 184 291 203 c 2
 371 269 l 1
 364 298 401 328 441 355 c 1
 457 379 473 403 484 430 c 1
 556 458 l 1
 567 469 l 1
 489 462 l 1
 517 554 l 1
 482 535 l 1
 450 479 l 2
 435 453 425 429 404 408 c 0
 389 394 372 382 354 371 c 2
 258 311 l 2
 231 294 204 282 192 253 c 1
 200 250 226 240 256 250 c 1
 247 225 l 1
 225 232 l 1
 207 232 196 236 189 241 c 1
437 273 m 1
 435 257 440 239 463 239 c 0
 478 239 491 250 501 260 c 2
 526 285 l 1
 478 278 l 1
 479 262 473 251 461 251 c 0
 450 251 446 262 448 274 c 1
 437 273 l 1
419 445 m 1
 429 463 l 1
 386 471 l 1
 377 467 l 1
 419 445 l 1
385 273 m 1
 402 277 422 282 435 284 c 2
 697 320 l 1
 744 350 l 1
 561 344 l 1
 449 350 l 1
 410 322 380 299 385 273 c 1
577 292 m 1
 575 277 582 265 599 265 c 0
 615 265 636 286 651 302 c 1
 611 297 l 1
 611 285 606 275 598 275 c 0
 589 275 585 281 585 293 c 1
 577 292 l 1
2 382 m 1
 2 387 2 392 2 397 c 1
 58 429 l 1
 327 378 l 1
 352 394 381 409 400 432 c 1
 334 466 l 1
 334 469 l 1
 384 492 l 1
 430 483 l 1
 467 550 l 1
 545 593 l 1
 549 591 l 1
 517 485 l 1
 615 494 l 1
 616 490 l 1
 567 441 l 1
 499 414 l 1
 492 398 483 384 474 369 c 1
 561 364 l 1
 790 371 l 1
 790 357 l 1
 708 302 l 1
 672 296 l 1
 654 276 627 245 599 245 c 0
 580 245 561 258 557 279 c 1
 545 277 l 1
 515 246 l 2
 502 233 484 219 463 219 c 0
 435 219 420 237 417 259 c 1
 380 252 l 1
 303 188 l 2
 271 162 234 143 200 143 c 0
 175 143 148 161 148 197 c 0
 148 218 159 234 169 247 c 1
 175 269 187 286 207 300 c 1
 206 301 l 1
 197 296 188 293 177 293 c 0
 154 293 139 309 139 333 c 1
 133 334 l 1
 126 328 116 323 102 323 c 0
 80 323 70 341 69 357 c 1
 2 382 l 1
EndSplineSet
EndChar

StartChar: a119
Encoding: 274 9991 18
Width: 790
Flags: HMW
HStem: 36 20<322.5 482.5 322.5 489.5> 106 58<391.5 445.5> 217 106 225 111 294 92<383.5 424.5> 404 95 517 20<350.5 482> 545 66<561.5 611 557.5 616.5> 604 63<170 245>
VStem: 62 24 75 43 97 21<186 239.5 183.5 245.5 327.5 358> 691 20<328.5 389>
LayerCount: 2
Fore
SplineSet
329 340 m 0
 329 365 363 386 404 386 c 0
 445 386 479 365 479 340 c 0
 479 315 445 294 404 294 c 0
 363 294 329 315 329 340 c 0
486 284 m 2
 480 288 477 292 486 297 c 0
 499 306 508 320 509 328 c 0
 509 332 513 336 523 336 c 2
 647 331 l 2
 656 331 661 326 659 320 c 0
 646 276 627 256 589 230 c 0
 582 225 576 223 567 229 c 2
 486 284 l 2
364 409 m 2
 323 482 l 2
 320 486 326 492 335 493 c 0
 406 504 443 500 497 488 c 0
 507 486 513 484 508 477 c 2
 456 409 l 2
 452 404 448 401 436 404 c 0
 420 408 393 407 382 405 c 0
 376 403 367 404 364 409 c 2
126 273 m 1
 122 265 118 249 118 230 c 0
 118 137 243 56 402 56 c 0
 563 56 690 136 690 232 c 0
 690 251 687 265 682 273 c 1
 674 259 657 239 644 229 c 1
 652 224 658 218 658 213 c 0
 658 200 650 183 636 164 c 0
 621 144 604 130 586 119 c 0
 572 110 553 130 546 136 c 1
 526 124 472 106 419 106 c 0
 364 106 306 119 278 127 c 1
 267 116 258 109 249 109 c 0
 222 109 152 172 152 201 c 0
 152 209 164 210 182 214 c 1
 163 227 138 253 126 273 c 1
118 340 m 0
 118 243 245 164 403 164 c 0
 561 164 691 243 691 340 c 0
 691 438 561 517 403 517 c 0
 245 517 118 438 118 340 c 0
108 286 m 1
 100 303 97 315 97 340 c 0
 97 376 106 395 123 421 c 1
 94 438 75 462 75 507 c 0
 75 518 80 530 86 535 c 1
 95 501 136 478 170 468 c 1
 217 505 298 537 403 537 c 0
 579 537 711 449 711 340 c 0
 711 317 700 286 700 286 c 1
 706 270 711 259 711 236 c 0
 711 119 575 36 404 36 c 0
 208 36 97 140 97 232 c 0
 97 259 102 270 108 286 c 1
65 525 m 1
 63 534 59 543 59 552 c 0
 59 608 106 667 221 667 c 0
 282 667 346 652 409 638 c 0
 470 624 530 611 585 611 c 0
 637 611 679 638 709 664 c 1
 728 592 l 1
 698 570 647 545 586 545 c 0
 537 545 470 560 403 575 c 0
 338 589 272 604 218 604 c 0
 122 604 77 561 65 525 c 1
237 220 m 1
 235 226 150 316 163 317 c 2
 283 329 l 2
 292 330 298 329 301 321 c 0
 305 311 321 298 330 293 c 0
 336 290 340 286 334 281 c 2
 259 220 l 2
 255 216 245 216 237 220 c 1
237 220 m 1
 183 250 252 186 237 220 c 1
EndSplineSet
EndChar

StartChar: a12
Encoding: 275 9758 19
Width: 939
Flags: HMW
HStem: 131 21G<458 458> 201 26 396 26 403 25 478 24 507 25 516 20G<300 300>
VStem: 20 25<314 329.5 298.5 333>
LayerCount: 2
Fore
SplineSet
396 175 m 1
 456 158 l 1
 475 168 l 1
 492 188 l 1
 390 228 l 1
 365 217 382 189 396 175 c 1
69 222 m 1
 199 233 l 1
 303 186 l 1
 372 180 l 1
 359 199 354 221 379 237 c 1
 358 262 351 290 361 309 c 1
 321 289 277 286 233 294 c 1
 235 309 l 1
 287 299 332 306 375 335 c 1
 374 363 394 387 424 390 c 1
 500 369 l 1
 418 428 l 1
 361 410 l 1
 357 425 l 1
 411 440 l 1
 420 480 l 1
 435 476 l 1
 425 440 l 1
 509 382 l 1
 528 378 542 378 554 388 c 0
 558 390 560 406 555 414 c 2
 471 503 l 1
 310 511 l 1
 188 393 l 1
 64 399 l 1
 51 375 45 345 45 314 c 0
 45 283 53 251 69 222 c 1
394 241 m 1
 509 198 l 1
 538 204 l 1
 563 253 l 1
 386 311 l 1
 356 296 375 264 394 241 c 1
392 325 m 1
 572 264 l 1
 632 272 l 1
 661 316 l 1
 661 339 l 1
 597 419 l 1
 755 426 l 1
 857 431 l 2
 879 432 887 442 887 454 c 0
 887 467 875 477 852 477 c 2
 515 480 l 1
 568 422 l 2
 573 412 575 389 565 379 c 1
 617 352 l 1
 615 342 l 1
 502 354 l 1
 422 376 l 1
 393 371 388 347 392 325 c 1
55 195 m 1
 33 231 21 273 20 314 c 0
 20 352 29 389 51 423 c 1
 178 418 l 1
 300 536 l 1
 478 529 l 1
 502 505 l 1
 857 499 l 2
 890 498 913 479 913 455 c 0
 913 432 893 412 868 411 c 2
 755 405 l 1
 640 401 l 1
 686 348 l 1
 686 308 l 1
 647 249 l 1
 586 241 l 1
 554 183 l 1
 511 172 l 1
 492 147 l 1
 458 131 l 1
 379 154 l 1
 296 161 l 1
 194 208 l 1
 55 195 l 1
EndSplineSet
EndChar

StartChar: a120
Encoding: 276 9312 20
Width: 788
Flags: HMW
HStem: -14 35<304.5 484 304.5 493.5> 111 32 478 17<258 316 258 258> 670 35<304.5 484>
VStem: 35 35<256 435.5 256 445> 356 92<188 434 434 455> 719 35<256 435.5>
LayerCount: 2
Fore
SplineSet
272 111 m 1
 272 141 l 1
 321 145 l 2
 346 147 356 165 356 188 c 2
 356 434 l 2
 356 476 358 478 316 478 c 2
 258 478 l 1
 258 495 l 1
 320 504 359 532 395 581 c 1
 448 581 l 1
 448 188 l 2
 448 160 446 148 484 145 c 2
 536 141 l 1
 536 111 l 1
 272 111 l 1
70 346 m 0
 70 166 215 21 394 21 c 0
 574 21 719 166 719 346 c 0
 719 525 574 670 394 670 c 0
 215 670 70 525 70 346 c 0
35 346 m 0
 35 544 196 705 394 705 c 0
 593 705 754 544 754 346 c 0
 754 147 593 -14 394 -14 c 0
 196 -14 35 147 35 346 c 0
EndSplineSet
EndChar

StartChar: a121
Encoding: 277 9313 21
Width: 788
Flags: HMW
HStem: -14 35<304.5 484 304.5 493.5> -14 125<295 493.5> 587 118<371 428.5> 670 35<304.5 484>
VStem: 35 35<256 435.5 256 445> 35 191<111 445> 554 200<385 445 246.5 507> 565 189<246.5 292 292 292> 719 35<256 435.5>
LayerCount: 2
Fore
SplineSet
226 111 m 1
 565 111 l 1
 565 292 l 1
 551 292 l 1
 540 238 537 200 490 200 c 2
 286 200 l 1
 337 323 554 308 554 462 c 0
 554 552 467 587 390 587 c 0
 352 587 313 581 282 556 c 0
 261 539 247 517 247 489 c 0
 247 459 266 435 297 435 c 0
 323 435 344 455 344 481 c 0
 344 493 338 503 338 515 c 0
 338 534 371 550 387 550 c 0
 434 550 449 505 449 465 c 0
 449 390 385 342 331 302 c 0
 276 261 226 207 226 134 c 2
 226 111 l 1
70 346 m 0
 70 166 215 21 394 21 c 0
 574 21 719 166 719 346 c 0
 719 525 574 670 394 670 c 0
 215 670 70 525 70 346 c 0
35 346 m 0
 35 544 196 705 394 705 c 0
 593 705 754 544 754 346 c 0
 754 147 593 -14 394 -14 c 0
 196 -14 35 147 35 346 c 0
EndSplineSet
EndChar

StartChar: a122
Encoding: 278 9314 22
Width: 788
Flags: HMW
HStem: -14 35<304.5 484 304.5 493.5> 647 20G
LayerCount: 2
Fore
SplineSet
321 352 m 1
 321 381 l 1
 343 381 l 2
 398 381 446 414 446 473 c 0
 446 516 425 562 377 562 c 0
 359 562 330 544 330 521 c 1
 334 515 335 508 335 501 c 0
 335 477 315 453 289 453 c 0
 262 453 242 471 242 499 c 0
 242 569 339 587 393 587 c 0
 460 587 539 566 539 485 c 0
 539 419 434 381 436 377 c 0
 439 371 572 364 572 254 c 0
 572 149 468 103 377 103 c 0
 343 103 306 110 275 127 c 0
 247 143 221 169 221 204 c 0
 221 239 241 259 276 259 c 0
 307 259 325 237 325 209 c 0
 325 198 319 187 319 176 c 0
 319 152 349 134 368 134 c 0
 428 134 465 203 465 258 c 0
 465 318 430 353 370 353 c 0
 353 353 321 353 321 352 c 1
70 346 m 0
 70 166 215 21 394 21 c 0
 574 21 719 166 719 346 c 0
 719 525 574 670 394 670 c 0
 215 670 70 525 70 346 c 0
35 346 m 0
 35 544 196 705 394 705 c 0
 593 705 754 544 754 346 c 0
 754 147 593 -14 394 -14 c 0
 196 -14 35 147 35 346 c 0
EndSplineSet
EndChar

StartChar: a123
Encoding: 279 9315 23
Width: 788
Flags: HMW
HStem: -14 35<304.5 484 304.5 493.5> 111 169<307 372 461 528 307 307> 231 49<246 372 246 372 461 560> 670 35<304.5 484>
VStem: 35 35<256 435.5 256 445> 372 89<212 231 181 231 280 487 487 487> 719 35<256 435.5>
LayerCount: 2
Fore
SplineSet
246 280 m 1
 372 280 l 1
 372 487 l 1
 246 280 l 1
179 231 m 1
 179 261 l 1
 373 581 l 1
 461 581 l 1
 461 280 l 1
 560 280 l 1
 560 231 l 1
 461 231 l 1
 461 212 l 2
 461 150 455 152 510 143 c 2
 528 140 l 1
 528 111 l 1
 307 111 l 1
 307 140 l 1
 327 142 l 2
 356 145 372 145 372 212 c 2
 372 231 l 1
 179 231 l 1
70 346 m 0
 70 166 215 21 394 21 c 0
 574 21 719 166 719 346 c 0
 719 525 574 670 394 670 c 0
 215 670 70 525 70 346 c 0
35 346 m 0
 35 544 196 705 394 705 c 0
 593 705 754 544 754 346 c 0
 754 147 593 -14 394 -14 c 0
 196 -14 35 147 35 346 c 0
EndSplineSet
EndChar

StartChar: a124
Encoding: 280 9316 24
Width: 788
Flags: HMW
HStem: -13 35 104 36<344 382.5 344 412.5> 356 42<380.5 392> 482 86 670 35<304.5 484>
VStem: 35 35<256 435.5 256 445> 245 41<363 484> 445 114<228 278.5> 719 35<256 435.5>
LayerCount: 2
Fore
SplineSet
245 325 m 1
 245 588 l 1
 307 575 378 568 436 568 c 0
 475 568 515 571 553 583 c 1
 548 559 531 515 513 501 c 0
 481 476 418 481 380 481 c 2
 286 484 l 1
 286 363 l 1
 316 388 362 398 399 398 c 0
 479 398 559 351 559 263 c 0
 559 161 459 104 366 104 c 0
 309 104 209 128 209 200 c 0
 209 230 227 255 259 255 c 0
 287 255 313 240 313 209 c 0
 313 193 303 184 303 171 c 0
 303 148 335 140 353 140 c 0
 412 140 445 202 445 254 c 0
 445 303 420 356 364 356 c 0
 332 356 304 333 286 308 c 1
 245 325 l 1
70 346 m 0
 70 166 215 22 394 22 c 0
 574 22 719 166 719 346 c 0
 719 525 574 670 394 670 c 0
 215 670 70 525 70 346 c 0
35 346 m 0
 35 544 196 705 394 705 c 0
 593 705 754 544 754 346 c 0
 754 147 593 -14 394 -14 c 0
 196 -14 35 147 35 346 c 0
EndSplineSet
EndChar

StartChar: a125
Encoding: 281 9317 25
Width: 788
Flags: HMW
HStem: -14 35<304.5 484 304.5 493.5> 670 35<304.5 484>
LayerCount: 2
Fore
SplineSet
301 243 m 0
 301 302 341 354 404 354 c 0
 461 354 482 294 482 247 c 0
 482 195 457 138 398 138 c 0
 339 138 301 189 301 243 c 0
295 327 m 1
 295 365 l 2
 295 439 306 556 401 556 c 0
 420 556 458 545 458 521 c 0
 458 511 453 498 453 487 c 0
 453 461 473 442 499 442 c 0
 530 442 546 468 546 497 c 0
 546 565 455 588 401 588 c 0
 265 588 198 463 198 338 c 0
 198 213 259 104 396 104 c 0
 491 104 574 167 574 266 c 0
 574 348 514 401 435 401 c 0
 382 401 324 371 295 327 c 1
70 346 m 0
 70 166 215 21 394 21 c 0
 574 21 719 166 719 346 c 0
 719 525 574 670 394 670 c 0
 215 670 70 525 70 346 c 0
35 346 m 0
 35 544 196 705 394 705 c 0
 593 705 754 544 754 346 c 0
 754 147 593 -14 394 -14 c 0
 196 -14 35 147 35 346 c 0
EndSplineSet
EndChar

StartChar: a126
Encoding: 282 9318 26
Width: 788
Flags: HMW
HStem: -14 35<304.5 484 304.5 493.5> 492 89<278.5 298 298 486> 670 35<304.5 484>
VStem: 35 35<256 435.5 256 445> 292 112<151 265.5> 292 120<151 174.5 145 201> 719 35<256 435.5>
LayerCount: 2
Fore
SplineSet
217 412 m 1
 222 581 l 1
 576 581 l 1
 484 423 l 2
 452 368 404 299 404 232 c 0
 404 209 412 186 412 163 c 0
 412 127 389 104 354 104 c 0
 314 104 292 132 292 170 c 0
 292 232 343 301 379 348 c 2
 486 492 l 1
 298 492 l 2
 259 492 257 457 237 412 c 1
 217 412 l 1
70 346 m 0
 70 166 215 21 394 21 c 0
 574 21 719 166 719 346 c 0
 719 525 574 670 394 670 c 0
 215 670 70 525 70 346 c 0
35 346 m 0
 35 544 196 705 394 705 c 0
 593 705 754 544 754 346 c 0
 754 147 593 -14 394 -14 c 0
 196 -14 35 147 35 346 c 0
EndSplineSet
EndChar

StartChar: a127
Encoding: 283 9319 27
Width: 788
Flags: HMW
HStem: -14 35<304.5 484 304.5 493.5> 104 38<357 411 357 429> 554 34<380 417.5> 670 35<304.5 484>
VStem: 35 35<256 435.5 256 445> 224 58<212.5 260.5 212.5 263.5> 256 78<473.5 502.5> 471 50<471 509.5> 478 88<205 245.5> 719 35<256 435.5>
LayerCount: 2
Fore
SplineSet
70 346 m 0
 70 166 215 21 394 21 c 0
 574 21 719 166 719 346 c 0
 719 525 574 670 394 670 c 0
 215 670 70 525 70 346 c 0
35 346 m 0
 35 544 196 705 394 705 c 0
 593 705 754 544 754 346 c 0
 754 147 593 -14 394 -14 c 0
 196 -14 35 147 35 346 c 0
357 343 m 1
 321 323 282 281 282 240 c 0
 282 185 329 142 385 142 c 0
 437 142 478 174 478 229 c 0
 478 262 457 283 412 311 c 0
 397 321 378 331 357 343 c 1
424 410 m 1
 453 426 471 454 471 488 c 0
 471 531 438 554 397 554 c 0
 363 554 334 529 334 494 c 0
 334 453 376 435 424 410 c 1
323 362 m 1
 285 385 256 414 256 463 c 0
 256 542 324 588 397 588 c 0
 455 588 521 563 521 493 c 0
 521 443 496 418 458 393 c 1
 519 363 566 327 566 253 c 0
 566 157 473 104 385 104 c 0
 307 104 224 137 224 229 c 0
 224 298 269 331 323 362 c 1
EndSplineSet
EndChar

StartChar: a128
Encoding: 284 9320 28
Width: 788
Flags: HMW
HStem: -14 35<305 484.5 305 494> 104 33<372 415> 104 146<275 415> 291 47<358.5 378> 331 20G<483 483 483 485> 553 35<359.5 418> 670 35<305 484.5>
VStem: 35 35<256 435.5 256 445> 223 81<416.5 469.5 416.5 476> 241 93<197.5 210.5> 478 109<327 476.5> 483 104<351 351> 485 102<351 351> 719 35<256 435.5>
LayerCount: 2
Fore
SplineSet
304 442 m 0
 304 391 329 338 388 338 c 0
 451 338 478 396 478 452 c 0
 478 501 445 553 391 553 c 0
 328 553 304 497 304 442 c 0
483 351 m 1
 453 308 404 291 352 291 c 0
 272 291 223 342 223 424 c 0
 223 528 294 588 391 588 c 0
 521 588 587 476 587 358 c 0
 587 296 572 229 537 177 c 0
 498 120 448 104 382 104 c 0
 328 104 241 129 241 196 c 0
 241 225 260 250 290 250 c 0
 315 250 334 229 334 204 c 0
 334 191 328 180 328 171 c 0
 328 147 362 137 382 137 c 0
 471 137 488 246 485 351 c 1
 483 351 l 1
70 346 m 0
 70 166 215 21 395 21 c 0
 574 21 719 166 719 346 c 0
 719 525 574 670 395 670 c 0
 215 670 70 525 70 346 c 0
35 346 m 0
 35 544 196 705 395 705 c 0
 593 705 754 544 754 346 c 0
 754 147 593 -14 395 -14 c 0
 196 -14 35 147 35 346 c 0
EndSplineSet
EndChar

StartChar: a129
Encoding: 285 9321 29
Width: 788
Flags: HMW
HStem: -14 35<304.5 484 304.5 493.5> 110 36<496 549> 492 16<160 186 160 160> 545 34<496.5 550> 670 35<304.5 484>
VStem: 35 35<256 435.5 256 445> 244 84<174 457 457 476.5> 375 96<323 362 323 395.5> 574 96<323.5 361.5> 719 35<256 435.5>
LayerCount: 2
Fore
SplineSet
186 111 m 1
 186 145 l 1
 217 147 l 2
 236 148 244 153 244 174 c 2
 244 457 l 2
 244 496 218 492 186 492 c 2
 160 492 l 1
 160 508 l 1
 211 511 245 533 273 581 c 1
 328 581 l 1
 328 174 l 2
 328 156 326 150 375 146 c 2
 386 145 l 1
 386 111 l 1
 186 111 l 1
70 346 m 0
 70 166 215 21 394 21 c 0
 574 21 719 166 719 346 c 0
 719 525 574 670 394 670 c 0
 215 670 70 525 70 346 c 0
35 346 m 0
 35 544 196 705 394 705 c 0
 593 705 754 544 754 346 c 0
 754 147 593 -14 394 -14 c 0
 196 -14 35 147 35 346 c 0
471 342 m 0
 471 304 469 146 523 146 c 0
 575 146 574 305 574 342 c 0
 574 381 577 545 523 545 c 0
 470 545 471 382 471 342 c 0
375 342 m 0
 375 449 393 579 528 579 c 0
 653 579 670 436 670 342 c 0
 670 234 652 110 522 110 c 0
 393 110 375 237 375 342 c 0
EndSplineSet
EndChar

StartChar: a13
Encoding: 286 9996 30
Width: 549
Flags: HMW
HStem: -51 24<178.5 204.5 178.5 207> -3 21G<95 95> 229 15 251 15<297 297 297 299> 384 15<268 268> 442 24 661 25<164.5 173> 681 24<345.5 355>
VStem: 138 25 218 14 267 15 282 16 320 16 366 25 424 25 438 24
LayerCount: 2
Fore
SplineSet
122 2 m 1
 139 -18 165 -27 192 -27 c 0
 217 -27 243 -19 262 -7 c 1
 309 131 l 1
 349 169 l 1
 388 235 l 1
 375 231 363 229 353 229 c 0
 335 229 322 238 321 259 c 1
 299 251 l 1
 286 251 272 260 268 271 c 0
 267 274 267 277 267 280 c 0
 267 305 314 331 324 338 c 1
 308 353 l 1
 361 400 l 1
 373 394 l 1
 336 330 l 1
 319 317 277 294 283 276 c 0
 285 270 291 267 297 266 c 2
 405 314 l 1
 418 335 l 1
 423 377 l 1
 428 423 l 1
 412 441 l 1
 398 443 l 1
 340 412 l 1
 367 658 l 2
 369 673 360 681 350 681 c 0
 341 681 332 674 329 661 c 2
 270 425 l 1
 243 425 l 1
 205 558 l 1
 187 638 l 2
 183 658 179 661 167 661 c 0
 162 661 156 656 157 638 c 2
 170 384 l 1
 268 399 l 1
 288 398 299 385 299 370 c 0
 299 362 297 352 291 344 c 0
 272 318 232 302 201 291 c 1
 221 265 227 236 233 196 c 1
 219 193 l 1
 213 235 204 266 181 291 c 1
 141 311 l 1
 147 325 l 1
 190 302 l 1
 219 313 261 329 279 354 c 0
 289 368 281 382 268 384 c 2
 134 363 l 1
 120 351 l 1
 103 225 l 1
 152 109 l 1
 122 2 l 1
337 256 m 1
 342 230 390 251 428 264 c 1
 438 269 l 1
 441 288 l 1
 426 317 l 1
 417 302 l 1
 392 292 l 1
 362 273 384 287 337 256 c 1
95 -3 m 1
 125 107 l 1
 78 222 l 1
 97 363 l 1
 122 386 l 1
 145 389 l 1
 132 636 l 2
 131 653 135 686 167 686 c 0
 197 686 206 668 212 643 c 2
 230 563 l 1
 256 472 l 1
 304 666 l 2
 311 693 332 705 352 705 c 0
 375 705 396 687 392 655 c 2
 370 456 l 1
 393 468 l 1
 424 464 l 1
 453 433 l 1
 448 376 l 1
 444 336 l 1
 466 293 l 1
 461 254 l 1
 413 227 l 1
 369 154 l 1
 331 116 l 1
 282 -22 l 1
 255 -41 223 -51 191 -51 c 0
 155 -51 120 -36 95 -3 c 1
EndSplineSet
EndChar

StartChar: a130
Encoding: 287 10102 31
Width: 788
Flags: HMW
HStem: -14 100<295 493.5> 606 99<376 453 376 376>
VStem: 352 101<185 445 185 606>
LayerCount: 2
Fore
SplineSet
259 86 m 1
 551 86 l 1
 551 119 l 1
 531 120 l 2
 469 125 453 120 453 185 c 2
 453 606 l 1
 376 606 l 1
 337 551 312 522 243 512 c 1
 243 492 l 1
 308 492 l 2
 353 492 352 489 352 445 c 2
 352 185 l 2
 353 158 347 124 313 122 c 2
 259 119 l 1
 259 86 l 1
35 346 m 0
 35 544 196 705 394 705 c 0
 593 705 754 544 754 346 c 0
 754 147 593 -14 394 -14 c 0
 196 -14 35 147 35 346 c 0
EndSplineSet
EndChar

StartChar: a131
Encoding: 288 10103 32
Width: 788
Flags: HMW
HStem: -14 100<295 493.5> 613 92<351.5 427.5>
VStem: 35 175<86 445> 35 196<246.5 543> 571 183<429 445 246.5 526> 583 171<246.5 286 286 286>
LayerCount: 2
Fore
SplineSet
210 86 m 1
 583 86 l 1
 583 286 l 1
 565 286 l 1
 540 201 l 2
 533 184 516 184 500 185 c 2
 275 185 l 1
 298 243 371 283 426 308 c 0
 499 343 571 383 571 475 c 0
 571 577 471 613 384 613 c 0
 319 613 231 582 231 504 c 0
 231 471 252 444 286 444 c 0
 315 444 339 467 339 496 c 0
 339 510 332 521 332 534 c 0
 332 554 370 572 386 572 c 0
 439 572 454 522 454 478 c 0
 454 395 384 342 324 297 c 0
 263 252 208 193 210 86 c 1
35 346 m 0
 35 544 196 705 394 705 c 0
 593 705 754 544 754 346 c 0
 754 147 593 -14 394 -14 c 0
 196 -14 35 147 35 346 c 0
EndSplineSet
EndChar

StartChar: a132
Encoding: 289 10104 33
Width: 788
Flags: HMW
HStem: -14 91<360 428.5 360 493.5> 334 20G<358 400.5> 381 83<262.5 337 262.5 313> 381 193<313 401 313 401> 613 92<362.5 429>
VStem: 35 168<168.5 445> 35 191<246.5 553.5> 318 154<187.5 282> 328 123<502.5 511 454.5 525.5> 554 200<246.5 545> 591 163<246.5 268.5>
LayerCount: 2
Fore
SplineSet
313 355 m 1
 331 359 349 354 367 354 c 0
 434 354 472 315 472 249 c 0
 472 188 431 122 365 122 c 0
 344 122 311 131 311 157 c 0
 311 170 318 181 318 194 c 0
 318 226 297 249 264 249 c 0
 224 249 203 227 203 189 c 0
 203 148 235 117 268 100 c 0
 302 83 341 77 379 77 c 0
 478 77 591 131 591 244 c 0
 591 293 565 334 520 355 c 0
 508 361 466 374 452 374 c 0
 448 374 440 375 440 381 c 0
 440 385 453 387 456 388 c 0
 512 405 554 435 554 500 c 0
 554 590 466 613 392 613 c 0
 333 613 226 592 226 515 c 0
 226 485 247 464 278 464 c 0
 305 464 328 489 328 516 c 0
 328 535 323 536 323 544 c 0
 323 553 340 574 374 574 c 0
 428 574 451 535 451 487 c 0
 451 422 399 381 337 381 c 2
 313 381 l 1
 313 355 l 1
35 346 m 0
 35 544 196 705 394 705 c 0
 593 705 754 544 754 346 c 0
 754 147 593 -14 394 -14 c 0
 196 -14 35 147 35 346 c 0
EndSplineSet
EndChar

StartChar: a133
Encoding: 290 10105 34
Width: 788
Flags: HMW
HStem: -14 100<295 493.5> 86 72<370 370 370 543> 606 99<373 468 373 373>
VStem: 35 543<246.5 273 219 445> 468 286<156 445 219 445 273 445 246.5 606 246.5 606>
LayerCount: 2
Fore
SplineSet
219 273 m 1
 370 532 l 1
 370 273 l 1
 219 273 l 1
156 219 m 1
 370 219 l 1
 370 158 l 2
 370 151 367 130 346 127 c 2
 275 118 l 1
 275 86 l 1
 543 86 l 1
 543 118 l 1
 492 127 l 2
 476 130 468 137 468 156 c 2
 468 219 l 1
 578 219 l 1
 578 273 l 1
 468 273 l 1
 468 606 l 1
 373 606 l 1
 156 252 l 1
 156 219 l 1
35 346 m 0
 35 544 196 705 394 705 c 0
 593 705 754 544 754 346 c 0
 754 147 593 -14 394 -14 c 0
 196 -14 35 147 35 346 c 0
EndSplineSet
EndChar

StartChar: a134
Encoding: 291 10106 35
Width: 788
Flags: HMW
HStem: -16 92 -14 92<331 414 331 493.5> 337 20G<343 392> 404 93 591 114<405.5 458.5>
VStem: 35 154<145 445> 35 195<323 323 323 445> 304 146<185.5 271> 576 178<246.5 279>
LayerCount: 2
Fore
SplineSet
230 323 m 1
 274 304 l 1
 295 331 325 357 361 357 c 0
 423 357 450 298 450 244 c 0
 450 187 414 118 349 118 c 0
 329 118 294 127 294 153 c 0
 294 166 304 176 304 195 c 0
 304 229 276 246 245 246 c 0
 209 246 189 218 189 185 c 0
 189 105 300 78 362 78 c 0
 466 78 576 141 576 256 c 0
 576 302 552 344 515 370 c 0
 482 395 441 404 400 404 c 0
 359 404 307 393 274 365 c 1
 274 499 l 1
 378 495 l 2
 422 495 490 490 527 518 c 0
 546 532 564 583 570 608 c 1
 527 594 481 591 436 591 c 0
 375 591 296 600 231 614 c 1
 230 323 l 1
35 346 m 0
 35 544 196 705 394 705 c 0
 593 705 754 544 754 346 c 0
 754 147 593 -14 394 -14 c 0
 196 -14 35 147 35 346 c 0
EndSplineSet
EndChar

StartChar: a135
Encoding: 292 10107 36
Width: 788
Flags: HMW
HStem: -14 92<363 448.5 363 493.5> 335 20G<372.5 436.5> 407 46<410 527.5> 407 171<410 414.5 377.5 483> 613 92<364.5 434>
VStem: 35 149<299.5 363 299.5 445> 299 193<209 264 209 269> 459 103<497 508.5> 562 192<246.5 550.5> 588 166<246.5 296>
LayerCount: 2
Fore
SplineSet
299 237 m 0
 299 301 339 355 406 355 c 0
 467 355 492 290 492 238 c 0
 492 180 462 116 396 116 c 0
 326 116 299 176 299 237 c 0
294 325 m 1
 302 384 302 454 317 503 c 1
 336 548 351 578 404 578 c 0
 425 578 465 566 465 540 c 0
 465 529 459 515 459 502 c 0
 459 473 481 453 510 453 c 0
 545 453 562 481 562 513 c 0
 562 588 464 613 404 613 c 0
 325 613 268 586 226 518 c 0
 192 463 184 395 184 331 c 0
 184 268 195 203 233 152 c 0
 273 99 330 78 396 78 c 0
 501 78 588 140 588 251 c 0
 588 341 527 407 439 407 c 0
 381 407 325 374 294 325 c 1
35 346 m 0
 35 544 196 705 394 705 c 0
 593 705 754 544 754 346 c 0
 754 147 593 -14 394 -14 c 0
 196 -14 35 147 35 346 c 0
EndSplineSet
EndChar

StartChar: a136
Encoding: 293 10108 37
Width: 788
Flags: HMW
HStem: -14 93<327 368.5 327 493.5> 607 98<295 493.5 295 594 200 493.5>
VStem: 35 164<420 420 420 445>
LayerCount: 2
Fore
SplineSet
199 420 m 1
 223 420 l 1
 241 475 l 2
 248 501 259 508 280 508 c 2
 495 508 l 1
 377 348 l 2
 336 296 281 220 281 152 c 0
 281 110 305 79 349 79 c 0
 388 79 413 105 413 144 c 0
 413 164 404 195 404 221 c 0
 404 294 457 370 492 431 c 2
 594 607 l 1
 200 607 l 1
 199 420 l 1
35 346 m 0
 35 544 196 705 394 705 c 0
 593 705 754 544 754 346 c 0
 754 147 593 -14 394 -14 c 0
 196 -14 35 147 35 346 c 0
EndSplineSet
EndChar

StartChar: a137
Encoding: 294 10109 38
Width: 788
Flags: HMW
HStem: -14 92<346 437.5 346 493.5> 613 92<357 429>
VStem: 35 171<246.5 255 166 445> 282 205<196.5 240.5 186 250> 327 152<484.5 521> 584 170<246.5 284.5>
LayerCount: 2
Fore
SplineSet
353 342 m 1
 407 312 l 2
 444 291 487 265 487 216 c 0
 487 156 441 120 384 120 c 0
 324 120 282 167 282 226 c 0
 282 274 311 320 353 342 c 1
428 416 m 1
 404 429 l 2
 371 446 327 458 327 502 c 0
 327 540 360 577 397 577 c 0
 442 577 479 551 479 503 c 0
 479 466 459 435 428 416 c 1
316 364 m 1
 255 330 206 293 206 217 c 0
 206 115 303 78 389 78 c 0
 486 78 584 137 584 244 c 0
 584 325 532 365 465 398 c 1
 507 425 535 449 535 505 c 0
 535 582 461 613 397 613 c 0
 317 613 251 563 251 477 c 0
 251 422 273 390 316 364 c 1
35 346 m 0
 35 544 196 705 394 705 c 0
 593 705 754 544 754 346 c 0
 754 147 593 -14 394 -14 c 0
 196 -14 35 147 35 346 c 0
EndSplineSet
EndChar

StartChar: a138
Encoding: 295 10110 39
Width: 788
Flags: HMW
HStem: -14 92<348 416 348 493.5> 115 170<363.5 377.5 304.5 423.5> 240 45<262 377.5> 613 92<338 463.5>
VStem: 35 162<404 445> 35 189<143 445> 294 193<431.5 483.5> 601 153<320 422>
LayerCount: 2
Fore
SplineSet
294 453 m 0
 294 514 320 575 390 575 c 0
 450 575 487 517 487 462 c 0
 487 401 456 337 386 337 c 0
 322 337 294 396 294 453 c 0
493 351 m 1
 493 326 l 2
 493 250 473 115 374 115 c 0
 353 115 321 126 321 153 c 0
 321 163 327 175 327 189 c 0
 327 216 306 240 279 240 c 0
 245 240 224 212 224 180 c 0
 224 106 318 78 378 78 c 0
 454 78 512 98 554 164 c 0
 592 221 601 286 601 354 c 0
 601 490 537 613 390 613 c 0
 286 613 197 559 197 451 c 0
 197 357 259 285 350 285 c 0
 405 285 460 306 493 351 c 1
35 346 m 0
 35 544 196 705 394 705 c 0
 593 705 754 544 754 346 c 0
 754 147 593 -14 394 -14 c 0
 196 -14 35 147 35 346 c 0
EndSplineSet
EndChar

StartChar: a139
Encoding: 296 10111 40
Width: 788
Flags: HMW
HStem: -14 92<462.5 493.5> -14 100<295 386 164 493.5> 526 179<135 493.5> 606 99<295 321 239 493.5> 613 92<461 493.5 295 605>
VStem: 35 193<246.5 445> 321 57<280.5 400 280.5 606> 480 113<321 341 321 360.5> 689 65<287 393>
LayerCount: 2
Fore
SplineSet
480 341 m 0
 480 380 481 575 536 575 c 0
 572 575 582 518 593 341 c 0
 593 301 594 118 537 118 c 0
 478 118 480 298 480 341 c 0
378 341 m 0
 378 220 388 78 537 78 c 0
 676 78 689 233 689 341 c 0
 689 445 674 613 536 613 c 0
 386 613 378 459 378 341 c 0
164 86 m 1
 386 86 l 1
 386 123 l 1
 373 125 l 2
 318 130 321 127 321 180 c 2
 321 606 l 1
 239 606 l 1
 208 553 192 529 135 526 c 1
 135 507 l 1
 167 507 l 2
 203 507 228 511 228 469 c 2
 228 180 l 2
 228 150 235 128 198 126 c 2
 164 123 l 1
 164 86 l 1
35 346 m 0
 35 544 196 705 394 705 c 0
 593 705 754 544 754 346 c 0
 754 147 593 -14 394 -14 c 0
 196 -14 35 147 35 346 c 0
EndSplineSet
EndChar

StartChar: a14
Encoding: 297 9997 41
Width: 855
Flags: HMW
HStem: 14 21G<814 814> 70 25<295.5 330 295.5 332> 90 26 148 15 175 24<750 764> 210 18 342 169 475 26 483 29 485 158
VStem: 19 25<167 211> 467 15<176.5 187 176.5 188> 713 16<286 298> 769 25
LayerCount: 2
Fore
SplineSet
438 137 m 1
 503 112 l 1
 542 133 l 1
 490 143 l 1
 477 152 467 164 467 180 c 0
 467 196 476 206 485 214 c 1
 434 207 l 1
 413 180 l 1
 410 178 l 1
 438 137 l 1
80 72 m 1
 207 123 l 1
 236 113 280 95 311 95 c 0
 349 95 389 114 422 132 c 1
 395 172 l 1
 325 143 262 141 186 159 c 1
 189 174 l 1
 266 156 331 158 403 192 c 1
 441 242 l 1
 471 229 l 1
 531 229 628 243 701 263 c 1
 710 270 713 280 713 290 c 0
 713 306 703 322 684 325 c 2
 500 352 l 1
 286 332 l 1
 285 347 l 1
 429 361 l 1
 445 432 l 1
 463 429 l 1
 456 396 l 1
 538 362 l 1
 587 354 l 1
 513 482 l 1
 400 488 l 1
 355 475 l 1
 112 313 l 1
 66 303 l 1
 47 270 44 234 44 189 c 0
 44 145 58 108 80 72 c 1
496 157 m 1
 566 143 l 1
 621 155 l 1
 602 226 l 1
 572 221 512 215 512 215 c 1
 493 206 482 194 482 180 c 0
 482 173 486 165 496 157 c 1
636 156 m 1
 652 134 675 103 707 121 c 1
 712 138 l 1
 656 236 l 1
 617 228 l 1
 636 156 l 1
668 342 m 1
 686 339 l 2
 710 335 729 315 729 292 c 0
 729 280 725 267 716 257 c 1
 750 199 l 1
 758 198 766 199 771 208 c 1
 768 338 l 1
 658 458 l 1
 611 476 l 1
 590 477 l 1
 668 342 l 1
68 42 m 1
 39 78 19 142 19 189 c 0
 19 233 27 289 51 326 c 1
 102 337 l 1
 345 497 l 1
 396 514 l 1
 498 508 l 1
 419 643 l 1
 494 643 l 1
 575 503 l 1
 617 500 l 1
 672 480 l 1
 792 348 l 1
 797 204 l 1
 792 187 779 178 764 175 c 1
 788 133 l 1
 823 20 l 1
 814 14 l 1
 733 103 l 1
 730 108 l 1
 729 105 l 1
 686 75 651 94 624 130 c 1
 567 118 l 1
 505 84 l 1
 436 111 l 1
 395 88 353 70 311 70 c 0
 278 70 238 86 207 97 c 1
 68 42 l 1
EndSplineSet
EndChar

StartChar: a140
Encoding: 298 10112 42
Width: 788
Flags: HMW
HStem: -14 35<304.5 484 304.5 493.5> 467 21<271 368 271 271> 670 35<304.5 484>
VStem: 35 35<256 435.5 256 445> 368 62<111 467 467 467> 719 35<256 435.5>
LayerCount: 2
Fore
SplineSet
368 111 m 1
 368 467 l 1
 271 467 l 1
 271 488 l 1
 333 489 359 516 372 581 c 1
 430 581 l 1
 430 111 l 1
 368 111 l 1
70 346 m 0
 70 166 215 21 394 21 c 0
 574 21 719 166 719 346 c 0
 719 525 574 670 394 670 c 0
 215 670 70 525 70 346 c 0
35 346 m 0
 35 544 196 705 394 705 c 0
 593 705 754 544 754 346 c 0
 754 147 593 -14 394 -14 c 0
 196 -14 35 147 35 346 c 0
EndSplineSet
EndChar

StartChar: a141
Encoding: 299 10113 43
Width: 788
Flags: HMW
HStem: -14 35<304.5 484 304.5 493.5> 111 51<312 546 312 546> 537 50<356 416.5> 670 35<304.5 484>
VStem: 35 35<256 435.5 256 445> 241 60<416 416> 480 65<396 463.5> 719 35<256 435.5>
LayerCount: 2
Fore
SplineSet
248 111 m 1
 247 126 l 1
 247 196 308 247 363 282 c 0
 421 320 480 357 480 435 c 0
 480 492 446 537 387 537 c 0
 325 537 301 485 301 411 c 1
 241 416 l 1
 240 525 305 587 388 587 c 0
 474 587 545 529 545 440 c 0
 545 337 468 289 392 238 c 0
 362 218 327 197 312 162 c 1
 546 162 l 1
 546 111 l 1
 248 111 l 1
70 346 m 0
 70 166 215 21 394 21 c 0
 574 21 719 166 719 346 c 0
 719 525 574 670 394 670 c 0
 215 670 70 525 70 346 c 0
35 346 m 0
 35 544 196 705 394 705 c 0
 593 705 754 544 754 346 c 0
 754 147 593 -14 394 -14 c 0
 196 -14 35 147 35 346 c 0
EndSplineSet
EndChar

StartChar: a142
Encoding: 300 10114 44
Width: 788
Flags: HMW
HStem: -14 35<304.5 484 304.5 493.5> 104 52<365.5 420 365.5 432> 541 47<362.5 416> 670 35<304.5 484>
VStem: 35 35<256 435.5 256 445> 471 62<430.5 482.5> 485 61<212.5 268.5 199 277.5> 719 35<256 435.5>
LayerCount: 2
Fore
SplineSet
253 255 m 1
 307 255 l 1
 300 200 339 156 392 156 c 0
 448 156 485 184 485 241 c 0
 485 314 411 342 350 335 c 1
 350 375 l 1
 375 374 l 2
 426 374 471 400 471 456 c 0
 471 509 443 541 389 541 c 0
 336 541 310 508 312 459 c 1
 258 465 l 1
 256 541 315 588 390 588 c 0
 465 588 533 536 533 456 c 0
 533 405 512 376 465 358 c 1
 465 356 l 1
 520 342 546 296 546 241 c 0
 546 157 472 104 392 104 c 0
 320 104 252 144 253 255 c 1
70 346 m 0
 70 166 215 21 394 21 c 0
 574 21 719 166 719 346 c 0
 719 525 574 670 394 670 c 0
 215 670 70 525 70 346 c 0
35 346 m 0
 35 544 196 705 394 705 c 0
 593 705 754 544 754 346 c 0
 754 147 593 -14 394 -14 c 0
 196 -14 35 147 35 346 c 0
EndSplineSet
EndChar

StartChar: a143
Encoding: 301 10115 45
Width: 788
Flags: HMW
HStem: -14 35<304.5 484 304.5 493.5> 229 53<200 200 256 408 463 542> 670 35<304.5 484>
VStem: 35 35<256 435.5 256 445> 408 55<111 229 111 229 282 507 507 507> 719 35<256 435.5>
LayerCount: 2
Fore
SplineSet
256 282 m 1
 408 282 l 1
 408 507 l 1
 256 282 l 1
200 229 m 1
 200 282 l 1
 412 588 l 1
 463 587 l 1
 463 282 l 1
 542 282 l 1
 542 229 l 1
 463 229 l 1
 463 111 l 1
 408 111 l 1
 408 229 l 1
 200 229 l 1
70 346 m 0
 70 166 215 21 394 21 c 0
 574 21 719 166 719 346 c 0
 719 525 574 670 394 670 c 0
 215 670 70 525 70 346 c 0
35 346 m 0
 35 544 196 705 394 705 c 0
 593 705 754 544 754 346 c 0
 754 147 593 -14 394 -14 c 0
 196 -14 35 147 35 346 c 0
EndSplineSet
EndChar

StartChar: a144
Encoding: 302 10116 46
Width: 788
Flags: HMW
HStem: -14 35<304.5 484 304.5 493.5> 104 50<373 434 373 447.5> 374 55<397.5 433> 528 53<320 546 320 320> 670 35<304.5 484>
VStem: 35 35<256 435.5 256 445> 262 52<224 236> 269 51<386 528 386 581> 493 63<242.5 303.5> 719 35<256 435.5>
LayerCount: 2
Fore
SplineSet
262 224 m 1
 314 236 l 1
 312 191 351 154 395 154 c 0
 473 154 493 209 493 276 c 0
 493 331 464 374 402 374 c 0
 352 374 322 348 314 302 c 1
 269 302 l 1
 269 581 l 1
 546 581 l 1
 546 528 l 1
 320 528 l 1
 320 386 l 1
 339 420 379 429 416 429 c 0
 502 429 556 355 556 274 c 0
 556 177 499 104 396 104 c 0
 324 104 266 151 262 224 c 1
70 346 m 0
 70 166 215 21 394 21 c 0
 574 21 719 166 719 346 c 0
 719 525 574 670 394 670 c 0
 215 670 70 525 70 346 c 0
35 346 m 0
 35 544 196 705 394 705 c 0
 593 705 754 544 754 346 c 0
 754 147 593 -14 394 -14 c 0
 196 -14 35 147 35 346 c 0
EndSplineSet
EndChar

StartChar: a145
Encoding: 303 10117 47
Width: 788
Flags: HMW
HStem: -14 35<304.5 484 304.5 493.5> 104 46<361.5 424 361 434.5> 361 52<388 419> 537 51<368 419.5> 670 35<304.5 484>
VStem: 35 35<256 435.5 256 445> 233 56<345 370> 233 66<235.5 370> 476 56<232.5 287> 719 35<256 435.5>
LayerCount: 2
Fore
SplineSet
299 265 m 0
 299 206 329 150 393 150 c 0
 455 150 476 206 476 259 c 0
 476 315 451 361 387 361 c 0
 332 361 299 317 299 265 c 0
289 345 m 1
 299 368 314 385 334 396 c 0
 353 408 376 413 400 413 c 0
 483 413 532 344 532 266 c 0
 532 183 479 104 390 104 c 0
 333 104 283 135 259 186 c 0
 237 231 233 294 233 344 c 0
 233 396 238 451 260 499 c 0
 284 550 340 588 396 588 c 0
 465 588 509 549 519 481 c 1
 469 468 l 1
 460 510 444 537 395 537 c 0
 309 537 289 436 289 345 c 1
70 346 m 0
 70 166 215 21 394 21 c 0
 574 21 719 166 719 346 c 0
 719 525 574 670 394 670 c 0
 215 670 70 525 70 346 c 0
35 346 m 0
 35 544 196 705 394 705 c 0
 593 705 754 544 754 346 c 0
 754 147 593 -14 394 -14 c 0
 196 -14 35 147 35 346 c 0
EndSplineSet
EndChar

StartChar: a146
Encoding: 304 10118 48
Width: 788
Flags: HMW
HStem: -14 35<304.5 484 304.5 493.5> 527 54<237 482 237 549> 670 35<304.5 484>
VStem: 35 35<256 435.5 256 445> 237 312<531 581 531 581 531 581> 719 35<256 435.5>
LayerCount: 2
Fore
SplineSet
292 111 m 1
 317 265 384 408 482 527 c 1
 237 527 l 1
 237 581 l 1
 549 581 l 1
 549 531 l 1
 460 404 384 265 359 111 c 1
 292 111 l 1
70 346 m 0
 70 166 215 21 394 21 c 0
 574 21 719 166 719 346 c 0
 719 525 574 670 394 670 c 0
 215 670 70 525 70 346 c 0
35 346 m 0
 35 544 196 705 394 705 c 0
 593 705 754 544 754 346 c 0
 754 147 593 -14 394 -14 c 0
 196 -14 35 147 35 346 c 0
EndSplineSet
EndChar

StartChar: a147
Encoding: 305 10119 49
Width: 788
Flags: HMW
HStem: -14 35<304.5 484 304.5 493.5> 114 52<368.5 424 368.5 429.5> 329 54<370.5 417.5> 541 47<374.5 423> 670 35<304.5 484>
VStem: 35 35<256 435.5 256 445> 246 56<213.5 265.5 213.5 275.5> 263 56<439.5 487.5 439 501.5> 480 52<438.5 488.5> 487 56<217.5 271.5 200 276> 719 35<256 435.5>
LayerCount: 2
Fore
SplineSet
70 346 m 0
 70 166 215 21 394 21 c 0
 574 21 719 166 719 346 c 0
 719 525 574 670 394 670 c 0
 215 670 70 525 70 346 c 0
35 346 m 0
 35 544 196 705 394 705 c 0
 593 705 754 544 754 346 c 0
 754 147 593 -14 394 -14 c 0
 196 -14 35 147 35 346 c 0
302 240 m 0
 302 187 342 166 395 166 c 0
 453 166 487 189 487 246 c 0
 487 306 446 329 389 329 c 0
 336 329 302 291 302 240 c 0
319 464 m 0
 319 414 344 383 397 383 c 0
 448 383 480 413 480 464 c 0
 480 513 448 541 398 541 c 0
 351 541 319 511 319 464 c 0
335 359 m 1
 335 361 l 1
 291 376 263 416 263 463 c 0
 263 540 329 588 401 588 c 0
 473 588 532 538 532 464 c 0
 532 411 507 376 458 361 c 1
 458 359 l 1
 513 343 543 300 543 243 c 0
 543 157 470 114 389 114 c 0
 308 114 246 164 246 246 c 0
 246 305 281 344 335 359 c 1
EndSplineSet
EndChar

StartChar: a148
Encoding: 306 10120 50
Width: 788
Flags: HMW
HStem: -14 35<304.5 484 304.5 493.5> 104 50<364 413> 281 52<358.5 401> 544 44<356 419.5> 670 35<304.5 484>
VStem: 35 35<256 435.5 256 445> 244 56<401 459.5 401 471.5> 264 49<206 216> 478 66<333 462.5> 488 56<333 349> 719 35<256 435.5>
LayerCount: 2
Fore
SplineSet
389 333 m 0
 451 333 478 380 478 437 c 0
 478 488 448 544 391 544 c 0
 321 544 300 490 300 429 c 0
 300 373 328 333 389 333 c 0
264 206 m 1
 313 216 l 1
 319 182 346 154 382 154 c 0
 480 154 488 277 488 349 c 1
 469 303 426 281 376 281 c 0
 291 281 244 349 244 429 c 0
 244 514 301 588 390 588 c 0
 518 588 544 457 544 355 c 0
 544 311 538 241 521 201 c 0
 498 146 444 104 382 104 c 0
 315 104 272 141 264 206 c 1
70 346 m 0
 70 166 215 21 394 21 c 0
 574 21 719 166 719 346 c 0
 719 525 574 670 394 670 c 0
 215 670 70 525 70 346 c 0
35 346 m 0
 35 544 196 705 394 705 c 0
 593 705 754 544 754 346 c 0
 754 147 593 -14 394 -14 c 0
 196 -14 35 147 35 346 c 0
EndSplineSet
EndChar

StartChar: a149
Encoding: 307 10121 51
Width: 788
Flags: HMW
HStem: -14 35<304.5 484 304.5 493.5> 103 45<449 532 449 557.5> 542 45<451 535.5> 670 35<304.5 484>
VStem: 35 35<256 435.5 256 445> 236 61<111 465 465 465> 346 56<315.5 374.5 315.5 396> 578 56<318 376.5> 719 35<256 435.5>
LayerCount: 2
Fore
SplineSet
236 111 m 1
 236 465 l 1
 154 465 l 1
 154 495 l 1
 202 494 240 528 246 581 c 1
 297 581 l 1
 297 111 l 1
 236 111 l 1
70 346 m 0
 70 166 215 21 394 21 c 0
 574 21 719 166 719 346 c 0
 719 525 574 670 394 670 c 0
 215 670 70 525 70 346 c 0
35 346 m 0
 35 544 196 705 394 705 c 0
 593 705 754 544 754 346 c 0
 754 147 593 -14 394 -14 c 0
 196 -14 35 147 35 346 c 0
346 346 m 0
 346 446 360 587 492 587 c 0
 616 587 634 442 634 346 c 0
 634 246 623 103 492 103 c 0
 378 103 346 259 346 346 c 0
402 346 m 0
 402 285 406 148 492 148 c 0
 572 148 578 290 578 346 c 0
 578 407 579 542 492 542 c 0
 410 542 402 403 402 346 c 0
EndSplineSet
EndChar

StartChar: a15
Encoding: 308 9998 52
Width: 911
Flags: HMW
HStem: 0 21G<757 757> 198 11 634 20G<225 225>
VStem: 104 664<11 533>
LayerCount: 2
Fore
SplineSet
560 146 m 1
 697 60 l 1
 706 69 l 1
 629 200 l 1
 596 197 l 1
 581 158 l 1
 560 146 l 1
534 103 m 1
 104 533 l 1
 152 582 l 1
 570 165 l 1
 584 200 l 1
 177 607 l 1
 188 617 l 1
 596 209 l 1
 624 211 l 1
 203 632 l 1
 225 654 l 1
 644 235 l 1
 768 11 l 1
 757 0 l 1
 534 103 l 1
EndSplineSet
EndChar

StartChar: a150
Encoding: 309 10122 53
Width: 788
Flags: HMW
HStem: -14 125<354 444 354 493.5> 595 110<369 444 369 369>
VStem: 354 90<111 595 111 467>
LayerCount: 2
Fore
SplineSet
354 111 m 1
 444 111 l 1
 444 595 l 1
 369 595 l 1
 357 525 328 503 257 502 c 1
 257 467 l 1
 354 467 l 1
 354 111 l 1
35 346 m 0
 35 544 196 705 394 705 c 0
 593 705 754 544 754 346 c 0
 754 147 593 -14 394 -14 c 0
 196 -14 35 147 35 346 c 0
EndSplineSet
EndChar

StartChar: a151
Encoding: 310 10123 54
Width: 788
Flags: HMW
HStem: -14 125<295 493.5> 601 104<345 434.5>
VStem: 35 192<423 445> 35 200<111 445> 315 152<415 415> 559 195<388.5 445 246.5 488.5>
LayerCount: 2
Fore
SplineSet
235 111 m 1
 560 111 l 1
 560 176 l 1
 330 176 l 1
 341 202 374 222 397 237 c 0
 475 289 559 336 559 441 c 0
 559 536 480 601 389 601 c 0
 301 601 227 539 227 423 c 1
 315 415 l 1
 314 484 332 529 387 529 c 0
 442 529 467 491 467 441 c 0
 467 368 413 332 358 297 c 0
 300 260 233 208 235 111 c 1
35 346 m 0
 35 544 196 705 394 705 c 0
 593 705 754 544 754 346 c 0
 754 147 593 -14 394 -14 c 0
 196 -14 35 147 35 346 c 0
EndSplineSet
EndChar

StartChar: a152
Encoding: 311 10124 55
Width: 788
Flags: HMW
HStem: -14 118<359 439.5 359 493.5> 170 162 388 145<375 400> 602 103<353 435>
VStem: 320 151<241.5 272> 559 195<246.5 279>
LayerCount: 2
Fore
SplineSet
239 271 m 1
 239 231 l 2
 239 145 321 104 397 104 c 0
 482 104 559 158 559 249 c 0
 559 309 535 338 486 364 c 1
 529 386 547 421 547 468 c 0
 547 549 473 602 397 602 c 0
 309 602 242 553 244 460 c 1
 326 451 l 1
 324 501 337 533 396 533 c 0
 440 533 458 505 458 465 c 0
 458 413 425 388 375 388 c 2
 336 391 l 1
 336 329 l 1
 383 332 l 2
 434 332 471 309 471 253 c 0
 471 203 444 171 392 170 c 0
 324 169 320 211 320 272 c 1
 239 271 l 1
35 346 m 0
 35 544 196 705 394 705 c 0
 593 705 754 544 754 346 c 0
 754 147 593 -14 394 -14 c 0
 196 -14 35 147 35 346 c 0
EndSplineSet
EndChar

StartChar: a153
Encoding: 312 10125 56
Width: 788
Flags: HMW
HStem: -14 125<394 477 394 493.5> 603 102<389 477 389 389>
VStem: 186 291<111 229 111 289> 275 119<111 296>
LayerCount: 2
Fore
SplineSet
275 296 m 1
 394 490 l 1
 394 296 l 1
 275 296 l 1
186 229 m 1
 394 229 l 1
 394 111 l 1
 477 111 l 1
 477 229 l 1
 561 229 l 1
 561 296 l 1
 477 296 l 1
 477 603 l 1
 389 603 l 1
 186 289 l 1
 186 229 l 1
35 346 m 0
 35 544 196 705 394 705 c 0
 593 705 754 544 754 346 c 0
 754 147 593 -14 394 -14 c 0
 196 -14 35 147 35 346 c 0
EndSplineSet
EndChar

StartChar: a154
Encoding: 313 10126 57
Width: 788
Flags: HMW
HStem: -14 118<356.5 446.5 356.5 493.5> 453 75<396 460> 595 110<295 493.5 295 554 255 493.5>
VStem: 570 184<246.5 333.5>
LayerCount: 2
Fore
SplineSet
248 236 m 1
 251 154 317 104 396 104 c 0
 497 104 570 185 570 285 c 0
 570 382 510 453 410 453 c 0
 382 453 359 446 334 434 c 1
 334 528 l 1
 554 528 l 1
 554 595 l 1
 255 595 l 1
 255 312 l 1
 326 312 l 1
 333 354 353 383 402 383 c 0
 457 383 480 342 480 294 c 0
 480 236 464 175 395 175 c 0
 349 175 323 212 327 254 c 1
 248 236 l 1
35 346 m 0
 35 544 196 705 394 705 c 0
 593 705 754 544 754 346 c 0
 754 147 593 -14 394 -14 c 0
 196 -14 35 147 35 346 c 0
EndSplineSet
EndChar

StartChar: a155
Encoding: 314 10127 58
Width: 788
Flags: HMW
HStem: -14 118<320 437 320 493.5> 174 186<364 416 362 420.5> 427 106<380.5 418.5 359 444.5> 602 103<327 434>
VStem: 35 184<294.5 407 294.5 445> 309 154<246.5 289 242.5 294>
LayerCount: 2
Fore
SplineSet
309 272 m 0
 309 316 337 360 387 360 c 0
 445 360 463 313 463 265 c 0
 463 220 448 174 393 174 c 0
 335 174 309 221 309 272 c 0
303 392 m 1
 305 448 324 533 394 533 c 0
 443 533 448 501 458 464 c 1
 534 485 l 1
 524 560 472 602 396 602 c 0
 258 602 219 463 219 351 c 0
 219 238 250 104 390 104 c 0
 484 104 546 182 546 272 c 0
 546 359 489 427 400 427 c 0
 361 427 333 417 303 392 c 1
35 346 m 0
 35 544 196 705 394 705 c 0
 593 705 754 544 754 346 c 0
 754 147 593 -14 394 -14 c 0
 196 -14 35 147 35 346 c 0
EndSplineSet
EndChar

StartChar: a156
Encoding: 315 10128 59
Width: 788
Flags: HMW
HStem: -14 125<297 372 297 493.5> 595 110<295 493.5 295 563 223 493.5>
VStem: 223 340<533 595 533 595 527 595>
LayerCount: 2
Fore
SplineSet
297 111 m 1
 372 111 l 1
 396 270 474 402 563 533 c 1
 563 595 l 1
 223 595 l 1
 223 527 l 1
 472 527 l 1
 374 404 320 263 297 111 c 1
35 346 m 0
 35 544 196 705 394 705 c 0
 593 705 754 544 754 346 c 0
 754 147 593 -14 394 -14 c 0
 196 -14 35 147 35 346 c 0
EndSplineSet
EndChar

StartChar: a157
Encoding: 316 10129 60
Width: 788
Flags: HMW
HStem: -14 118<352 437.5 352 493.5> 173 150<370.5 421.5> 402 130<375 420> 601 104<362 439>
VStem: 35 197<246.5 274 200 445> 315 159<223.5 271 222.5 272.5> 330 136<446.5 488 445.5 488.5> 557 197<246.5 278>
LayerCount: 2
Fore
SplineSet
315 247 m 0
 315 298 344 323 397 323 c 0
 446 323 474 295 474 247 c 0
 474 198 448 173 395 173 c 0
 346 173 315 200 315 247 c 0
330 467 m 0
 330 510 351 532 399 532 c 0
 444 532 466 509 466 467 c 0
 466 424 443 402 397 402 c 0
 353 402 330 426 330 467 c 0
314 367 m 1
 263 349 232 301 232 247 c 0
 232 153 308 104 396 104 c 0
 479 104 557 160 557 247 c 0
 557 309 531 339 480 367 c 1
 525 386 546 419 546 467 c 0
 546 548 477 601 401 601 c 0
 323 601 250 551 250 467 c 0
 250 426 275 384 314 367 c 1
35 346 m 0
 35 544 196 705 394 705 c 0
 593 705 754 544 754 346 c 0
 754 147 593 -14 394 -14 c 0
 196 -14 35 147 35 346 c 0
EndSplineSet
EndChar

StartChar: a158
Encoding: 317 10130 61
Width: 788
Flags: HMW
HStem: -14 118<342 409 342 493.5> 174 107<364 393.5 330.5 418.5> 349 185<363.5 413 354.5 417> 601 104<342.5 456>
VStem: 35 195<392 445> 314 158 557 197<342.5 423.5>
LayerCount: 2
Fore
SplineSet
314 430 m 0
 314 476 324 534 385 534 c 0
 441 534 467 488 467 439 c 0
 467 390 445 349 389 349 c 0
 338 349 314 383 314 430 c 0
249 218 m 1
 255 148 307 104 377 104 c 0
 441 104 496 135 527 192 c 0
 552 237 557 317 557 368 c 0
 557 479 522 601 390 601 c 0
 295 601 230 528 230 436 c 0
 230 348 285 281 376 281 c 0
 411 281 447 290 472 314 c 1
 469 259 455 174 382 174 c 0
 346 174 330 201 325 232 c 1
 249 218 l 1
35 346 m 0
 35 544 196 705 394 705 c 0
 593 705 754 544 754 346 c 0
 754 147 593 -14 394 -14 c 0
 196 -14 35 147 35 346 c 0
EndSplineSet
EndChar

StartChar: a159
Encoding: 318 10131 62
Width: 788
Flags: HMW
HStem: -14 117<428 493.5> -14 125<295 311 222 493.5> 595 110<295 311 233 493.5> 601 104<418.5 493.5 295 556>
VStem: 35 187<246.5 445> 413 149<335 382.5> 646 108<303 411>
LayerCount: 2
Fore
SplineSet
413 358 m 0
 413 407 420 546 489 546 c 0
 563 546 562 410 562 358 c 0
 562 312 556 162 489 162 c 0
 416 162 413 308 413 358 c 0
330 358 m 0
 330 262 367 103 489 103 c 0
 629 103 646 248 646 358 c 0
 646 464 623 601 489 601 c 0
 348 601 330 468 330 358 c 0
35 346 m 0
 35 544 196 705 394 705 c 0
 593 705 754 544 754 346 c 0
 754 147 593 -14 394 -14 c 0
 196 -14 35 147 35 346 c 0
222 111 m 1
 311 111 l 1
 311 595 l 1
 233 595 l 1
 228 535 194 498 140 499 c 1
 140 465 l 1
 222 465 l 1
 222 111 l 1
EndSplineSet
EndChar

StartChar: a16
Encoding: 319 9999 63
Width: 933
Flags: HMW
HStem: 245 69 248 119<23 600 23 600 23 632> 336 67 388 31<23 616 23 619 23 616>
LayerCount: 2
Fore
SplineSet
619 297 m 1
 777 333 l 1
 777 346 l 1
 630 384 l 1
 609 359 l 1
 626 320 l 1
 619 297 l 1
23 248 m 1
 23 317 l 1
 613 317 l 1
 598 352 l 1
 23 352 l 1
 23 367 l 1
 600 367 l 1
 619 388 l 1
 23 388 l 1
 23 419 l 1
 616 419 l 1
 862 348 l 1
 862 333 l 1
 632 248 l 1
 23 248 l 1
EndSplineSet
EndChar

StartChar: a160
Encoding: 320 10132 64
Width: 894
Flags: HMW
HStem: 3 21G<360 360> 296 87 657 20G<360 360>
VStem: 54 805<339 341 339 391 339 391>
LayerCount: 2
Fore
SplineSet
54 289 m 1
 54 391 l 1
 358 376 l 1
 358 676 l 1
 360 677 l 1
 859 341 l 1
 859 339 l 1
 360 3 l 1
 358 4 l 1
 358 304 l 1
 54 289 l 1
EndSplineSet
EndChar

StartChar: a161
Encoding: 321 8594 65
Width: 838
Flags: HMW
HStem: 152 21G 335 23<35 589 35 589> 520 20G
LayerCount: 2
Fore
SplineSet
35 335 m 1
 35 358 l 1
 589 358 l 1
 543 400 511 477 512 540 c 1
 577 453 701 383 803 346 c 1
 701 309 575 239 512 152 c 1
 509 221 547 283 589 335 c 1
 35 335 l 1
EndSplineSet
EndChar

StartChar: a162
Encoding: 322 10147 66
Width: 924
Flags: HMW
HStem: 98 21G<35 35> 326 20G<329 329 374 374 374 795 889 889> 574 20G<35 35>
VStem: 35 854<98 346 346 594>
LayerCount: 2
Fore
SplineSet
146 170 m 1
 795 346 l 1
 374 346 l 1
 146 170 l 1
35 98 m 1
 329 346 l 1
 35 594 l 1
 889 346 l 1
 35 98 l 1
EndSplineSet
EndChar

StartChar: a163
Encoding: 323 8596 67
Width: 1016
Flags: HMW
HStem: 152 21G 335 23<223 793 223 793> 520 20G
LayerCount: 2
Fore
SplineSet
34 346 m 1
 136 382 237 452 300 540 c 1
 303 470 265 408 223 358 c 1
 793 358 l 1
 746 399 715 477 716 540 c 1
 781 453 879 382 981 346 c 1
 880 309 779 239 716 152 c 1
 712 221 751 283 793 335 c 1
 223 335 l 1
 269 290 301 215 300 152 c 1
 235 238 137 308 34 346 c 1
EndSplineSet
EndChar

StartChar: a164
Encoding: 324 8597 68
Width: 458
Flags: HMW
HStem: -125 21G 800 20G
VStem: 217 23<61 631 61 631>
LayerCount: 2
Fore
SplineSet
35 138 m 1
 104 142 166 103 217 61 c 1
 217 631 l 1
 173 585 98 553 35 554 c 1
 121 619 191 717 229 820 c 1
 265 718 335 617 422 554 c 1
 353 551 291 589 240 631 c 1
 240 61 l 1
 282 108 360 139 422 138 c 1
 336 73 265 -23 229 -125 c 1
 192 -24 122 75 35 138 c 1
EndSplineSet
EndChar

StartChar: a165
Encoding: 325 10137 69
Width: 924
Flags: HMW
HStem: 43 21G<439 439> 302 74 616 20G<439 439>
VStem: 56 824<339 341 339 383 339 383>
LayerCount: 2
Fore
SplineSet
56 296 m 1
 56 383 l 1
 438 370 l 1
 438 635 l 1
 439 636 l 1
 880 341 l 1
 880 339 l 1
 439 43 l 1
 438 44 l 1
 438 309 l 1
 56 296 l 1
EndSplineSet
EndChar

StartChar: a166
Encoding: 326 10139 70
Width: 918
Flags: HMW
HStem: 327 26 327 27 342 9
VStem: 20 879
LayerCount: 2
Fore
SplineSet
56 325 m 1
 41 332 31 345 26 350 c 0
 21 355 18 358 18 361 c 0
 18 364 22 366 25 365 c 0
 44 363 81 354 108 354 c 2
 719 352 l 1
 643 382 561 418 538 474 c 0
 534 485 532 495 534 495 c 0
 535 495 537 492 539 490 c 0
 608 399 763 361 896 351 c 0
 899 351 902 350 902 349 c 0
 902 346 893 343 886 342 c 0
 876 342 873 339 871 336 c 0
 870 334 869 333 867 333 c 0
 763 318 565 277 502 192 c 0
 500 189 496 186 494 186 c 0
 490 186 489 195 495 209 c 0
 517 260 625 312 704 329 c 1
 56 325 l 1
EndSplineSet
EndChar

StartChar: a167
Encoding: 327 10140 71
Width: 927
Flags: HMW
HStem: 32 21G<550.5 594> 264 164<116.5 582 146 582> 640 20G<550.5 593.5>
VStem: 35 857<346 346 346 378.5>
LayerCount: 2
Fore
SplineSet
582 264 m 1
 146 264 l 2
 87 264 35 278 35 346 c 0
 35 411 88 428 146 428 c 2
 582 428 l 1
 526 491 l 2
 507 510 485 537 485 565 c 0
 485 618 524 660 577 660 c 0
 610 660 635 639 655 615 c 2
 892 346 l 1
 658 81 l 2
 637 56 612 32 576 32 c 0
 525 32 485 71 485 123 c 0
 485 156 499 179 520 202 c 2
 582 264 l 1
EndSplineSet
EndChar

StartChar: a168
Encoding: 328 10141 72
Width: 928
Flags: HMW
HStem: 129 21G<654 654> 329 33<35 654 35 654> 542 20G<654 654>
VStem: 35 856<346 346 346 362 346 362>
LayerCount: 2
Fore
SplineSet
35 329 m 1
 35 362 l 1
 654 362 l 1
 654 562 l 1
 891 346 l 1
 654 129 l 1
 654 329 l 1
 35 329 l 1
EndSplineSet
EndChar

StartChar: a169
Encoding: 329 10142 73
Width: 928
Flags: HMW
HStem: 128 21G<654 654> 288 116<35 654 35 654> 543 20G<654 654>
VStem: 35 858<346 346 346 404 346 404>
LayerCount: 2
Fore
SplineSet
35 288 m 1
 35 404 l 1
 654 404 l 1
 654 563 l 1
 893 346 l 1
 654 128 l 1
 654 288 l 1
 35 288 l 1
EndSplineSet
EndChar

StartChar: a17
Encoding: 330 10001 74
Width: 945
Flags: HMW
HStem: -93 21G<87 87> 721 20G<785.5 794>
LayerCount: 2
Fore
SplineSet
83 -44 m 1
 84 -45 l 1
 221 107 l 1
 216 137 254 172 283 172 c 0
 291 172 298 164 298 157 c 0
 298 129 266 94 237 94 c 1
 96 -56 l 1
 97 -57 l 1
 107 -50 126 -39 142 -32 c 0
 243 16 361 45 469 57 c 1
 502 182 544 265 622 368 c 0
 646 401 673 433 698 465 c 0
 703 472 707 478 707 488 c 0
 707 518 673 548 643 548 c 0
 627 548 623 543 613 533 c 0
 566 485 519 438 468 394 c 0
 391 327 308 266 223 208 c 1
 204 156 179 105 151 55 c 0
 135 26 107 -14 83 -44 c 1
45 -54 m 1
 106 20 168 135 201 225 c 1
 359 333 465 418 598 556 c 0
 614 569 630 574 646 574 c 0
 692 574 734 529 734 486 c 0
 734 477 732 469 729 460 c 0
 604 306 540 228 491 32 c 1
 352 18 207 -18 87 -93 c 1
 45 -54 l 1
534 505 m 1
 534 509 534 512 534 516 c 0
 534 551 576 610 633 617 c 1
 725 729 l 1
 739 737 777 741 794 741 c 1
 681 611 l 1
 701 604 718 594 732 581 c 1
 875 716 l 1
 901 562 l 1
 775 468 l 1
 767 425 727 374 673 371 c 1
 702 409 l 1
 729 426 751 458 751 484 c 0
 751 546 693 590 646 590 c 0
 613 590 583 563 570 540 c 1
 534 505 l 1
EndSplineSet
EndChar

StartChar: a170
Encoding: 331 10143 75
Width: 834
Flags: HMW
HStem: 155 21G<571 571> 258 176<35 60 35 60 35 124 124 171 35 207 207 285 310 571> 517 20G<571 571>
VStem: 35 25<258 434 258 434> 124 47<258 434 258 434> 207 78<258 434 258 434>
LayerCount: 2
Fore
SplineSet
35 258 m 1
 35 434 l 1
 60 434 l 1
 60 258 l 1
 35 258 l 1
124 258 m 1
 124 434 l 1
 171 434 l 1
 171 258 l 1
 124 258 l 1
207 258 m 1
 207 434 l 1
 285 434 l 1
 285 258 l 1
 207 258 l 1
310 258 m 1
 310 434 l 1
 571 434 l 1
 571 537 l 1
 799 346 l 1
 571 155 l 1
 571 258 l 1
 310 258 l 1
EndSplineSet
EndChar

StartChar: a171
Encoding: 332 10144 76
Width: 873
Flags: HMW
HStem: 93 21G<574 581 574 574> 579 20G<574 581 581 581>
VStem: 35 23<199 493 199 493> 130 32<199 493 199 493> 221 51<199 493 199 493> 310 74<199 493 199 493>
LayerCount: 2
Fore
SplineSet
35 199 m 1
 35 493 l 1
 58 493 l 1
 58 199 l 1
 35 199 l 1
130 199 m 1
 130 493 l 1
 162 493 l 1
 162 199 l 1
 130 199 l 1
221 199 m 1
 221 493 l 1
 272 493 l 1
 272 199 l 1
 221 199 l 1
310 199 m 1
 310 493 l 1
 384 493 l 1
 384 199 l 1
 310 199 l 1
408 199 m 1
 408 493 l 1
 574 493 l 1
 574 599 l 1
 581 599 l 1
 620 484 728 393 838 346 c 1
 730 300 625 212 581 93 c 1
 574 93 l 1
 574 199 l 1
 408 199 l 1
EndSplineSet
EndChar

StartChar: a172
Encoding: 333 10145 77
Width: 828
Flags: HMW
HStem: 104 21G<538 538> 568 20G<538 538>
VStem: 35 756<346 346 346 491 346 491>
LayerCount: 2
Fore
SplineSet
35 201 m 1
 35 491 l 1
 538 491 l 1
 538 588 l 1
 791 346 l 1
 538 104 l 1
 538 201 l 1
 35 201 l 1
EndSplineSet
EndChar

StartChar: a173
Encoding: 334 10146 78
Width: 924
Flags: HMW
HStem: 98 21G<35 35> 326 20G<331 331 376 795 795 795 889 889> 574 20G<35 35>
VStem: 35 854<98 346 346 594>
LayerCount: 2
Fore
SplineSet
376 346 m 1
 795 346 l 1
 156 522 l 1
 376 346 l 1
35 98 m 1
 331 346 l 1
 35 594 l 1
 889 346 l 1
 35 98 l 1
EndSplineSet
EndChar

StartChar: a174
Encoding: 335 10148 79
Width: 917
Flags: HMW
HStem: 0 21G<35 35> 672 20G<35 35>
VStem: 35 847<0 346 346 692>
LayerCount: 2
Fore
SplineSet
35 0 m 1
 246 346 l 1
 35 692 l 1
 882 346 l 1
 35 0 l 1
EndSplineSet
EndChar

StartChar: a175
Encoding: 336 10149 80
Width: 930
Flags: HMW
HStem: 84 21G<545 545> 367 77 588 20G<35 75 75 75>
VStem: 35 40<540 608 540 608 540 608>
LayerCount: 2
Fore
SplineSet
545 84 m 1
 545 186 l 1
 218 186 l 2
 165 186 119 190 81 231 c 0
 36 278 36 306 35 367 c 2
 35 608 l 1
 75 608 l 1
 75 472 132 443 234 444 c 2
 545 444 l 1
 545 548 l 1
 896 316 l 1
 545 84 l 1
EndSplineSet
EndChar

StartChar: a176
Encoding: 337 10150 81
Width: 931
Flags: HMW
HStem: 84 21G<35 35 35 75> 247 259<235 545 235 235> 588 20G<545 545>
VStem: 35 40<84 152 84 325>
LayerCount: 2
Fore
SplineSet
35 84 m 1
 35 325 l 2
 36 385 37 414 81 460 c 0
 120 501 165 506 218 506 c 2
 545 506 l 1
 545 608 l 1
 896 376 l 1
 545 144 l 1
 545 247 l 1
 235 247 l 2
 133 248 75 220 75 84 c 1
 35 84 l 1
EndSplineSet
EndChar

StartChar: a177
Encoding: 338 10151 82
Width: 463
Flags: HMW
HStem: -99 21G<163 163> 771 20G<163 163>
VStem: 35 394<346 346 346 637 346 637>
LayerCount: 2
Fore
SplineSet
35 55 m 1
 35 637 l 1
 163 637 l 1
 163 791 l 1
 429 346 l 1
 163 -99 l 1
 163 55 l 1
 35 55 l 1
EndSplineSet
EndChar

StartChar: a178
Encoding: 339 10152 83
Width: 883
Flags: HMW
HStem: 71 21G<430 441 430 430> 603 20G<430 441 441 441>
VStem: 430 11<71 164>
LayerCount: 2
Fore
SplineSet
35 164 m 1
 35 529 l 1
 430 529 l 1
 430 623 l 1
 441 623 l 1
 530 479 679 372 848 352 c 1
 848 343 l 1
 710 363 476 142 441 71 c 1
 430 71 l 1
 430 164 l 1
 35 164 l 1
EndSplineSet
EndChar

StartChar: a179
Encoding: 340 10153 84
Width: 836
Flags: HMW
HStem: 44 21<423 423 423 545> 44 182<397 423 61 545 397 397> 201 25<61 397> 466 25<61 397 35 423 61 61> 466 182<397 423> 627 21<423 423>
VStem: 35 26<226 226 226 466> 397 26<65 201 201 201 491 627>
LayerCount: 2
Fore
SplineSet
61 226 m 1
 423 226 l 1
 423 65 l 1
 673 346 l 1
 423 627 l 1
 423 466 l 1
 61 466 l 1
 61 226 l 1
35 201 m 1
 35 491 l 1
 397 491 l 1
 397 648 l 1
 545 648 l 1
 802 346 l 1
 545 44 l 1
 397 44 l 1
 397 201 l 1
 35 201 l 1
EndSplineSet
EndChar

StartChar: a18
Encoding: 341 10002 85
Width: 974
Flags: HMW
HStem: -80 21G<89 89> 371 179<623 673> 550 40<629.5 655.5> 590 21<629.5 681> 721 20G<785.5 794>
VStem: 59 842<-52 562>
LayerCount: 2
Fore
SplineSet
59 -52 m 1
 118 19 181 142 209 219 c 1
 338 307 462 400 571 513 c 2
 603 547 l 1
 611 548 619 550 627 550 c 0
 684 550 712 500 706 450 c 1
 708 450 l 1
 591 306 528 224 483 42 c 1
 354 28 203 -9 89 -80 c 1
 81 -72 l 1
 237 94 l 1
 266 94 298 129 298 157 c 0
 298 164 291 172 283 172 c 0
 254 172 216 137 221 107 c 1
 70 -60 l 1
 59 -52 l 1
534 505 m 1
 534 509 534 512 534 516 c 0
 534 551 576 610 633 617 c 1
 725 729 l 1
 739 737 777 741 794 741 c 1
 681 611 l 1
 701 604 718 594 732 581 c 1
 875 716 l 1
 901 562 l 1
 775 468 l 1
 767 425 727 374 673 371 c 1
 702 409 l 1
 729 426 751 458 751 484 c 0
 751 546 693 590 646 590 c 0
 613 590 583 563 570 540 c 1
 534 505 l 1
EndSplineSet
EndChar

StartChar: a180
Encoding: 342 10155 86
Width: 867
Flags: HMW
HStem: 5 698<277 447>
VStem: 58 735<202 392>
LayerCount: 2
Fore
SplineSet
58 202 m 1
 61 298 l 1
 123 524 l 1
 376 485 l 1
 447 703 l 1
 793 392 l 1
 793 286 l 1
 277 5 l 1
 280 113 l 1
 312 243 l 1
 58 202 l 1
104 298 m 1
 379 332 l 1
 333 153 l 1
 333 153 737 378 737 375 c 1
 737 378 l 1
 737 378 462 620 465 621 c 0
 465 624 404 435 404 435 c 1
 153 474 l 1
 104 298 l 1
EndSplineSet
EndChar

StartChar: a181
Encoding: 343 10157 87
Width: 696
Flags: HMW
HStem: 44 21G<367 367> 133 89<121 121 121 291> 514 29<63 291 35 317 63 63> 628 20G<291 291>
VStem: 35 28<222 222 222 514> 291 26<123 133 133 133 543 589>
LayerCount: 2
Fore
SplineSet
63 222 m 1
 317 222 l 1
 317 123 l 1
 575 367 l 1
 317 589 l 1
 317 514 l 1
 63 514 l 1
 63 222 l 1
121 133 m 1
 35 205 l 1
 35 543 l 1
 291 543 l 1
 291 648 l 1
 661 328 l 1
 367 44 l 1
 291 107 l 1
 291 133 l 1
 121 133 l 1
EndSplineSet
EndChar

StartChar: a182
Encoding: 344 10159 88
Width: 874
Flags: HMW
HStem: 77 21G<608 608> 173 68<104 104 104 546> 502 26<77 546 37 570 77 77> 599 20G<546 546>
VStem: 546 24<136 241 173 241 528 562>
LayerCount: 2
Fore
SplineSet
63 241 m 1
 570 241 l 1
 570 188 l 1
 756 371 l 1
 570 562 l 1
 570 502 l 1
 77 502 l 1
 141 371 l 1
 63 241 l 1
104 173 m 1
 35 241 l 1
 114 371 l 1
 37 528 l 1
 546 528 l 1
 546 619 l 1
 840 323 l 1
 608 77 l 1
 546 136 l 1
 546 173 l 1
 104 173 l 1
EndSplineSet
EndChar

StartChar: a183
Encoding: 345 10162 89
Width: 760
Flags: HMW
HStem: -4 21G<287 473> 663 20G<287 473>
VStem: 43 168<245 435>
LayerCount: 2
Fore
SplineSet
211 52 m 1
 212 51 l 1
 711 339 l 1
 711 341 l 1
 212 629 l 1
 211 628 l 1
 211 52 l 1
43 340 m 0
 43 530 194 683 380 683 c 0
 566 683 717 530 717 340 c 0
 717 150 566 -4 380 -4 c 0
 194 -4 43 150 43 340 c 0
EndSplineSet
EndChar

StartChar: a184
Encoding: 346 10163 90
Width: 946
Flags: HMW
HStem: 98 21G<678 678> 219 34<110 377 110 384> 324 32<481 678 481 678> 427 34<110 377 110 110> 562 20G<678 678>
VStem: 678 33<173 173 173 324 324 324 356 507>
LayerCount: 2
Fore
SplineSet
110 253 m 1
 377 253 l 1
 456 340 l 1
 377 427 l 1
 110 427 l 1
 194 340 l 1
 110 253 l 1
711 173 m 1
 869 340 l 1
 711 507 l 1
 711 173 l 1
39 219 m 1
 153 340 l 1
 39 461 l 1
 384 461 l 1
 481 356 l 1
 678 356 l 1
 678 582 l 1
 911 340 l 1
 678 98 l 1
 678 324 l 1
 481 324 l 1
 384 219 l 1
 39 219 l 1
EndSplineSet
EndChar

StartChar: a185
Encoding: 347 10165 91
Width: 865
Flags: HW
LayerCount: 2
Fore
SplineSet
156 366 m 1
 35 481 l 1
 374 481 l 1
 374 481 499 366 494 366 c 2
 156 366 l 1
35 207 m 1
 156 326 l 1
 494 326 l 1
 375 207 l 1
 35 207 l 1
499 326 m 1
 499 366 l 1
 652 366 l 1
 626 396 623 451 657 480 c 1
 697 419 763 379 830 352 c 1
 764 313 697 272 657 212 c 1
 626 245 626 292 652 326 c 1
 499 326 l 1
EndSplineSet
EndChar

StartChar: a186
Encoding: 348 10168 92
Width: 967
Flags: HMW
HStem: 124 21G 329 34<587 704 612 704> 548 20G
VStem: 182 479
LayerCount: 2
Fore
SplineSet
35 143 m 1
 43 231 96 315 182 346 c 1
 95 380 47 458 35 549 c 1
 373 549 l 1
 378 498 405 437 443 405 c 0
 491 363 552 363 612 363 c 2
 704 363 l 1
 653 414 648 529 661 568 c 1
 731 474 822 392 932 346 c 1
 822 302 735 215 661 124 c 1
 648 183 651 273 704 329 c 1
 612 329 l 2
 562 329 485 328 443 298 c 0
 400 267 379 196 373 143 c 1
 35 143 l 1
EndSplineSet
EndChar

StartChar: a187
Encoding: 349 10170 93
Width: 831
Flags: HMW
HStem: 98 21G<500 514.5> 306 72<64 128 62.5 130.5> 330 22<610 746> 564 20G<498 512.5>
VStem: 24 783<340 342 340 352.5>
LayerCount: 2
Fore
SplineSet
746 330 m 1
 474 330 178 306 83 306 c 0
 45 306 24 316 24 341 c 0
 24 364 43 378 82 378 c 0
 174 378 463 352 746 352 c 1
 705 378 590 449 520 489 c 0
 480 512 471 528 471 550 c 0
 471 575 493 584 503 584 c 0
 522 584 531 575 557 547 c 0
 623 476 727 385 807 342 c 1
 729 299 624 205 558 135 c 0
 532 107 524 98 505 98 c 0
 495 98 471 107 471 132 c 0
 471 154 479 170 519 193 c 0
 589 234 703 304 746 330 c 1
EndSplineSet
EndChar

StartChar: a188
Encoding: 350 10171 94
Width: 873
Flags: HMW
HStem: 60 21G<560.5 589.5> 327 24<649.5 790 642.5 791> 604 20G<544.5 576.5>
LayerCount: 2
Fore
SplineSet
791 327 m 1
 508 327 241 236 142 236 c 0
 85 236 29 300 29 339 c 0
 29 369 86 443 141 443 c 0
 237 443 495 351 790 351 c 1
 746 377 628 426 545 457 c 0
 502 474 477 516 477 556 c 0
 477 597 521 624 568 624 c 0
 585 624 613 611 625 594 c 0
 688 508 761 385 844 340 c 1
 762 296 703 185 641 100 c 0
 628 82 598 60 581 60 c 0
 540 60 486 73 486 114 c 0
 486 151 483 202 545 221 c 0
 631 247 746 301 791 327 c 1
EndSplineSet
EndChar

StartChar: a189
Encoding: 351 10172 95
Width: 927
Flags: HMW
HStem: 203 274<30 675 30 675>
VStem: 30 868<203 341 339 477>
LayerCount: 2
Fore
SplineSet
30 203 m 1
 162 339 l 1
 162 341 l 1
 30 477 l 1
 675 477 l 1
 898 341 l 1
 898 339 l 1
 675 203 l 1
 30 203 l 1
EndSplineSet
EndChar

StartChar: a19
Encoding: 352 10003 96
Width: 755
Flags: HMW
HStem: -13 21G<155 178> 685 20G<694 721>
VStem: 34 687<198 705>
LayerCount: 2
Fore
SplineSet
466 546 m 1
 543 645 l 2
 579 685 667 705 721 705 c 1
 699 684 l 2
 580 571 229 -1 220 -7 c 0
 213 -12 185 -13 171 -13 c 0
 139 -13 124 -13 117 -8 c 0
 107 -1 102 13 95 27 c 0
 73 73 34 173 34 223 c 0
 34 240 44 248 57 257 c 0
 78 272 108 289 134 289 c 0
 154 289 156 272 182 209 c 0
 185 201 194 173 205 173 c 0
 215 173 231 196 466 546 c 1
EndSplineSet
EndChar

StartChar: a190
Encoding: 353 10173 97
Width: 970
Flags: HMW
HStem: 73 534<30 675 30 675>
VStem: 30 868<73 341 339 607>
LayerCount: 2
Fore
SplineSet
30 73 m 1
 162 339 l 1
 162 341 l 1
 30 607 l 1
 675 607 l 1
 898 341 l 1
 898 339 l 1
 675 73 l 1
 30 73 l 1
EndSplineSet
EndChar

StartChar: a191
Encoding: 354 10174 98
Width: 918
Flags: HMW
HStem: 6 668<89 89>
VStem: 89 782<6 341 89 341 339 674 339 674>
LayerCount: 2
Fore
SplineSet
99 219 m 1
 99 461 l 1
 432 341 l 1
 432 339 l 1
 99 219 l 1
89 6 m 1
 89 89 l 1
 684 339 l 1
 684 341 l 1
 89 591 l 1
 89 674 l 1
 871 341 l 1
 871 339 l 1
 89 6 l 1
EndSplineSet
EndChar

StartChar: a192
Encoding: 355 10138 99
Width: 748
Flags: HMW
HStem: 27 21G<489 489> 506 20G<675 676 676 676>
VStem: 73 603<158 526>
LayerCount: 2
Fore
SplineSet
126 82 m 1
 73 158 l 1
 296 297 l 1
 143 515 l 1
 142 516 l 1
 675 526 l 1
 676 526 l 1
 489 27 l 1
 488 28 l 1
 333 246 l 1
 126 82 l 1
EndSplineSet
EndChar

StartChar: a193
Encoding: 356 10154 100
Width: 836
Flags: HMW
HStem: 44 182<384 503 147 518 384 384> 201 25<147 384> 466 25<147 384 35 503 147 147> 466 182<384 503>
VStem: 35 112<226 226 226 466> 384 119<65 201 201 201 491 627>
LayerCount: 2
Fore
SplineSet
147 226 m 1
 503 226 l 1
 503 65 l 1
 767 346 l 1
 503 627 l 1
 503 466 l 1
 147 466 l 1
 147 226 l 1
35 201 m 1
 35 491 l 1
 384 491 l 1
 384 648 l 1
 518 648 l 1
 802 346 l 1
 518 44 l 1
 384 44 l 1
 384 201 l 1
 35 201 l 1
EndSplineSet
EndChar

StartChar: a194
Encoding: 357 10166 101
Width: 771
Flags: HMW
HStem: 37 21G<210 210> 546 95 635 20G
VStem: 602 85
LayerCount: 2
Fore
SplineSet
210 37 m 1
 226 204 l 1
 486 422 l 1
 477 373 470 321 470 255 c 1
 210 37 l 1
34 247 m 1
 295 466 l 1
 462 452 l 1
 203 234 l 1
 34 247 l 1
490 425 m 1
 466 454 l 1
 578 546 l 1
 544 551 516 604 515 641 c 1
 586 620 666 635 736 655 c 1
 715 594 684 526 687 436 c 1
 647 447 606 477 602 517 c 1
 490 425 l 1
EndSplineSet
EndChar

StartChar: a195
Encoding: 358 10169 102
Width: 888
Flags: HMW
HStem: -19 21G<295 295> 330 165 692 20G
VStem: 690 97
LayerCount: 2
Fore
SplineSet
34 292 m 1
 293 509 l 1
 331 474 396 445 447 445 c 0
 503 445 555 485 596 520 c 2
 668 578 l 1
 590 587 533 648 502 708 c 1
 618 687 739 677 853 712 c 1
 803 615 787 516 787 368 c 1
 738 405 689 471 690 552 c 1
 620 495 l 2
 568 450 515 406 515 330 c 0
 515 284 529 237 554 198 c 1
 295 -19 l 1
 269 23 251 73 251 122 c 0
 251 161 259 196 278 231 c 1
 255 222 231 218 207 218 c 0
 141 218 81 247 34 292 c 1
EndSplineSet
EndChar

StartChar: a196
Encoding: 359 10136 103
Width: 748
Flags: HMW
HStem: 77 21G<672 672> 498 20G<120 120> 556 20G<480 480>
VStem: 67 605<77 443>
LayerCount: 2
Fore
SplineSet
140 83 m 1
 140 84 l 1
 292 304 l 1
 67 443 l 1
 120 518 l 1
 328 356 l 1
 480 574 l 1
 480 576 l 1
 672 79 l 1
 672 77 l 1
 140 83 l 1
EndSplineSet
EndChar

StartChar: a197
Encoding: 360 10164 104
Width: 771
Flags: HMW
HStem: 37 21G 61 81<573 619> 635 20G<210 210>
VStem: 597 90
LayerCount: 2
Fore
SplineSet
226 488 m 1
 210 655 l 1
 470 437 l 1
 470 437 490 267 486 270 c 2
 226 488 l 1
295 226 m 1
 34 445 l 1
 203 458 l 1
 462 240 l 1
 295 226 l 1
466 238 m 1
 490 267 l 1
 597 171 l 1
 601 211 647 245 687 256 c 1
 684 166 715 98 736 37 c 1
 693 50 643 61 595 61 c 0
 568 61 540 59 515 51 c 1
 516 88 539 137 573 142 c 1
 466 238 l 1
EndSplineSet
EndChar

StartChar: a198
Encoding: 361 10167 105
Width: 888
Flags: HMW
HStem: -19 21G 4 115<661 661 661 712> 692 20G<295 295>
VStem: 683 104
LayerCount: 2
Fore
SplineSet
293 184 m 1
 34 401 l 1
 81 446 141 475 207 475 c 0
 231 475 255 471 278 462 c 1
 259 497 251 532 251 571 c 0
 251 620 269 670 295 712 c 1
 554 495 l 1
 529 456 515 409 515 363 c 0
 515 287 568 243 620 198 c 2
 683 145 l 1
 682 226 743 298 787 325 c 1
 787 177 803 78 853 -19 c 1
 797 -2 741 4 683 4 c 0
 623 4 561 -4 502 -15 c 1
 531 43 583 110 661 119 c 1
 596 173 l 2
 555 208 503 248 447 248 c 0
 396 248 331 219 293 184 c 1
EndSplineSet
EndChar

StartChar: a199
Encoding: 362 10156 106
Width: 867
Flags: HMW
HStem: 4 21G<424 424> 485 20G<110 110> 682 20G<337 337>
VStem: 48 775<409 412>
LayerCount: 2
Fore
SplineSet
99 183 m 1
 48 409 l 1
 110 505 l 1
 311 464 l 1
 275 594 l 1
 337 702 l 1
 823 412 l 1
 776 315 l 1
 424 4 l 1
 371 222 l 1
 99 183 l 1
132 233 m 1
 401 272 l 1
 445 86 l 1
 442 87 720 329 720 329 c 1
 720 332 l 1
 720 329 327 554 327 554 c 1
 327 554 373 375 373 375 c 1
 92 409 l 1
 132 233 l 1
EndSplineSet
EndChar

StartChar: a2
Encoding: 363 9986 107
Width: 961
Flags: HMW
HStem: 99 40<826.5 855.5 826.5 871> 240 188<811 839.5 810.5 840> 337 20G<596.5 605.5> 530 40<820 848>
VStem: 770 118<467.5 491> 888 48<470.5 498.5>
LayerCount: 2
Fore
SplineSet
584 340 m 0
 584 331 592 323 601 323 c 0
 610 323 618 331 618 340 c 0
 618 349 610 357 601 357 c 0
 592 357 584 349 584 340 c 0
772 192 m 0
 772 159 812 139 841 139 c 0
 870 139 891 159 891 188 c 0
 891 221 855 240 825 240 c 0
 797 240 772 222 772 192 c 0
770 475 m 0
 770 446 797 428 824 428 c 0
 855 428 888 451 888 484 c 0
 888 513 861 530 835 530 c 0
 805 530 770 507 770 475 c 0
20 124 m 1
 18 135 l 1
 453 327 l 1
 567 282 l 1
 567 281 l 1
 20 124 l 1
10 526 m 1
 12 540 l 1
 640 383 l 1
 662 329 l 1
 716 305 l 2
 766 283 821 276 873 257 c 0
 907 245 938 218 938 179 c 0
 938 130 894 99 848 99 c 0
 790 99 752 138 730 189 c 0
 706 246 668 263 614 285 c 2
 10 526 l 1
677 345 m 1
 660 389 l 1
 704 413 715 429 732 475 c 0
 751 525 786 570 844 570 c 0
 890 570 936 539 936 490 c 0
 936 451 907 426 874 413 c 0
 824 393 770 385 721 364 c 2
 677 345 l 1
EndSplineSet
EndChar

StartChar: a20
Encoding: 364 10004 108
Width: 846
Flags: HMW
HStem: -14 21G<176.5 208> 685 20G<770 795>
VStem: 36 775<323 605>
LayerCount: 2
Fore
SplineSet
55 104 m 1
 41 225 l 2
 36 268 36 301 36 345 c 0
 36 397 36 390 69 429 c 0
 82 445 101 470 122 477 c 0
 156 489 218 495 218 444 c 0
 218 424 225 390 228 370 c 2
 237 316 l 2
 241 292 245 259 277 259 c 0
 285 259 293 267 519 488 c 1
 740 691 l 2
 753 701 761 705 779 705 c 0
 811 705 811 699 811 670 c 2
 811 605 l 2
 811 576 806 576 784 554 c 2
 341 97 l 2
 316 74 221 -14 195 -14 c 0
 158 -14 117 18 104 28 c 0
 81 47 51 70 55 104 c 1
EndSplineSet
EndChar

StartChar: a200
Encoding: 365 10158 109
Width: 696
Flags: HMW
HStem: 44 21G<291 291> 149 29<35 317 63 291> 470 89<121 291 121 317 63 291> 628 20G<368 368>
VStem: 35 28<178 178 178 470> 291 26<103 149 149 149 559 569>
LayerCount: 2
Fore
SplineSet
63 178 m 1
 317 178 l 1
 317 103 l 1
 575 325 l 1
 317 569 l 1
 317 470 l 1
 63 470 l 1
 63 178 l 1
35 149 m 1
 35 487 l 1
 121 559 l 1
 291 559 l 1
 291 585 l 1
 368 648 l 1
 661 369 l 1
 291 44 l 1
 291 149 l 1
 35 149 l 1
EndSplineSet
EndChar

StartChar: a201
Encoding: 366 10161 110
Width: 874
Flags: HMW
HStem: 73 21G<548 548> 164 26<77 548> 451 68<63 548 104 548 104 572> 595 20G<608 608>
VStem: 548 24<130 164 164 164>
LayerCount: 2
Fore
SplineSet
77 190 m 1
 572 190 l 1
 572 130 l 1
 758 321 l 1
 572 504 l 1
 572 451 l 1
 63 451 l 1
 131 321 l 1
 77 190 l 1
37 164 m 1
 104 321 l 1
 35 451 l 1
 104 519 l 1
 548 519 l 1
 548 562 l 1
 608 615 l 1
 840 367 l 1
 548 73 l 1
 548 164 l 1
 37 164 l 1
EndSplineSet
EndChar

StartChar: a202
Encoding: 367 9987 111
Width: 974
Flags: HMW
HStem: 97 40<759.5 786.5 759.5 802.5> 352 27<851.5 875.5 847 899.5> 475 35<847 867> 528 20G<210 640 210 367 476 476 476 640>
VStem: 670 38 670 129 819 42<170.5 182.5 146.5 198.5> 913 48<410.5 441.5>
LayerCount: 2
Fore
SplineSet
708 196 m 0
 708 165 745 137 774 137 c 0
 799 137 819 158 819 183 c 0
 819 214 784 240 755 240 c 0
 731 240 708 221 708 196 c 0
581 396 m 0
 581 388 587 380 596 380 c 0
 605 380 614 387 614 396 c 0
 614 404 605 411 597 411 c 0
 588 411 581 405 581 396 c 0
799 432 m 0
 799 399 832 379 862 379 c 0
 889 379 913 396 913 425 c 0
 913 458 882 475 852 475 c 0
 826 475 799 462 799 432 c 0
3 453 m 1
 6 464 l 1
 439 446 l 1
 543 359 l 1
 543 358 l 1
 3 453 l 1
210 528 m 1
 210 548 l 1
 640 548 l 1
 640 528 l 1
 476 528 l 1
 645 422 l 1
 649 367 l 1
 691 328 l 2
 730 292 779 270 821 238 c 0
 843 221 861 197 861 168 c 0
 861 125 823 97 782 97 c 0
 712 97 676 157 670 219 c 0
 664 278 636 304 593 340 c 2
 367 528 l 1
 210 528 l 1
674 378 m 1
 671 423 l 1
 719 425 736 433 771 466 c 0
 796 490 829 510 865 510 c 0
 911 510 961 472 961 423 c 0
 961 376 921 352 878 352 c 0
 825 352 768 371 713 375 c 2
 674 378 l 1
EndSplineSet
EndChar

StartChar: a203
Encoding: 368 10064 112
Width: 762
Flags: HMW
HStem: 0 30<35 597 64 597 64 625> 565 28<64 144 35 597 64 64> 565 127<144 597 64 727>
VStem: 35 29<30 30 30 565> 597 28<30 106 0 565> 597 130<106 565 565 565>
LayerCount: 2
Fore
SplineSet
64 30 m 1
 597 30 l 1
 597 565 l 1
 64 565 l 1
 64 30 l 1
35 0 m 1
 35 593 l 1
 144 593 l 1
 144 692 l 1
 727 692 l 1
 727 106 l 1
 625 106 l 1
 625 0 l 1
 35 0 l 1
EndSplineSet
EndChar

StartChar: a204
Encoding: 369 10066 113
Width: 759
Flags: HMW
HStem: 0 32<35 598 66 598 66 604> 569 123<163 598 66 725>
VStem: 35 31<32 32 32 569> 598 127<119 569 569 569>
LayerCount: 2
Fore
SplineSet
66 32 m 1
 598 32 l 1
 598 569 l 1
 66 569 l 1
 66 32 l 1
35 0 m 1
 35 577 l 1
 163 692 l 1
 725 692 l 1
 725 119 l 1
 604 0 l 1
 35 0 l 1
EndSplineSet
EndChar

StartChar: a205
Encoding: 370 10094 114
Width: 509
Flags: HMW
HStem: -52 21G<458 458> 710 20G<452 452>
VStem: 36 437
LayerCount: 2
Fore
SplineSet
36 341 m 1
 114 389 288 536 452 730 c 1
 463 717 l 1
 429 634 336 425 273 341 c 1
 341 247 429 78 473 -41 c 1
 458 -52 l 1
 298 147 127 286 36 341 c 1
EndSplineSet
EndChar

StartChar: a206
Encoding: 371 10096 115
Width: 410
Flags: HMW
HStem: 0 21G<135 135 135 375> 672 20G<135 375 375 375>
VStem: 135 0<0 0 692 692>
LayerCount: 2
Fore
SplineSet
135 0 m 1
 35 346 l 1
 135 692 l 1
 375 692 l 1
 275 346 l 1
 375 0 l 1
 135 0 l 1
EndSplineSet
EndChar

StartChar: a21
Encoding: 372 10005 116
Width: 762
Flags: HMW
HStem: 4 683<131 650.5>
VStem: 32 698<24 32>
LayerCount: 2
Fore
SplineSet
38 8 m 1
 32 24 l 1
 62 51 247 251 283 296 c 0
 288 303 288 314 283 321 c 0
 184 431 106 518 88 549 c 0
 67 587 67 595 74 614 c 0
 84 633 119 678 131 687 c 1
 142 687 l 1
 170 630 325 442 375 402 c 1
 454 484 530 585 570 646 c 0
 574 654 657 668 705 674 c 1
 712 660 l 1
 692 622 615 511 447 327 c 1
 522 235 696 58 730 32 c 1
 727 20 l 1
 719 14 655 4 646 4 c 0
 622 4 590 17 550 56 c 0
 526 80 447 155 380 229 c 0
 375 235 357 237 351 231 c 0
 253 125 180 56 156 44 c 0
 138 34 63 13 38 8 c 1
EndSplineSet
EndChar

StartChar: a22
Encoding: 373 10006 117
Width: 761
Flags: HMW
HStem: 5 21G<580 598> 658 14<720 729> 678 20G<186 200 200 200>
VStem: 29 703<24 34>
LayerCount: 2
Fore
SplineSet
35 9 m 1
 29 24 l 1
 59 51 217 239 253 285 c 0
 258 290 260 305 255 311 c 0
 164 414 108 482 90 514 c 0
 69 551 67 568 74 586 c 0
 82 604 162 687 186 698 c 1
 200 698 l 1
 229 642 322 514 391 445 c 1
 445 499 518 596 549 645 c 0
 553 652 680 669 720 672 c 1
 729 658 l 1
 713 617 556 432 471 345 c 1
 537 255 695 68 732 34 c 1
 730 19 l 1
 720 14 604 5 592 5 c 0
 568 5 538 18 495 57 c 0
 470 80 416 141 369 192 c 0
 360 201 343 203 338 196 c 0
 253 89 214 62 194 50 c 0
 158 27 63 12 35 9 c 1
EndSplineSet
EndChar

StartChar: a23
Encoding: 374 10007 118
Width: 571
Flags: HMW
HStem: -68 21G<31.5 45> 641 20G
VStem: 188 260
LayerCount: 2
Fore
SplineSet
288 258 m 1
 90 -56 l 1
 78 -65 52 -68 38 -68 c 0
 25 -68 23 -58 17 -48 c 0
 11 -39 2 -28 2 -17 c 0
 2 -11 3 -7 5 -1 c 0
 7 7 11 13 4 19 c 0
 2 21 -1 23 -1 26 c 0
 -1 39 16 63 47 116 c 0
 88 188 166 290 232 369 c 1
 156 561 l 2
 153 569 145 586 145 595 c 0
 145 602 154 611 172 625 c 1
 179 625 183 620 188 616 c 1
 197 618 213 628 224 636 c 1
 235 636 238 626 242 618 c 2
 318 468 l 1
 475 641 l 1
 481 641 517 646 523 641 c 1
 534 651 l 2
 536 654 542 661 545 661 c 0
 548 661 550 655 551 653 c 0
 555 643 571 632 571 625 c 0
 571 619 564 613 560 609 c 0
 549 599 461 495 373 368 c 1
 482 139 l 1
 479 132 475 128 468 125 c 1
 468 117 l 1
 464 113 448 107 448 101 c 0
 448 97 451 91 453 87 c 0
 451 75 432 62 420 62 c 0
 407 62 387 98 288 258 c 1
EndSplineSet
EndChar

StartChar: a24
Encoding: 375 10008 119
Width: 677
Flags: HMW
HStem: -13 21G<104 136 104 123> 685 20G<552 559>
VStem: 203 208<334 345>
LayerCount: 2
Fore
SplineSet
104 8 m 2
 104 12 107 18 107 22 c 0
 107 25 104 27 102 27 c 0
 93 27 86 22 78 19 c 1
 65 25 57 42 50 54 c 0
 48 57 40 66 40 70 c 0
 40 77 52 83 52 96 c 0
 52 106 36 122 36 135 c 1
 203 334 l 1
 158 418 114 504 87 596 c 1
 96 613 109 627 123 640 c 1
 128 639 142 621 145 621 c 0
 156 621 159 631 159 640 c 0
 158 653 172 664 185 664 c 0
 194 664 202 653 206 646 c 2
 324 469 l 1
 347 496 546 705 558 705 c 0
 560 705 610 698 603 687 c 0
 601 685 599 683 599 680 c 0
 599 675 603 643 615 646 c 0
 622 648 622 647 627 640 c 2
 642 605 l 1
 642 563 594 565 411 345 c 1
 559 162 l 1
 557 149 557 150 550 138 c 0
 547 132 535 107 526 107 c 2
 518 107 l 2
 516 107 505 93 507 87 c 0
 511 77 502 74 495 68 c 0
 492 65 484 56 479 56 c 0
 474 56 468 62 464 65 c 0
 462 66 454 74 451 74 c 0
 446 74 425 40 409 40 c 0
 407 40 404 42 401 42 c 0
 357 87 327 143 289 192 c 1
 143 -4 l 1
 136 -13 l 1
 123 -13 l 1
 104 8 l 2
EndSplineSet
EndChar

StartChar: a25
Encoding: 376 10009 120
Width: 763
Flags: HMW
HStem: -5 37<337 425 337 462 302 425> 262 36<86 302 462 462 462 677> 379 37<86 301 49 338 86 86 461 677> 643 37<338 425 338 338>
VStem: 49 37<298 298 298 379> 302 35<32 262 262 262> 425 37<32 262 -5 298 -5 298> 677 37<298 379 379 379>
LayerCount: 2
Fore
SplineSet
86 298 m 1
 337 298 l 1
 337 32 l 1
 425 32 l 1
 425 298 l 1
 677 298 l 1
 677 379 l 1
 425 379 l 1
 425 643 l 1
 338 643 l 1
 338 379 l 1
 86 379 l 1
 86 298 l 1
49 262 m 1
 49 416 l 1
 301 416 l 1
 301 680 l 1
 462 680 l 1
 461 416 l 1
 714 416 l 1
 714 262 l 1
 462 262 l 1
 462 -5 l 1
 302 -5 l 1
 302 262 l 1
 49 262 l 1
EndSplineSet
EndChar

StartChar: a26
Encoding: 377 10010 121
Width: 760
Flags: HMW
HStem: 0 21G<263 495 263 263> 232 230<35 263 35 263 495 726> 672 20G<263 495 495 495>
VStem: 263 232<0 232 0 232 462 692>
LayerCount: 2
Fore
SplineSet
35 232 m 1
 35 462 l 1
 263 462 l 1
 263 692 l 1
 495 692 l 1
 495 462 l 1
 726 462 l 1
 726 232 l 1
 495 232 l 1
 495 0 l 1
 263 0 l 1
 263 232 l 1
 35 232 l 1
EndSplineSet
EndChar

StartChar: a27
Encoding: 378 10011 122
Width: 759
Flags: HMW
HStem: 0 21G<311 448 311 311> 286 120 672 20G<311 448 448 448>
VStem: 321 117
LayerCount: 2
Fore
SplineSet
35 276 m 1
 35 416 l 1
 311 416 l 1
 311 276 l 1
 448 276 l 1
 448 416 l 1
 311 416 l 1
 311 692 l 1
 448 692 l 1
 448 416 l 1
 725 416 l 1
 725 276 l 1
 448 276 l 1
 448 0 l 1
 311 0 l 1
 311 276 l 1
 35 276 l 1
EndSplineSet
EndChar

StartChar: a28
Encoding: 379 10012 123
Width: 754
Flags: HMW
HStem: 0 21G<266 487 266 266> 235 217<35 266 35 266 266 486 487 720> 672 20G<266 487 487 487>
VStem: 266 220<0 452 235 452 235 452 235 452 235 692>
LayerCount: 2
Fore
SplineSet
35 235 m 1
 35 452 l 1
 266 452 l 1
 266 235 l 1
 486 235 l 1
 486 452 l 1
 266 452 l 1
 266 692 l 1
 487 692 l 1
 487 452 l 1
 720 452 l 1
 720 235 l 1
 487 235 l 1
 487 0 l 1
 266 0 l 1
 266 235 l 1
 35 235 l 1
EndSplineSet
EndChar

StartChar: a29
Encoding: 380 10018 124
Width: 786
Flags: HMW
HStem: -37 21G<391 395> 256 33<111.5 130 111.5 139> 256 34 326 30<356 356> 392 35<657.5 674.5> 697 20G<391 395>
VStem: 311 34 368 30 443 36<605 623.5> 445 34<58 67>
LayerCount: 2
Fore
SplineSet
394 143 m 1
 391 124 381 112 370 103 c 0
 357 91 343 83 343 65 c 0
 343 48 351 40 366 30 c 0
 374 25 383 17 388 13 c 2
 388 13 393 7 394 7 c 0
 395 7 398 11 400 13 c 0
 403 16 414 25 421 28 c 0
 437 39 445 49 445 67 c 0
 446 85 431 94 418 107 c 0
 409 116 401 127 398 145 c 1
 394 143 l 1
196 336 m 1
 197 340 l 1
 176 343 164 354 154 365 c 0
 143 377 135 390 118 390 c 0
 101 390 92 383 81 367 c 0
 77 360 70 350 66 345 c 2
 66 345 60 342 61 340 c 0
 60 338 66 335 66 335 c 2
 70 331 77 320 81 313 c 0
 92 297 102 289 121 289 c 0
 139 289 147 303 159 316 c 0
 168 325 178 333 196 336 c 1
591 340 m 1
 611 338 622 328 631 317 c 0
 642 304 650 290 668 290 c 0
 686 290 694 297 705 313 c 0
 710 319 716 331 720 335 c 0
 722 336 728 339 728 340 c 0
 726 342 722 346 721 347 c 0
 717 351 709 361 706 368 c 0
 695 384 683 392 666 392 c 0
 649 392 641 379 629 366 c 0
 620 356 609 347 590 344 c 1
 591 340 l 1
389 538 m 1
 394 537 l 1
 396 554 404 564 413 573 c 0
 427 587 443 595 443 615 c 0
 443 632 436 641 420 652 c 0
 414 657 403 664 400 668 c 0
 399 669 395 673 393 675 c 0
 392 675 388 667 388 667 c 2
 384 663 373 656 366 652 c 0
 350 641 341 630 341 613 c 0
 341 597 352 589 364 579 c 0
 375 570 387 559 389 538 c 1
378 303 m 1
 368 308 360 316 356 326 c 1
 301 321 263 304 229 289 c 0
 192 272 160 256 118 256 c 0
 88 256 68 267 50 293 c 0
 42 306 32 324 26 330 c 0
 24 332 16 336 16 340 c 0
 16 344 24 348 26 350 c 0
 32 356 42 374 50 387 c 0
 68 413 87 427 118 427 c 0
 158 427 189 410 228 392 c 0
 262 377 301 361 357 356 c 1
 361 365 368 372 378 376 c 1
 374 427 359 464 345 496 c 0
 326 537 307 570 307 615 c 0
 307 646 320 665 346 683 c 0
 359 691 377 701 383 707 c 0
 385 709 389 717 393 717 c 0
 397 717 401 709 403 707 c 0
 409 701 427 691 440 683 c 0
 466 665 479 646 479 615 c 0
 479 571 458 538 439 494 c 0
 425 463 412 426 408 376 c 1
 417 373 425 365 429 356 c 1
 474 360 508 371 537 384 c 0
 583 404 616 427 665 427 c 0
 696 427 718 413 736 387 c 0
 744 374 754 356 760 350 c 0
 762 348 770 344 770 340 c 0
 770 336 762 332 760 330 c 0
 754 324 744 306 736 293 c 0
 718 267 699 254 668 254 c 0
 626 254 594 274 552 293 c 0
 520 308 482 322 431 327 c 1
 426 316 418 308 408 303 c 1
 413 251 428 213 443 180 c 0
 461 141 479 109 479 65 c 0
 479 34 466 15 440 -3 c 0
 427 -11 409 -21 403 -27 c 0
 401 -29 397 -37 393 -37 c 0
 389 -37 385 -29 383 -27 c 0
 377 -21 359 -11 346 -3 c 0
 320 15 307 34 307 65 c 0
 307 104 324 135 341 173 c 0
 357 207 373 247 378 303 c 1
EndSplineSet
EndChar

StartChar: a3
Encoding: 381 9988 125
Width: 980
Flags: HMW
HStem: 99 40<832.5 861.5 832.5 876> 239 190<817 845.5 816 846> 336 20G<601.5 610.5> 532 39<825 853>
VStem: 775 118<469 492> 893 49<473.5 500.5>
LayerCount: 2
Fore
SplineSet
590 340 m 0
 590 349 597 356 606 356 c 0
 615 356 622 349 622 340 c 0
 622 331 615 324 606 324 c 0
 597 324 590 331 590 340 c 0
176 184 m 1
 177 183 l 1
 513 284 l 1
 463 306 l 1
 176 184 l 1
172 487 m 1
 171 486 l 1
 628 305 l 2
 646 298 664 290 681 280 c 1
 698 292 l 1
 644 315 l 1
 626 363 l 1
 172 487 l 1
778 191 m 0
 778 157 818 139 847 139 c 0
 876 139 896 158 896 187 c 0
 896 220 861 239 831 239 c 0
 803 239 778 221 778 191 c 0
775 476 m 0
 775 447 803 429 829 429 c 0
 862 429 893 452 893 486 c 0
 893 515 866 532 840 532 c 0
 810 532 775 508 775 476 c 0
25 122 m 1
 23 133 l 1
 462 326 l 1
 572 282 l 1
 573 281 l 1
 25 122 l 1
15 531 m 1
 18 544 l 1
 646 382 l 1
 667 328 l 1
 721 304 l 2
 771 282 826 274 878 256 c 0
 911 244 944 217 944 179 c 0
 944 130 899 99 853 99 c 0
 794 99 757 137 735 188 c 0
 710 245 674 262 620 284 c 2
 15 531 l 1
680 347 m 1
 663 391 l 1
 707 414 719 431 737 477 c 0
 756 527 792 571 850 571 c 0
 895 571 942 542 942 493 c 0
 942 454 912 428 879 414 c 0
 829 393 774 388 724 366 c 2
 680 347 l 1
EndSplineSet
EndChar

StartChar: a30
Encoding: 382 10019 126
Width: 788
Flags: HMW
HStem: 19 55<165 191 165 206.5 596 622> 169 55<165 188 149.5 191 599.5 622> 173 118<384 402 384 384> 388 110<384 402 384 404> 449 55<165 188.5> 449 56<600 622.5 595.5 638.5> 599 55<165 191 595.5 622.5>
VStem: 75 55<108 134 108 149.5> 77 53<539 565> 226 55<109 132 93.5 135> 230 114<327.5 345 345 345> 439 116<327 345> 506 56 507 55<542.5 565.5 538.5 580.5> 656 55<108 134>
LayerCount: 2
Fore
SplineSet
130 121 m 0
 130 95 152 74 178 74 c 0
 204 74 226 96 226 122 c 0
 226 148 204 169 178 169 c 0
 152 169 130 147 130 121 c 0
130 552 m 0
 130 526 152 504 178 504 c 0
 204 504 226 526 226 552 c 0
 226 578 204 599 178 599 c 0
 152 599 130 578 130 552 c 0
561 121 m 0
 561 95 583 74 609 74 c 0
 635 74 656 95 656 121 c 0
 656 147 635 169 609 169 c 0
 583 169 561 147 561 121 c 0
344 340 m 0
 344 315 365 291 391 291 c 0
 417 291 439 314 439 340 c 0
 439 366 417 388 391 388 c 0
 365 388 344 366 344 340 c 0
562 552 m 0
 562 525 582 505 609 505 c 0
 636 505 656 525 656 552 c 0
 656 579 636 599 609 599 c 0
 582 599 562 579 562 552 c 0
234 208 m 1
 311 286 l 1
 305 295 302 304 299 314 c 1
 230 327 l 1
 230 345 l 1
 297 357 l 1
 299 368 303 379 309 389 c 1
 234 465 l 1
 218 455 198 449 179 449 c 0
 122 449 77 495 77 552 c 0
 77 609 122 654 179 654 c 0
 236 654 282 608 282 551 c 0
 282 532 277 513 267 497 c 1
 341 422 l 1
 351 428 361 432 372 435 c 1
 384 498 l 1
 402 498 l 1
 414 436 l 1
 426 434 436 429 446 422 c 1
 523 497 l 1
 513 514 507 533 507 552 c 0
 507 609 554 654 610 654 c 0
 667 654 713 609 713 552 c 0
 713 495 667 449 610 449 c 0
 590 449 571 455 554 465 c 1
 479 389 l 1
 485 379 489 368 491 357 c 1
 555 345 l 1
 555 327 l 1
 489 315 l 1
 486 305 483 295 477 286 c 1
 555 208 l 1
 571 218 590 224 609 224 c 0
 665 224 711 178 711 122 c 0
 711 65 665 19 608 19 c 0
 551 19 506 65 506 121 c 0
 506 141 512 160 523 177 c 1
 445 255 l 1
 436 249 426 245 415 243 c 1
 402 173 l 1
 384 173 l 1
 371 243 l 1
 361 245 352 249 343 254 c 1
 265 177 l 1
 276 161 281 142 281 122 c 0
 281 65 235 19 178 19 c 0
 121 19 75 64 75 121 c 0
 75 178 121 224 178 224 c 0
 198 224 217 218 234 208 c 1
EndSplineSet
EndChar

StartChar: a31
Encoding: 383 10020 127
Width: 788
Flags: HMW
HStem: 19 21G<532 610.5> 20 132<234.5 257.5> 246 61<178.5 261.5> 276 129<383 407.5> 371 69 373 67<234.5 235> 535 124<532.5 550.5> 535 125<234.5 258.5 179.5 261.5>
VStem: 74 127<185.5 203.5> 75 126<477.5 500.5> 296 66<122 212.5> 296 67<473.5 555.5> 330 128<327 352.5 325.5 354> 426 64<122.5 212.5> 428 62<499 500.5> 585 129<185.5 201.5 122.5 212.5> 585 130<477 500.5>
LayerCount: 2
Fore
SplineSet
201 199 m 0
 201 172 221 152 248 152 c 0
 275 152 296 172 296 199 c 0
 296 226 275 246 248 246 c 0
 221 246 201 226 201 199 c 0
201 487 m 0
 201 460 221 440 248 440 c 0
 275 440 296 460 296 487 c 0
 296 514 275 535 248 535 c 0
 221 535 201 514 201 487 c 0
490 199 m 0
 490 172 510 152 537 152 c 0
 564 152 585 172 585 199 c 0
 585 226 564 246 537 246 c 0
 510 246 490 226 490 199 c 0
490 487 m 0
 490 460 510 440 537 440 c 0
 564 440 585 460 585 487 c 0
 585 514 564 535 537 535 c 0
 510 535 490 514 490 487 c 0
304 278 m 1
 324 298 330 313 330 341 c 0
 330 367 322 383 304 401 c 1
 280 383 250 373 220 373 c 0
 141 373 75 438 75 517 c 0
 75 596 140 660 219 660 c 0
 298 660 363 595 363 516 c 0
 363 485 352 455 334 430 c 1
 351 411 371 405 395 405 c 0
 421 405 438 411 456 430 c 1
 438 454 428 484 428 514 c 0
 428 593 493 659 572 659 c 0
 651 659 715 595 715 516 c 0
 715 438 651 371 572 371 c 0
 541 371 510 382 485 401 c 1
 467 383 458 365 458 340 c 0
 458 311 465 297 486 278 c 1
 510 296 540 306 570 306 c 0
 649 306 714 241 714 162 c 0
 714 83 650 19 571 19 c 0
 493 19 426 83 426 162 c 0
 426 193 437 224 456 249 c 1
 438 268 421 276 394 276 c 0
 370 276 348 269 333 249 c 1
 351 224 362 193 362 162 c 0
 362 82 297 20 218 20 c 0
 139 20 74 85 74 164 c 0
 74 243 139 307 218 307 c 0
 249 307 279 297 304 278 c 1
EndSplineSet
EndChar

StartChar: a32
Encoding: 384 10021 128
Width: 790
Flags: HMW
HStem: 0 120 90 107<321.5 333.5> 92 28 172 8 172 10 221 93 223 94<583 597 583 605.5> 280 119<96.5 122 96.5 122.5 669 693.5> 317 50<583 597> 327 25 327 131 366 33 368 90 482 28 482 107<457.5 468.5> 499 11 563 24 659 20G<379 411.5>
VStem: 144 32 147 105<406.5 413.5> 226 10 277 93 279 140 336 35 336 119<40 65> 369 50<529 543> 369 146 383 25 420 92 538 106<265.5 276 258.5 289> 552 13 616 30
LayerCount: 2
Fore
SplineSet
292 236 m 0
 287 241 296 258 312 275 c 0
 327 291 346 300 351 295 c 0
 356 289 347 272 331 256 c 0
 315 240 297 231 292 236 c 0
383 180 m 1
 383 215 386 281 361 306 c 0
 335 332 278 330 238 327 c 1
 247 315 252 295 252 279 c 0
 252 246 231 221 200 221 c 0
 166 221 143 236 143 270 c 0
 143 274 143 278 144 283 c 2
 145 292 l 1
 139 288 133 280 112 280 c 0
 81 280 56 306 56 339 c 0
 56 372 81 399 112 399 c 0
 132 399 140 387 148 383 c 1
 148 386 148 387 148 388 c 0
 146 396 147 403 147 410 c 0
 147 438 174 456 199 456 c 0
 229 456 252 430 252 397 c 0
 252 383 245 364 236 352 c 1
 274 351 344 357 361 374 c 0
 389 402 382 463 383 497 c 1
 371 488 351 482 335 482 c 0
 302 482 277 504 277 535 c 0
 277 565 291 592 321 592 c 0
 326 592 332 592 339 590 c 2
 347 588 l 1
 343 596 336 603 336 624 c 0
 336 654 363 679 395 679 c 0
 428 679 454 654 454 624 c 0
 454 605 443 594 439 587 c 1
 440 587 441 587 444 587 c 0
 450 588 455 589 460 589 c 0
 491 589 512 563 512 536 c 0
 512 505 485 482 452 482 c 0
 439 482 418 490 408 499 c 1
 409 461 403 400 429 374 c 0
 452 351 497 351 552 352 c 1
 543 364 538 384 538 400 c 0
 538 433 560 458 590 458 c 0
 623 458 647 444 647 411 c 0
 647 406 647 401 646 396 c 2
 645 387 l 1
 653 391 658 399 678 399 c 0
 709 399 734 373 734 340 c 0
 734 308 709 280 678 280 c 0
 660 280 650 292 642 296 c 1
 642 295 642 292 642 291 c 0
 643 285 644 279 644 273 c 0
 644 244 618 223 593 223 c 0
 562 223 538 249 538 282 c 0
 538 296 545 317 555 327 c 1
 511 331 454 331 429 306 c 0
 407 284 409 224 408 182 c 1
 418 191 441 197 455 197 c 0
 488 197 515 175 515 144 c 0
 515 115 501 87 473 87 c 0
 466 87 459 87 451 89 c 2
 443 91 l 1
 447 83 455 76 455 55 c 0
 455 25 428 0 395 0 c 0
 363 0 336 25 336 55 c 0
 336 75 347 86 351 92 c 1
 350 92 348 92 347 92 c 0
 342 91 336 90 331 90 c 0
 299 90 279 116 279 143 c 0
 279 174 305 197 338 197 c 0
 352 197 371 189 383 180 c 1
312 404 m 0
 296 420 287 437 292 442 c 0
 297 449 316 439 331 423 c 0
 347 406 356 389 351 384 c 0
 346 379 328 388 312 404 c 0
460 256 m 0
 444 272 436 289 441 295 c 0
 446 300 465 291 480 275 c 0
 496 258 504 241 499 236 c 0
 494 231 476 240 460 256 c 0
441 384 m 0
 436 389 444 406 460 423 c 0
 475 439 494 449 499 442 c 0
 504 437 496 420 480 404 c 0
 464 388 446 379 441 384 c 0
EndSplineSet
EndChar

StartChar: a33
Encoding: 385 10022 129
Width: 793
Flags: HMW
HStem: -5 21G<396 396> 312 56<353 367 425 439> 665 20G<396 396>
VStem: 370 52<294 308 372 386>
LayerCount: 2
Fore
SplineSet
281 229 m 0
 281 224 285 221 290 221 c 0
 315 221 370 282 370 306 c 0
 370 310 369 312 365 312 c 0
 341 312 281 254 281 229 c 0
422 306 m 0
 422 282 477 221 502 221 c 0
 507 221 511 224 511 229 c 0
 511 254 451 312 427 312 c 0
 423 312 422 310 422 306 c 0
365 368 m 0
 369 368 370 370 370 374 c 0
 370 398 315 459 290 459 c 0
 285 459 281 456 281 451 c 0
 281 426 341 368 365 368 c 0
422 374 m 0
 422 370 423 368 427 368 c 0
 451 368 511 426 511 451 c 0
 511 456 507 459 502 459 c 0
 477 459 422 398 422 374 c 0
256 195 m 1
 37 340 l 1
 256 485 l 1
 396 685 l 1
 536 485 l 1
 755 340 l 1
 536 195 l 1
 396 -5 l 1
 256 195 l 1
EndSplineSet
EndChar

StartChar: a34
Encoding: 386 10023 130
Width: 794
Flags: HMW
HStem: -19 704<397 397>
VStem: 38 718<340 340>
LayerCount: 2
Fore
SplineSet
272 206 m 1
 332 227 l 1
 379 69 l 1
 397 78 l 1
 417 70 l 1
 477 233 l 1
 537 211 l 1
 518 273 l 1
 677 327 l 1
 667 344 l 1
 674 363 l 1
 513 417 l 1
 531 474 l 1
 470 459 l 1
 418 618 l 1
 397 604 l 1
 375 617 l 1
 326 454 l 1
 269 473 l 1
 287 414 l 1
 128 354 l 1
 136 336 l 1
 129 318 l 1
 291 269 l 1
 272 206 l 1
261 196 m 1
 38 340 l 1
 259 482 l 1
 397 685 l 1
 538 482 l 1
 756 340 l 1
 544 204 l 1
 397 -19 l 1
 261 196 l 1
EndSplineSet
EndChar

StartChar: a35
Encoding: 387 9733 131
Width: 816
Flags: HMW
HStem: -14 21G<177 177 640 640> 685 20G<408 408>
VStem: 322 228<263 436>
LayerCount: 2
Fore
SplineSet
177 -14 m 1
 269 263 l 1
 35 436 l 1
 322 436 l 1
 408 705 l 1
 493 436 l 1
 782 436 l 1
 550 263 l 1
 640 -14 l 1
 408 155 l 1
 177 -14 l 1
EndSplineSet
EndChar

StartChar: a36
Encoding: 388 10025 132
Width: 823
Flags: HMW
HStem: -14 21G<178 178 644 644> 426 27 685 20G<411 411>
VStem: 35 752<444 444>
LayerCount: 2
Fore
SplineSet
199 15 m 1
 411 191 l 1
 622 15 l 1
 525 265 l 1
 753 432 l 1
 484 421 l 1
 411 673 l 1
 338 421 l 1
 69 432 l 1
 290 265 l 1
 199 15 l 1
178 -14 m 1
 239 257 l 1
 35 444 l 1
 311 463 l 1
 411 705 l 1
 511 463 l 1
 787 444 l 1
 574 257 l 1
 644 -14 l 1
 411 139 l 1
 178 -14 l 1
EndSplineSet
EndChar

StartChar: a37
Encoding: 389 10026 133
Width: 789
Flags: HMW
HStem: -14 21G<296.5 494.5> 675 30<396 396> 685 20G<295.5 495>
VStem: 35 46<244.5 451> 714 40<247 451>
LayerCount: 2
Fore
SplineSet
193 73 m 1
 396 218 l 1
 590 73 l 1
 517 307 l 1
 714 451 l 1
 472 451 l 1
 396 675 l 1
 321 451 l 1
 81 451 l 1
 272 307 l 1
 193 73 l 1
35 344 m 0
 35 544 195 705 396 705 c 0
 594 705 754 544 754 346 c 0
 754 148 594 -14 395 -14 c 0
 198 -14 35 145 35 344 c 0
EndSplineSet
EndChar

StartChar: a38
Encoding: 390 10027 134
Width: 841
Flags: HMW
HStem: -14 21G<181 181 655 655> 177 34<415 415> 211 187<387.5 438 387 439.5> 685 20G<410 410>
VStem: 285 33<270 336> 318 188<285 335.5 285 336> 506 36<270 335.5>
LayerCount: 2
Fore
SplineSet
318 310 m 0
 318 257 362 211 413 211 c 0
 466 211 506 260 506 310 c 0
 506 361 463 398 413 398 c 0
 361 398 318 362 318 310 c 0
181 -14 m 1
 285 270 l 1
 35 416 l 1
 330 414 l 1
 410 705 l 1
 495 414 l 1
 807 416 l 1
 542 270 l 1
 655 -14 l 1
 415 177 l 1
 181 -14 l 1
EndSplineSet
EndChar

StartChar: a39
Encoding: 391 10028 135
Width: 823
Flags: HMW
HStem: 18 21G<177 177 645 645> 249 182<386 436> 426 37 718 20G<411 411>
VStem: 320 182<315 365>
LayerCount: 2
Fore
SplineSet
320 340 m 0
 320 390 361 431 411 431 c 0
 461 431 502 390 502 340 c 0
 502 290 461 249 411 249 c 0
 361 249 320 290 320 340 c 0
232 94 m 1
 411 243 l 1
 590 94 l 1
 504 310 l 1
 700 434 l 1
 468 419 l 1
 411 644 l 1
 354 419 l 1
 122 434 l 1
 318 310 l 1
 232 94 l 1
177 18 m 1
 267 293 l 1
 33 463 l 1
 322 463 l 1
 411 738 l 1
 500 463 l 1
 789 463 l 1
 555 293 l 1
 645 18 l 1
 411 188 l 1
 177 18 l 1
EndSplineSet
EndChar

StartChar: a4
Encoding: 392 9742 136
Width: 719
Flags: HMW
HStem: 59 29<440.5 444.5> 288 60<109 139> 367 86<104 154> 487 20G<508 508> 493 36 632 20G<407.5 420.5>
VStem: 538 23 628 26<261 297.5>
LayerCount: 2
Fore
SplineSet
417 188 m 0
 425 178 430 169 431 159 c 0
 432 141 435 122 435 114 c 0
 435 98 438 88 443 88 c 0
 448 88 448 106 451 125 c 0
 452 134 451 161 453 167 c 0
 455 173 457 175 464 180 c 0
 471 185 601 273 610 278 c 0
 619 283 628 290 628 295 c 0
 628 300 622 303 618 303 c 0
 614 303 605 296 598 291 c 0
 591 286 477 209 470 204 c 0
 463 199 453 193 449 193 c 0
 445 193 437 197 430 204 c 0
 423 211 332 318 322 329 c 0
 314 338 297 353 292 349 c 0
 288 346 287 337 302 320 c 0
 317 303 409 198 417 188 c 0
458 235 m 1
 490 255 l 1
 468 280 l 1
 438 258 l 1
 458 235 l 1
430 269 m 1
 459 290 l 1
 441 309 l 1
 412 290 l 1
 430 269 l 1
399 304 m 1
 429 325 l 1
 407 348 l 1
 378 327 l 1
 399 304 l 1
363 342 m 1
 396 362 l 1
 376 385 l 1
 344 365 l 1
 363 342 l 1
287 393 m 0
 269 381 264 378 264 370 c 0
 264 364 267 364 273 364 c 0
 284 364 297 377 308 384 c 0
 318 390 423 452 452 469 c 0
 465 477 472 480 472 485 c 0
 472 490 471 493 464 493 c 0
 457 493 448 489 439 484 c 0
 430 479 299 401 287 393 c 0
506 266 m 1
 540 291 l 1
 519 315 l 1
 485 290 l 1
 506 266 l 1
476 299 m 1
 511 325 l 1
 493 344 l 1
 457 319 l 1
 476 299 l 1
445 335 m 1
 481 358 l 1
 460 380 l 1
 425 356 l 1
 445 335 l 1
414 370 m 1
 450 393 l 1
 428 417 l 1
 392 393 l 1
 414 370 l 1
556 300 m 1
 586 324 l 1
 566 344 l 1
 536 323 l 1
 556 300 l 1
525 335 m 1
 556 356 l 1
 538 376 l 1
 507 354 l 1
 525 335 l 1
496 368 m 1
 528 389 l 1
 511 410 l 1
 478 389 l 1
 496 368 l 1
466 402 m 1
 500 423 l 1
 480 446 l 1
 445 425 l 1
 466 402 l 1
34 399 m 1
 47 384 78 348 124 348 c 0
 170 348 206 380 216 391 c 1
 213 368 209 338 202 316 c 1
 183 297 154 288 124 288 c 0
 94 288 54 308 42 328 c 1
 37 350 35 382 34 399 c 1
163 270 m 1
 163 274 l 1
 182 278 206 292 217 305 c 0
 224 313 228 331 235 386 c 0
 238 409 245 434 265 450 c 0
 290 469 332 489 351 499 c 0
 381 515 418 528 438 529 c 0
 452 530 461 526 469 522 c 0
 486 513 498 492 506 482 c 0
 517 469 615 352 632 328 c 0
 649 304 654 288 654 270 c 0
 654 252 653 243 653 230 c 0
 653 217 649 199 638 190 c 0
 627 181 475 76 464 69 c 0
 453 62 448 59 441 59 c 0
 434 59 419 65 407 75 c 0
 395 85 163 270 163 270 c 1
40 419 m 1
 51 466 61 480 74 492 c 1
 82 482 100 470 108 467 c 0
 121 462 139 453 149 453 c 0
 159 453 175 471 183 476 c 0
 191 481 259 528 332 561 c 0
 405 594 506 631 515 631 c 0
 528 631 556 581 557 557 c 0
 558 547 521 530 498 524 c 1
 481 543 459 549 442 548 c 0
 404 547 364 527 341 515 c 0
 309 499 270 477 251 464 c 0
 232 450 222 427 216 414 c 0
 208 403 158 367 122 367 c 0
 86 367 50 397 40 419 c 1
162 482 m 0
 152 473 145 471 131 477 c 0
 117 483 92 491 92 502 c 0
 92 514 179 558 259 593 c 0
 339 628 401 652 414 652 c 0
 427 652 484 647 484 638 c 0
 484 633 475 631 458 625 c 0
 431 616 371 593 323 571 c 0
 243 535 174 493 162 482 c 0
538 470 m 1
 528 481 508 507 508 507 c 1
 521 510 545 519 561 535 c 1
 562 518 562 496 558 481 c 0
 555 477 543 472 538 470 c 1
EndSplineSet
EndChar

StartChar: a40
Encoding: 393 10029 137
Width: 833
Flags: HMW
HStem: 18 21G<182 182 650 650> 384 42 426 37 718 20G<416 416>
LayerCount: 2
Fore
SplineSet
325 214 m 1
 369 325 l 1
 268 388 l 1
 387 380 l 1
 416 495 l 1
 445 380 l 1
 564 388 l 1
 463 325 l 1
 507 214 l 1
 416 290 l 1
 325 214 l 1
237 94 m 1
 416 243 l 1
 595 94 l 1
 509 310 l 1
 705 434 l 1
 473 419 l 1
 416 644 l 1
 359 419 l 1
 127 434 l 1
 323 310 l 1
 237 94 l 1
182 18 m 1
 272 293 l 1
 38 463 l 1
 327 463 l 1
 416 738 l 1
 505 463 l 1
 794 463 l 1
 560 293 l 1
 650 18 l 1
 416 188 l 1
 182 18 l 1
EndSplineSet
EndChar

StartChar: a41
Encoding: 394 10030 138
Width: 816
Flags: HMW
HStem: 18 21G<174 174 642 642> 243 30<408 408> 406 26 426 37 718 20G<408 408>
LayerCount: 2
Fore
SplineSet
284 170 m 1
 344 319 l 1
 208 405 l 1
 368 395 l 1
 408 551 l 1
 448 395 l 1
 608 405 l 1
 472 319 l 1
 532 170 l 1
 408 273 l 1
 284 170 l 1
229 94 m 1
 408 243 l 1
 587 94 l 1
 501 310 l 1
 697 434 l 1
 465 419 l 1
 408 644 l 1
 351 419 l 1
 119 434 l 1
 315 310 l 1
 229 94 l 1
174 18 m 1
 264 293 l 1
 30 463 l 1
 319 463 l 1
 408 738 l 1
 497 463 l 1
 786 463 l 1
 552 293 l 1
 642 18 l 1
 408 188 l 1
 174 18 l 1
EndSplineSet
EndChar

StartChar: a42
Encoding: 395 10031 139
Width: 831
Flags: HMW
HStem: -14 21G 413 21<35 337 515 752> 685 20G<420 420>
VStem: 420 78<413 413 413 662>
LayerCount: 2
Fore
SplineSet
195 17 m 1
 420 184 l 1
 420 314 l 1
 195 17 l 1
171 -14 m 1
 268 268 l 1
 35 434 l 1
 323 434 l 1
 420 705 l 1
 515 434 l 1
 796 434 l 1
 575 268 l 1
 677 -14 l 1
 420 162 l 1
 171 -14 l 1
420 315 m 1
 752 413 l 1
 498 413 l 1
 420 315 l 1
420 315 m 1
 78 418 l 1
 291 274 l 1
 420 315 l 1
420 315 m 1
 656 7 l 1
 553 274 l 1
 420 315 l 1
420 315 m 1
 420 662 l 1
 337 413 l 1
 420 315 l 1
EndSplineSet
EndChar

StartChar: a43
Encoding: 396 10032 140
Width: 923
Flags: HMW
HStem: -14 21G 421 21<96 319 35 336 96 96 604 747> 685 20G<408 408>
VStem: 319 345<263 442>
LayerCount: 2
Fore
SplineSet
207 37 m 1
 417 190 l 1
 623 26 l 1
 544 279 l 1
 747 421 l 1
 499 421 l 1
 417 668 l 1
 336 421 l 1
 96 421 l 1
 287 279 l 1
 207 37 l 1
175 7 m 1
 261 269 l 1
 35 442 l 1
 319 442 l 1
 408 705 l 1
 520 687 l 1
 604 442 l 1
 827 442 l 1
 888 421 l 1
 664 263 l 1
 759 -14 l 1
 636 -9 l 1
 475 117 l 1
 296 -14 l 1
 175 7 l 1
EndSplineSet
EndChar

StartChar: a44
Encoding: 397 10033 141
Width: 744
Flags: HMW
HStem: -3 21G<462 462> 672 20G<440 440>
VStem: 52 640<353 557>
LayerCount: 2
Fore
SplineSet
71 111 m 1
 54 135 l 1
 216 336 l 1
 52 557 l 1
 67 578 l 1
 302 450 l 1
 440 692 l 1
 467 683 l 1
 444 417 l 1
 692 377 l 1
 692 353 l 1
 448 278 l 1
 483 10 l 1
 462 -3 l 1
 309 228 l 1
 71 111 l 1
EndSplineSet
EndChar

StartChar: a45
Encoding: 398 10034 142
Width: 723
Flags: HMW
HStem: -6 21G<465 465> 255 171<313 360.5> 669 20G<434 434>
VStem: 241 11<333 333> 252 168<317.5 364>
LayerCount: 2
Fore
SplineSet
252 341 m 0
 252 294 289 255 337 255 c 0
 384 255 420 294 420 341 c 0
 420 387 384 426 337 426 c 0
 289 426 252 387 252 341 c 0
57 111 m 1
 43 133 l 1
 241 333 l 1
 36 554 l 1
 53 575 l 1
 304 421 l 1
 434 689 l 1
 462 676 l 1
 417 397 l 1
 687 378 l 1
 687 350 l 1
 424 288 l 1
 484 8 l 1
 465 -6 l 1
 310 251 l 1
 57 111 l 1
EndSplineSet
EndChar

StartChar: a46
Encoding: 399 10035 143
Width: 749
Flags: HMW
HStem: 0 21G<340 340> 648 20G<411 411>
VStem: 40 669<297 371>
LayerCount: 2
Fore
SplineSet
112 124 m 1
 98 161 85 184 60 212 c 1
 333 328 l 1
 40 371 l 1
 55 404 66 431 66 470 c 1
 342 359 l 1
 165 597 l 1
 164 597 l 1
 197 610 232 631 252 649 c 1
 368 376 l 1
 411 668 l 1
 439 655 480 644 511 643 c 1
 399 367 l 1
 637 544 l 1
 646 517 667 480 690 456 c 1
 416 339 l 1
 709 297 l 1
 695 268 681 229 684 198 c 1
 407 309 l 1
 587 71 l 1
 549 61 526 45 498 19 c 1
 381 292 l 1
 340 0 l 1
 302 18 277 24 238 25 c 1
 351 301 l 1
 112 124 l 1
EndSplineSet
EndChar

StartChar: a47
Encoding: 400 10036 144
Width: 790
Flags: HMW
HStem: -1 21G<314 314> 486 20G<703 703> 501 20G<692 692> 659 20G<476 476>
VStem: 55 680<256 422>
LayerCount: 2
Fore
SplineSet
96 157 m 1
 87 172 l 1
 310 328 l 1
 55 422 l 1
 58 438 l 1
 328 391 l 1
 212 638 l 1
 227 647 l 1
 382 424 l 1
 476 679 l 1
 494 676 l 1
 447 407 l 1
 692 521 l 1
 703 506 l 1
 480 350 l 1
 735 256 l 1
 732 240 l 1
 462 287 l 1
 577 40 l 1
 563 31 l 1
 406 254 l 1
 314 -1 l 1
 296 2 l 1
 343 271 l 1
 96 157 l 1
EndSplineSet
EndChar

StartChar: a48
Encoding: 401 10037 145
Width: 792
Flags: HMW
HStem: -19 28 86 68<583.5 623.5 583.5 627> 190 45<536.5 555.5 524.5 567> 190 118 190 142<480.5 567> 249 59 300 7 310 51 348 142<225 311.5 225 352> 371 59 372 118<235 235> 444 45 445 45<236.5 255.5 225 267.5> 480 20G<425 425> 525 68 526 68<168.5 208.5> 670 28 679 20G<333 381.5>
VStem: 37 28 142 68<112.5 152.5 112.5 157> 246 45<180.5 199.5> 246 118<179 179 179 199.5> 246 142<169 255.5> 305 59 356 7 373 51 404 142<424.5 511> 427 59 428 118<501 501> 500 45 501 45<480.5 499.5> 581 68 582 68<527.5 567.5> 726 28
LayerCount: 2
Fore
SplineSet
375 301 m 1
 372 328 l 1
 352 348 l 1
 377 360 l 1
 390 384 l 1
 409 364 l 1
 436 360 l 1
 423 335 l 1
 427 308 l 1
 400 313 l 1
 375 301 l 1
305 136 m 1
 304 186 349 259 392 283 c 1
 394 282 l 1
 390 272 388 261 388 250 c 0
 388 200 426 145 476 132 c 1
 447 159 429 222 429 260 c 0
 429 272 431 285 434 297 c 1
 436 298 l 1
 454 257 503 235 546 235 c 0
 565 235 584 239 600 249 c 1
 550 248 477 293 453 336 c 1
 454 338 l 1
 464 334 475 332 486 332 c 0
 536 332 591 370 604 420 c 1
 577 391 514 373 476 373 c 0
 464 373 451 375 439 378 c 1
 438 380 l 1
 479 398 501 447 501 490 c 0
 501 509 497 528 487 544 c 1
 488 494 443 421 400 397 c 1
 398 398 l 1
 402 408 404 419 404 430 c 0
 404 480 366 535 316 548 c 1
 345 521 363 458 363 420 c 0
 363 408 361 395 358 383 c 1
 356 382 l 1
 338 423 289 445 246 445 c 0
 227 445 208 441 192 431 c 1
 242 432 315 387 339 344 c 1
 338 342 l 1
 328 346 317 348 306 348 c 0
 256 348 201 310 188 260 c 1
 215 289 278 307 316 307 c 0
 328 307 341 305 353 302 c 1
 354 300 l 1
 313 282 291 233 291 190 c 0
 291 171 295 152 305 136 c 1
246 22 m 1
 181 25 142 78 142 140 c 0
 142 174 153 208 172 236 c 1
 164 249 158 265 158 281 c 0
 158 324 197 360 236 369 c 1
 235 372 l 1
 167 371 111 333 81 273 c 0
 73 257 66 239 65 221 c 1
 47 240 37 264 37 290 c 0
 37 361 98 413 164 425 c 1
 173 466 204 490 246 490 c 0
 265 490 286 484 303 474 c 1
 305 476 l 1
 273 508 231 526 186 526 c 0
 151 526 105 514 78 490 c 1
 81 555 134 594 196 594 c 0
 230 594 264 583 292 564 c 1
 305 572 321 578 337 578 c 0
 380 578 416 539 425 500 c 1
 428 501 l 1
 427 569 389 625 329 655 c 0
 313 663 295 670 277 671 c 1
 296 689 320 699 346 699 c 0
 417 699 469 638 481 572 c 1
 522 563 546 532 546 490 c 0
 546 471 540 450 530 433 c 1
 532 431 l 1
 564 463 582 505 582 550 c 0
 582 585 570 631 546 658 c 1
 611 655 650 602 650 540 c 0
 650 506 639 472 620 444 c 1
 628 431 634 415 634 399 c 0
 634 356 595 320 556 311 c 1
 557 308 l 1
 625 309 681 347 711 407 c 0
 719 423 726 441 727 459 c 1
 745 440 755 416 755 390 c 0
 755 319 694 267 628 255 c 1
 619 214 588 190 546 190 c 0
 527 190 506 196 489 206 c 1
 487 204 l 1
 519 172 561 154 606 154 c 0
 641 154 687 166 714 190 c 1
 711 125 658 86 596 86 c 0
 562 86 528 97 500 116 c 1
 487 108 471 102 455 102 c 0
 412 102 376 141 367 180 c 1
 364 179 l 1
 365 111 403 55 463 25 c 0
 479 17 497 10 515 9 c 1
 496 -9 472 -19 446 -19 c 0
 375 -19 323 42 311 108 c 1
 270 117 246 148 246 190 c 0
 246 209 252 230 262 247 c 1
 260 249 l 1
 228 217 210 175 210 130 c 0
 210 95 222 49 246 22 c 1
EndSplineSet
EndChar

StartChar: a49
Encoding: 402 10038 146
Width: 695
Flags: HMW
HStem: -14 21G<347 347> 686 20G<349 349>
VStem: 39 617<169 170>
LayerCount: 2
Fore
SplineSet
39 170 m 1
 237 345 l 1
 35 521 l 1
 288 442 l 1
 349 706 l 1
 407 442 l 1
 661 521 l 1
 458 345 l 1
 656 169 l 1
 407 246 l 1
 347 -14 l 1
 288 246 l 1
 39 170 l 1
EndSplineSet
EndChar

StartChar: a5
Encoding: 403 9990 147
Width: 789
Flags: HMW
HStem: -63 23<240.5 263> 174 29<635.5 671.5> 685 20G
LayerCount: 2
Fore
SplineSet
218 106 m 0
 221 104 224 102 228 102 c 0
 232 102 235 104 237 107 c 0
 247 120 312 204 312 214 c 0
 312 222 275 246 275 259 c 0
 275 269 289 298 293 307 c 0
 322 370 406 500 461 537 c 0
 474 546 487 552 503 552 c 0
 521 552 539 534 546 534 c 0
 550 534 554 538 556 541 c 0
 565 553 627 634 627 642 c 0
 627 647 623 650 620 653 c 0
 600 668 566 679 541 679 c 0
 529 679 517 677 507 670 c 0
 442 625 364 520 317 455 c 0
 286 412 170 241 170 193 c 0
 170 162 193 124 218 106 c 0
189 66 m 1
 166 95 148 131 148 169 c 0
 148 181 150 194 153 205 c 0
 178 287 252 395 302 464 c 0
 349 529 438 642 503 685 c 0
 515 693 529 696 544 696 c 0
 575 696 630 680 654 659 c 0
 661 653 661 635 661 627 c 0
 661 621 661 609 657 604 c 2
 565 477 l 2
 562 473 558 469 553 469 c 0
 543 469 517 495 484 495 c 0
 446 495 402 434 383 408 c 0
 363 380 306 295 306 261 c 0
 306 246 326 230 336 221 c 0
 343 215 345 195 345 186 c 0
 345 179 344 166 340 160 c 2
 247 33 l 2
 244 29 241 27 236 27 c 0
 226 27 212 41 205 48 c 1
 200 37 196 25 196 13 c 0
 196 -18 226 -40 255 -40 c 0
 330 -40 440 59 491 108 c 0
 535 150 604 203 667 203 c 0
 696 203 721 191 738 167 c 1
 720 164 l 1
 716 147 l 1
 702 165 683 174 660 174 c 0
 597 174 517 103 474 62 c 0
 432 22 385 -16 332 -41 c 0
 306 -53 277 -63 249 -63 c 0
 200 -63 175 -33 175 15 c 0
 175 33 179 51 189 66 c 1
EndSplineSet
EndChar

StartChar: a50
Encoding: 404 10039 148
Width: 776
Flags: HMW
HStem: -6 21G<239.5 243 528 531> 679 20G<239 246 527 533>
VStem: 35 706<197 209 494 498.5 197 499.5>
LayerCount: 2
Fore
SplineSet
281 242 m 1
 56 204 l 2
 52 203 35 200 35 207 c 0
 35 211 46 218 50 221 c 2
 237 347 l 1
 49 481 l 2
 47 483 35 489 35 495 c 0
 35 504 52 499 57 498 c 2
 281 457 l 1
 240 678 l 2
 240 682 234 699 244 699 c 0
 248 699 255 687 256 685 c 2
 386 501 l 1
 512 682 l 2
 513 683 522 699 532 699 c 0
 534 699 534 695 530 675 c 2
 489 457 l 1
 716 498 l 2
 726 501 741 501 741 496 c 0
 741 492 734 484 725 478 c 2
 536 347 l 1
 727 212 l 2
 729 211 741 203 741 198 c 0
 741 196 738 195 720 198 c 2
 489 242 l 1
 534 4 l 2
 536 -4 533 -6 529 -6 c 0
 527 -6 526 -5 521 1 c 2
 386 192 l 1
 256 8 l 2
 253 4 246 -6 240 -6 c 0
 239 -6 238 -4 240 9 c 2
 281 242 l 1
EndSplineSet
EndChar

StartChar: a51
Encoding: 405 10040 149
Width: 768
Flags: HMW
HStem: -7 21G<224 224 540 540> 679 20G<224 224 540 540>
VStem: 35 699<196 196 196 510>
LayerCount: 2
Fore
SplineSet
35 196 m 1
 203 353 l 1
 35 510 l 1
 251 481 l 1
 224 699 l 1
 382 530 l 1
 540 699 l 1
 515 481 l 1
 730 510 l 1
 565 353 l 1
 734 196 l 1
 515 225 l 1
 540 -7 l 1
 382 162 l 1
 224 -7 l 1
 251 225 l 1
 35 196 l 1
EndSplineSet
EndChar

StartChar: a52
Encoding: 406 10041 150
Width: 792
Flags: HMW
HStem: -14 21G<408 408> 685 20G<399 399>
VStem: 84 627<161 167 167 522>
LayerCount: 2
Fore
SplineSet
84 161 m 1
 211 289 l 1
 35 336 l 1
 217 389 l 1
 84 522 l 1
 266 475 l 1
 221 656 l 1
 350 530 l 1
 399 705 l 1
 447 526 l 1
 573 654 l 1
 527 475 l 1
 715 516 l 1
 584 392 l 1
 757 345 l 1
 583 299 l 1
 711 167 l 1
 530 207 l 1
 578 36 l 1
 450 159 l 1
 408 -14 l 1
 348 166 l 1
 216 36 l 1
 264 209 l 1
 84 161 l 1
EndSplineSet
EndChar

StartChar: a53
Encoding: 407 10042 151
Width: 759
Flags: HMW
HStem: -4 21G<349 411 349 349> -1 21G 271 14<365 367 365 395 393 394 393 393> 285 110<365 395> 318 44 395 14<366 367 393 395> 480 20G<686 686> 481 20G<74 74> 664 20G<349 411 411 411>
VStem: 311 14<326 327 327 327 353 355 325 355> 325 110<325 355> 358 44 435 14<325 327 353 354>
LayerCount: 2
Fore
SplineSet
325 340 m 0
 325 310 350 285 380 285 c 0
 410 285 435 310 435 340 c 0
 435 370 410 395 380 395 c 0
 350 395 325 370 325 340 c 0
115 119 m 1
 322 300 l 1
 321 302 l 1
 74 180 l 1
 71 197 61 223 50 237 c 1
 311 326 l 1
 311 327 l 1
 36 309 l 1
 40 326 40 354 36 371 c 1
 311 353 l 1
 311 355 l 1
 50 443 l 1
 61 457 71 484 74 501 c 1
 321 379 l 1
 322 380 l 1
 115 561 l 1
 129 570 150 591 159 605 c 1
 340 398 l 1
 342 399 l 1
 220 646 l 1
 238 646 264 656 277 670 c 1
 366 409 l 1
 367 409 l 1
 349 684 l 1
 366 680 394 680 411 684 c 1
 393 409 l 1
 395 409 l 1
 483 670 l 1
 497 659 524 649 541 646 c 1
 419 399 l 1
 420 398 l 1
 601 605 l 1
 610 591 631 570 645 561 c 1
 438 380 l 1
 439 378 l 1
 686 500 l 1
 689 483 699 457 710 443 c 1
 449 354 l 1
 449 353 l 1
 724 371 l 1
 720 354 720 326 724 309 c 1
 449 327 l 1
 449 325 l 1
 710 237 l 1
 699 223 689 196 686 179 c 1
 439 301 l 1
 438 300 l 1
 645 119 l 1
 631 110 610 89 601 75 c 1
 420 282 l 1
 418 281 l 1
 540 34 l 1
 523 31 497 21 483 10 c 1
 394 271 l 1
 393 271 l 1
 411 -4 l 1
 394 0 366 0 349 -4 c 1
 367 271 l 1
 365 271 l 1
 277 10 l 1
 263 21 236 31 219 34 c 1
 341 281 l 1
 340 282 l 1
 159 75 l 1
 150 89 129 110 115 119 c 1
EndSplineSet
EndChar

StartChar: a54
Encoding: 408 10043 152
Width: 707
Flags: HMW
HStem: 12 21G<257 291.5> 320 21 339 21 648 20G<413.5 464>
VStem: 333 21 352 21
LayerCount: 2
Fore
SplineSet
25 261 m 0
 25 296 73 322 104 330 c 0
 135 338 179 340 224 341 c 0
 255 341 285 341 311 342 c 0
 319 342 324 345 324 349 c 0
 324 352 321 356 316 359 c 0
 295 371 270 386 245 401 c 0
 205 424 166 449 142 473 c 0
 117 498 87 552 114 579 c 0
 141 606 195 576 220 551 c 0
 242 529 266 490 289 452 c 0
 305 425 320 399 334 377 c 0
 337 372 341 369 344 369 c 0
 348 369 351 374 351 382 c 0
 351 407 352 435 352 464 c 0
 352 510 354 556 363 589 c 0
 372 619 395 668 432 668 c 0
 496 668 471 559 457 528 c 0
 447 504 433 477 418 451 c 0
 403 424 388 398 376 375 c 0
 374 371 373 368 373 366 c 0
 373 362 375 360 379 360 c 0
 381 360 384 361 388 363 c 0
 410 375 435 389 460 403 c 0
 486 418 513 432 537 443 c 0
 573 459 625 472 661 450 c 0
 673 443 681 433 681 419 c 0
 681 383 632 358 602 350 c 0
 571 342 527 340 482 339 c 0
 451 339 421 339 395 338 c 0
 387 338 382 335 382 331 c 0
 382 328 385 324 390 321 c 0
 411 309 436 294 461 279 c 0
 501 256 540 231 564 207 c 0
 589 182 619 128 592 101 c 0
 565 74 511 104 486 129 c 0
 464 151 440 190 417 228 c 0
 401 255 386 281 372 303 c 0
 369 308 365 311 362 311 c 0
 358 311 355 306 355 298 c 0
 355 273 354 245 354 216 c 0
 354 170 352 124 343 91 c 0
 336 63 309 12 274 12 c 0
 240 12 232 54 232 83 c 0
 232 135 262 184 288 229 c 0
 303 256 318 282 330 305 c 0
 332 309 333 312 333 314 c 0
 333 318 331 320 327 320 c 0
 325 320 322 319 318 317 c 0
 297 305 271 291 246 277 c 0
 221 263 196 249 172 238 c 0
 141 224 25 193 25 261 c 0
EndSplineSet
EndChar

StartChar: a55
Encoding: 409 10044 153
Width: 708
Flags: HMW
HStem: 14 21G<257.5 291> 222 116<88 254> 298 40<232.5 286> 347 118<457.5 620.5> 652 20G<418 451>
VStem: 236 118 372 120
LayerCount: 2
Fore
SplineSet
298 341 m 0
 298 310 323 285 354 285 c 0
 385 285 410 310 410 341 c 0
 410 372 385 397 354 397 c 0
 323 397 298 372 298 341 c 0
25 262 m 0
 25 296 77 325 105 333 c 0
 126 339 149 340 171 340 c 0
 196 340 220 338 245 338 c 0
 263 338 286 348 286 369 c 0
 286 382 277 392 267 398 c 0
 224 424 179 440 142 477 c 0
 123 496 104 528 104 556 c 0
 104 579 118 593 141 593 c 0
 169 593 201 574 220 555 c 0
 246 529 264 496 281 463 c 0
 286 452 292 440 298 430 c 0
 305 420 315 411 328 411 c 0
 348 411 358 429 358 447 c 0
 358 469 356 492 356 515 c 0
 356 542 357 568 364 594 c 0
 371 622 401 672 435 672 c 0
 467 672 476 622 476 598 c 0
 476 523 398 448 398 418 c 0
 398 401 412 386 429 386 c 0
 460 386 531 465 608 465 c 0
 633 465 683 456 683 423 c 0
 683 389 633 361 605 353 c 0
 583 347 560 345 537 345 c 0
 514 345 491 347 468 347 c 0
 447 347 425 341 425 316 c 0
 425 303 432 294 442 287 c 0
 486 259 527 248 566 209 c 0
 585 190 605 156 605 128 c 0
 605 105 591 93 569 93 c 0
 541 93 508 111 488 131 c 0
 448 171 438 213 409 255 c 0
 402 265 394 270 382 270 c 0
 351 270 349 244 349 221 c 0
 349 198 352 177 352 154 c 0
 352 133 350 112 344 92 c 0
 336 64 308 14 274 14 c 0
 241 14 234 64 234 88 c 0
 234 167 310 237 310 266 c 0
 310 284 295 298 277 298 c 0
 234 298 179 222 100 222 c 0
 76 222 25 230 25 262 c 0
EndSplineSet
EndChar

StartChar: a56
Encoding: 410 10045 154
Width: 682
Flags: HMW
HStem: -14 21G 685 20G
VStem: 265 155<56.5 82 56.5 90> 328 24<324 324 369 369>
LayerCount: 2
Fore
SplineSet
35 181 m 1
 35 271 71 289 141 298 c 0
 238 312 283 324 319 346 c 1
 272 373 220 383 169 390 c 0
 104 400 35 407 35 527 c 1
 118 577 177 541 219 481 c 0
 247 441 283 390 328 369 c 1
 328 428 306 484 291 519 c 0
 280 546 262 582 262 613 c 0
 262 662 299 693 343 705 c 1
 379 693 419 662 419 620 c 0
 419 597 396 540 387 519 c 0
 363 462 350 433 352 369 c 1
 365 374 393 399 473 495 c 0
 518 551 582 567 647 526 c 1
 647 440 610 403 536 394 c 0
 476 385 414 378 361 346 c 1
 400 326 443 313 550 298 c 0
 617 289 647 251 647 179 c 1
 598 124 501 132 473 197 c 1
 439 243 403 295 352 324 c 1
 351 272 369 223 384 188 c 2
 420 82 l 1
 420 31 387 -2 343 -14 c 1
 300 -2 265 30 265 78 c 0
 265 102 272 123 296 185 c 0
 312 225 328 271 328 324 c 1
 276 294 239 240 204 192 c 0
 165 135 90 124 35 181 c 1
EndSplineSet
EndChar

StartChar: a57
Encoding: 411 10046 155
Width: 701
Flags: HMW
HStem: 10 56<263.5 265> 62 41<469.5 561.5> 203 28<110.5 145> 216 65<445.5 518> 229 80<575 634> 330 11<279 319> 336 20G<475.5 488> 339 11<381 421> 372 79<66 123.5> 399 66<189.5 254.5> 450 27<555 590.5> 483 20G 578 40<138.5 229.5> 614 56<435 438.5>
VStem: 5 65<289.5 309.5> 107 32<490.5 568.5> 178 25 294 70<582.5 586 567 594> 327 42<359.5 367> 331 42<313 320.5> 338 68<94 97.5 86 112.5> 499 23 560 33<111.5 199> 631 64<370.5 392.5>
LayerCount: 2
Fore
SplineSet
307 234 m 1
 299 211 279 188 258 177 c 0
 236 165 203 171 203 136 c 0
 203 97 245 66 282 66 c 0
 304 66 338 81 338 107 c 0
 338 118 329 129 321 144 c 0
 314 157 307 172 307 194 c 0
 307 206 309 219 313 231 c 1
 307 234 l 1
238 319 m 1
 238 326 l 1
 232 325 227 325 221 325 c 0
 190 325 171 335 157 346 c 0
 140 359 130 372 117 372 c 0
 87 372 70 330 70 305 c 0
 70 274 93 231 128 231 c 0
 148 231 155 252 170 274 c 0
 183 293 201 312 238 319 c 1
226 235 m 1
 267 248 303 260 326 300 c 0
 329 305 331 310 331 316 c 0
 331 325 323 330 315 330 c 0
 311 330 307 329 304 328 c 0
 263 315 242 271 226 235 c 1
379 180 m 1
 383 199 388 218 388 238 c 0
 388 257 379 313 354 313 c 0
 338 313 335 289 335 277 c 0
 335 239 357 209 379 180 c 1
197 395 m 1
 231 366 255 341 303 341 c 0
 313 341 327 343 327 356 c 0
 327 385 266 399 243 399 c 0
 228 399 212 397 197 395 c 1
418 249 m 1
 434 230 443 203 443 178 c 0
 443 163 435 150 435 136 c 0
 435 113 460 103 479 103 c 0
 520 103 560 136 560 179 c 0
 560 219 533 216 503 216 c 0
 473 216 444 230 424 253 c 1
 418 249 l 1
275 428 m 1
 281 432 l 1
 265 451 256 478 256 503 c 0
 256 518 264 531 264 545 c 0
 264 568 239 578 220 578 c 0
 179 578 139 545 139 502 c 0
 139 479 148 470 161 467 c 0
 171 465 183 465 196 465 c 0
 226 465 255 451 275 428 c 1
503 285 m 1
 469 314 445 339 397 339 c 0
 387 339 373 337 373 324 c 0
 373 295 434 281 457 281 c 0
 472 281 488 283 503 285 c 1
321 500 m 1
 317 481 312 462 312 442 c 0
 312 423 321 367 346 367 c 0
 362 367 365 391 365 403 c 0
 365 441 343 471 321 500 c 1
474 445 m 1
 433 432 397 420 374 380 c 0
 371 375 369 370 369 364 c 0
 369 355 377 350 385 350 c 0
 389 350 393 351 396 352 c 0
 437 365 458 409 474 445 c 1
463 355 m 1
 468 356 473 356 478 356 c 0
 498 356 519 351 537 341 c 0
 553 332 566 309 584 309 c 0
 614 309 631 352 631 377 c 0
 631 408 608 450 573 450 c 0
 557 450 549 436 539 420 c 0
 526 398 508 371 463 362 c 1
 463 355 l 1
389 449 m 1
 395 446 l 1
 403 469 422 492 444 503 c 0
 466 514 499 509 499 544 c 0
 499 583 457 614 420 614 c 0
 398 614 364 599 364 573 c 0
 364 561 375 548 384 530 c 0
 390 518 395 503 395 484 c 0
 395 472 393 460 389 449 c 1
116 147 m 1
 112 150 l 1
 122 167 134 184 146 200 c 1
 145 203 l 1
 106 208 5 236 5 286 c 0
 5 333 84 390 123 407 c 1
 102 417 83 431 66 446 c 1
 66 451 l 1
 86 451 107 450 127 447 c 1
 129 449 l 1
 117 481 107 516 107 550 c 0
 107 587 117 618 160 618 c 0
 205 618 259 596 295 570 c 1
 295 575 294 580 294 585 c 0
 294 603 296 621 300 639 c 1
 304 641 l 1
 314 624 324 606 331 587 c 1
 334 586 l 1
 359 619 413 670 457 670 c 0
 514 670 526 544 522 503 c 1
 541 516 562 526 584 533 c 1
 588 530 l 1
 578 513 566 496 554 480 c 1
 555 477 l 1
 594 472 695 444 695 394 c 0
 695 347 616 290 577 273 c 1
 598 263 617 249 634 234 c 1
 634 229 l 1
 614 229 593 230 573 233 c 1
 571 231 l 1
 583 199 593 164 593 130 c 0
 593 93 583 62 540 62 c 0
 495 62 441 84 405 110 c 1
 405 105 406 100 406 95 c 0
 406 77 404 59 400 41 c 1
 396 39 l 1
 386 56 376 74 369 93 c 1
 366 94 l 1
 341 61 287 10 243 10 c 0
 187 10 173 136 178 177 c 1
 159 164 138 154 116 147 c 1
EndSplineSet
EndChar

StartChar: a58
Encoding: 412 10047 156
Width: 826
Flags: HMW
HStem: 10 21G<280.5 328> 229 52 330 11<342 382> 339 11<444 484> 399 52 483 20G 650 20G<498 548.5>
VStem: 390 42<359.5 367> 394 42<313 320.5> 428 157 459 10
LayerCount: 2
Fore
SplineSet
289 235 m 1
 330 248 366 260 389 300 c 0
 392 305 394 310 394 316 c 0
 394 325 386 330 378 330 c 0
 374 330 371 329 367 328 c 0
 325 313 306 273 289 235 c 1
442 180 m 1
 446 199 451 218 451 238 c 0
 451 257 442 313 417 313 c 0
 401 313 398 289 398 277 c 0
 398 239 420 209 442 180 c 1
260 395 m 1
 294 366 318 341 366 341 c 0
 376 341 390 343 390 356 c 0
 390 385 329 399 306 399 c 0
 291 399 275 397 260 395 c 1
566 285 m 1
 532 314 508 339 460 339 c 0
 450 339 436 337 436 324 c 0
 436 295 497 281 520 281 c 0
 535 281 551 283 566 285 c 1
384 500 m 1
 380 481 375 462 375 442 c 0
 375 423 384 367 409 367 c 0
 425 367 428 391 428 403 c 0
 428 441 406 471 384 500 c 1
537 445 m 1
 496 432 460 420 437 380 c 0
 434 375 432 370 432 364 c 0
 432 355 440 350 448 350 c 0
 452 350 455 351 459 352 c 0
 501 367 520 407 537 445 c 1
179 147 m 1
 175 150 l 1
 185 167 197 184 209 200 c 1
 208 203 l 1
 169 208 68 236 68 286 c 0
 68 333 148 390 186 407 c 1
 166 417 146 431 129 446 c 1
 129 451 l 1
 149 451 170 450 190 447 c 1
 192 449 l 1
 180 480 170 516 170 550 c 0
 170 587 180 618 223 618 c 0
 267 618 322 596 358 570 c 1
 358 575 357 580 357 585 c 0
 357 603 359 622 363 639 c 1
 367 641 l 1
 377 624 387 606 394 587 c 1
 397 586 l 1
 422 619 476 670 520 670 c 0
 577 670 589 543 585 503 c 1
 604 516 625 526 647 533 c 1
 651 530 l 1
 641 513 629 496 617 480 c 1
 618 477 l 1
 657 472 758 444 758 394 c 0
 758 347 679 290 640 273 c 1
 660 263 680 249 697 234 c 1
 697 229 l 1
 677 229 656 230 636 233 c 1
 634 231 l 1
 646 200 656 164 656 130 c 0
 656 93 646 62 603 62 c 0
 559 62 504 84 468 110 c 1
 468 105 469 100 469 95 c 0
 469 77 467 58 463 41 c 1
 459 39 l 1
 449 56 439 74 432 93 c 1
 429 94 l 1
 404 61 350 10 306 10 c 0
 255 10 240 115 240 153 c 0
 240 161 240 169 241 177 c 1
 222 164 201 154 179 147 c 1
EndSplineSet
EndChar

StartChar: a59
Encoding: 413 10048 157
Width: 815
Flags: HMW
HStem: 10 40<297 323> 62 30<575.5 586.5 554.5 619.5> 215 31<565.5 569 566 583> 229 17 300 80<397 419> 338 20G<539 558.5> 434 17 434 31<233 250 250 250.5> 483 20G 588 30<229.5 240.5 196.5 261.5> 630 40<493 519>
VStem: 63 42<281 309.5> 165 28<532.5 538.5 506.5 568.5> 236 23 311 37<489 497.5 464 509> 352 17 364 18<232 232> 368 80<329 351> 434 18<448 448 448 460> 447 17 468 37<182.5 191 171 216> 468 183<111.5 216> 557 23 623 28<141.5 147.5 111.5 173.5> 711 42<370.5 400>
LayerCount: 2
Fore
SplineSet
368 340 m 0
 368 362 386 380 408 380 c 0
 430 380 448 362 448 340 c 0
 448 318 430 300 408 300 c 0
 386 300 368 318 368 340 c 0
364 232 m 1
 353 202 325 173 293 166 c 0
 269 161 259 154 259 128 c 0
 259 95 278 50 316 50 c 0
 344 50 394 76 394 108 c 0
 394 117 386 128 378 143 c 0
 371 157 364 173 364 195 c 0
 364 207 366 218 370 229 c 1
 364 232 l 1
293 317 m 1
 292 324 l 1
 286 323 280 322 274 322 c 0
 233 322 212 340 197 354 c 0
 188 363 181 370 172 370 c 0
 142 370 105 326 105 297 c 0
 105 265 157 222 190 233 c 0
 206 236 211 246 218 260 c 0
 233 290 259 312 293 317 c 1
480 248 m 1
 496 229 505 203 505 179 c 0
 505 163 497 148 497 133 c 0
 497 104 543 92 566 92 c 0
 607 92 623 123 623 160 c 0
 623 187 615 215 583 215 c 0
 577 215 572 215 566 215 c 0
 535 215 504 228 485 252 c 1
 480 248 l 1
209 180 m 1
 276 196 337 215 381 273 c 1
 383 273 l 1
 382 266 382 259 382 252 c 0
 382 188 413 139 447 88 c 1
 458 126 468 163 468 202 c 0
 468 230 464 258 453 283 c 1
 454 285 l 1
 496 255 540 246 591 246 c 0
 609 246 628 247 646 248 c 1
 598 298 552 341 480 350 c 1
 479 352 l 1
 547 383 576 437 607 500 c 1
 540 484 479 465 435 407 c 1
 433 407 l 1
 434 414 434 421 434 428 c 0
 434 492 403 541 369 592 c 1
 358 554 348 517 348 478 c 0
 348 450 352 422 363 397 c 1
 362 395 l 1
 320 425 276 434 225 434 c 0
 207 434 188 433 170 432 c 1
 218 382 264 339 336 330 c 1
 337 328 l 1
 269 297 240 243 209 180 c 1
331 428 m 1
 336 432 l 1
 320 451 311 477 311 501 c 0
 311 517 319 532 319 547 c 0
 319 576 273 588 250 588 c 0
 209 588 193 557 193 520 c 0
 193 493 201 465 233 465 c 0
 239 465 244 465 250 465 c 0
 281 465 312 452 331 428 c 1
524 356 m 1
 530 357 536 358 542 358 c 0
 575 358 594 347 608 335 c 0
 623 323 632 310 644 310 c 0
 674 310 711 354 711 383 c 0
 711 417 666 448 634 448 c 0
 631 448 629 448 626 447 c 0
 610 444 605 434 598 420 c 0
 583 390 557 368 523 363 c 1
 524 356 l 1
446 451 m 1
 452 448 l 1
 463 478 491 507 523 514 c 0
 547 519 557 526 557 552 c 0
 557 585 538 630 500 630 c 0
 472 630 422 604 422 572 c 0
 422 561 433 548 442 530 c 0
 448 518 452 503 452 485 c 0
 452 473 450 462 446 451 c 1
174 147 m 1
 170 150 l 1
 180 167 192 184 204 200 c 1
 203 203 l 1
 164 208 63 236 63 286 c 0
 63 333 142 390 181 407 c 1
 160 417 141 431 124 446 c 1
 124 451 l 1
 144 451 165 450 185 447 c 1
 187 449 l 1
 175 481 165 515 165 550 c 0
 165 587 175 618 218 618 c 0
 263 618 317 596 353 570 c 1
 353 575 352 580 352 585 c 0
 352 603 354 621 358 639 c 1
 362 641 l 1
 372 624 382 606 389 587 c 1
 392 586 l 1
 417 619 471 670 515 670 c 0
 572 670 584 544 580 503 c 1
 599 516 620 526 642 533 c 1
 646 530 l 1
 636 513 624 496 612 480 c 1
 613 477 l 1
 652 472 753 444 753 394 c 0
 753 347 674 290 635 273 c 1
 656 263 675 249 692 234 c 1
 692 229 l 1
 672 229 651 230 631 233 c 1
 629 231 l 1
 641 199 651 165 651 130 c 0
 651 93 641 62 598 62 c 0
 553 62 499 84 463 110 c 1
 463 105 464 100 464 95 c 0
 464 77 462 59 458 41 c 1
 454 39 l 1
 444 56 434 74 427 93 c 1
 424 94 l 1
 399 61 345 10 301 10 c 0
 245 10 231 137 236 177 c 1
 217 164 196 154 174 147 c 1
EndSplineSet
EndChar

StartChar: a6
Encoding: 414 10013 158
Width: 494
Flags: HMW
HStem: 0 21G<200 200 200 296> 418 95<35 200 35 200 296 460> 672 20G<200 296 296 296>
VStem: 200 96<0 418 0 418 513 692>
LayerCount: 2
Fore
SplineSet
200 0 m 1
 200 418 l 1
 35 418 l 1
 35 513 l 1
 200 513 l 1
 200 692 l 1
 296 692 l 1
 296 513 l 1
 460 513 l 1
 460 418 l 1
 296 418 l 1
 296 0 l 1
 200 0 l 1
EndSplineSet
EndChar

StartChar: a60
Encoding: 415 10049 159
Width: 789
Flags: HMW
HStem: -8 65<339.5 368 339.5 371> 37 61<520 548.5 520 574> 105 54<178.5 195> 216 45<647 649> 216 154<647 679> 261 37 271 35 310 154<109 141 100 145> 329 18 329 20G<260.5 276 342 342 434 434 498.5 515.5> 370 35 378 37 415 45 419 45<139 141 100 166> 517 54 521 54<593 609.5> 578 61 582 61<239.5 268> 623 65<420 448.5>
VStem: 46 65<366 394.5 366 410> 91 61<185.5 214 185.5 217> 159 54<539 555.5 528 586> 270 45<85 87> 270 154<55 87> 315 37 325 35 364 154<593 625> 383 18 424 35 432 37 469 45 473 45<593 595> 571 54 575 54<124.5 141 94 152> 632 61 636 61<466 494.5> 677 65<285.5 314>
LayerCount: 2
Fore
SplineSet
327 299 m 1
 299 284 270 270 239 260 c 0
 210 250 152 233 152 195 c 0
 152 176 169 159 188 159 c 0
 224 159 249 198 268 223 c 0
 287 248 310 269 334 290 c 1
 327 299 l 1
376 264 m 1
 367 233 355 203 341 174 c 0
 328 148 315 127 315 97 c 0
 315 73 327 57 352 57 c 0
 384 57 393 93 393 119 c 0
 393 135 390 152 388 168 c 0
 384 199 385 231 387 262 c 1
 376 264 l 1
316 347 m 1
 318 358 l 1
 287 367 257 379 228 393 c 0
 202 406 181 419 151 419 c 0
 127 419 111 407 111 382 c 0
 111 350 147 341 173 341 c 0
 189 341 206 344 222 346 c 0
 237 348 253 349 268 349 c 0
 284 349 300 348 316 347 c 1
435 273 m 1
 450 245 464 216 474 185 c 0
 484 156 501 98 539 98 c 0
 558 98 575 115 575 134 c 0
 575 170 536 195 511 214 c 0
 486 233 465 256 444 280 c 1
 435 273 l 1
351 310 m 1
 372 305 l 1
 385 288 l 1
 403 300 l 1
 424 297 l 1
 429 318 l 1
 446 331 l 1
 434 349 l 1
 437 370 l 1
 416 375 l 1
 403 392 l 1
 385 380 l 1
 364 383 l 1
 359 362 l 1
 342 349 l 1
 354 331 l 1
 351 310 l 1
344 400 m 1
 353 407 l 1
 338 435 324 464 314 495 c 0
 304 524 287 582 249 582 c 0
 230 582 213 565 213 546 c 0
 213 510 252 485 277 466 c 0
 302 447 323 424 344 400 c 1
470 322 m 1
 501 313 531 301 560 287 c 0
 586 274 607 261 637 261 c 0
 661 261 677 273 677 298 c 0
 677 330 641 339 615 339 c 0
 599 339 582 336 566 334 c 0
 535 330 503 331 472 333 c 1
 470 322 l 1
401 418 m 1
 412 416 l 1
 421 447 433 477 447 506 c 0
 460 532 473 553 473 583 c 0
 473 607 461 623 436 623 c 0
 404 623 395 587 395 561 c 0
 395 545 398 528 400 512 c 0
 404 481 403 449 401 418 c 1
454 390 m 1
 461 381 l 1
 489 396 518 410 549 420 c 0
 578 430 636 447 636 485 c 0
 636 504 619 521 600 521 c 0
 564 521 539 482 520 457 c 0
 501 432 478 411 454 390 c 1
46 389 m 0
 46 431 79 464 121 464 c 0
 161 464 194 438 227 419 c 0
 249 406 272 395 296 386 c 0
 302 384 312 380 318 380 c 0
 322 380 326 383 326 388 c 0
 326 397 309 412 303 418 c 0
 285 434 267 449 247 462 c 0
 210 487 159 513 159 565 c 0
 159 607 193 643 235 643 c 0
 307 643 318 567 332 514 c 0
 339 489 347 465 357 442 c 0
 359 436 368 419 375 419 c 0
 385 419 385 441 385 448 c 0
 385 475 381 503 376 530 c 0
 371 553 364 577 364 601 c 0
 364 649 391 688 443 688 c 0
 485 688 518 655 518 613 c 0
 518 573 492 540 473 507 c 0
 460 485 449 462 440 438 c 0
 438 432 434 422 434 416 c 0
 434 411 438 408 442 408 c 0
 452 408 466 424 472 431 c 0
 488 449 503 467 516 487 c 0
 541 524 567 575 619 575 c 0
 661 575 697 541 697 499 c 0
 697 427 621 416 568 402 c 0
 543 395 519 387 496 377 c 0
 490 375 473 366 473 359 c 0
 473 349 495 349 502 349 c 0
 529 349 557 353 584 358 c 0
 607 363 631 370 655 370 c 0
 703 370 742 343 742 291 c 0
 742 249 709 216 667 216 c 0
 627 216 594 242 561 261 c 0
 539 274 516 285 492 294 c 0
 486 296 476 300 470 300 c 0
 466 300 462 295 462 291 c 0
 462 283 480 267 485 262 c 0
 503 246 521 231 541 218 c 0
 578 193 629 167 629 115 c 0
 629 73 595 37 553 37 c 0
 481 37 470 113 456 166 c 0
 449 191 441 215 431 238 c 0
 429 244 420 261 413 261 c 0
 403 261 403 239 403 232 c 0
 403 205 407 177 412 150 c 0
 417 127 424 103 424 79 c 0
 424 31 397 -8 345 -8 c 0
 303 -8 270 25 270 67 c 0
 270 107 296 140 315 173 c 0
 328 195 339 218 348 242 c 0
 350 248 354 258 354 264 c 0
 354 269 350 272 346 272 c 0
 336 272 322 256 316 249 c 0
 300 231 285 213 272 193 c 0
 247 156 221 105 169 105 c 0
 127 105 91 139 91 181 c 0
 91 253 167 264 220 278 c 0
 245 285 269 293 292 303 c 0
 298 305 315 314 315 321 c 0
 315 331 293 331 286 331 c 0
 259 331 231 327 204 322 c 0
 181 317 157 310 133 310 c 0
 85 310 46 337 46 389 c 0
EndSplineSet
EndChar

StartChar: a61
Encoding: 416 10050 160
Width: 789
Flags: HMW
HStem: -12 21G<390 390> -3 21G<405 407> 214 19 446 19 675 20G<399 399>
VStem: 271 16 502 17
LayerCount: 2
Fore
SplineSet
287 340 m 0
 287 281 335 233 394 233 c 0
 453 233 502 281 502 340 c 0
 502 399 454 446 395 446 c 0
 336 446 287 399 287 340 c 0
152 84 m 1
 147 104 l 1
 271 287 l 1
 39 332 l 1
 50 346 l 1
 271 390 l 1
 140 582 l 1
 155 588 l 1
 341 464 l 1
 386 689 l 1
 399 695 l 1
 445 465 l 1
 639 595 l 1
 644 578 l 1
 519 391 l 1
 750 347 l 1
 744 334 l 1
 519 288 l 1
 650 96 l 1
 637 90 l 1
 449 215 l 1
 449 215 403 -3 407 -3 c 1
 390 -12 l 1
 345 214 l 1
 152 84 l 1
EndSplineSet
EndChar

StartChar: a62
Encoding: 417 10051 161
Width: 707
Flags: HMW
HStem: 12 56<302 311.5> 75 75<530 549.5 530 566> 185 33<137 168.5 137 175> 185 91<116 233.5> 256 20<206.5 226> 288 54<74.5 125.5> 303 20<225.5 270> 338 54<590 594 580.5 631.5> 357 20<436 480.5> 404 20 404 91<472.5 590> 462 33<537.5 569> 484 20G<441 462> 501 20G<265.5 272.5> 530 75<156.5 176> 612 56<394.5 404>
VStem: 21 70<247.5 267 243 297.5> 93 41<496 503 469.5 537.5> 195 22<462.5 481> 211 66<89.5 92.5> 253 20<453.5 497.5> 296 42 300 26<489 508> 315 31<394 439> 360 31<241 286> 368 42 380 26<172 191> 429 66<587.5 590.5> 433 20<182.5 226.5> 489 22<199 217.5 199 225> 572 41<177 184 142.5 210.5> 615 70<413 432.5 382.5 437>
LayerCount: 2
Fore
SplineSet
257 257 m 1
 255 262 l 1
 244 257 232 256 220 256 c 0
 193 256 165 263 144 280 c 0
 137 285 130 288 121 288 c 0
 103 288 91 276 91 258 c 0
 91 228 125 218 149 218 c 0
 188 218 228 230 257 257 c 1
377 215 m 1
 372 216 l 1
 367 180 333 142 300 129 c 0
 289 124 277 111 277 98 c 0
 277 81 294 68 310 68 c 0
 356 68 380 149 380 186 c 0
 380 196 379 205 377 215 c 1
233 382 m 1
 236 386 l 1
 211 405 195 447 195 478 c 0
 195 484 197 490 197 496 c 0
 197 513 185 530 167 530 c 0
 146 530 134 513 134 493 c 0
 134 446 192 395 233 382 c 1
473 298 m 1
 470 294 l 1
 495 275 511 233 511 202 c 0
 511 196 509 190 509 184 c 0
 509 167 521 150 539 150 c 0
 560 150 572 167 572 187 c 0
 572 234 514 285 473 298 c 1
329 465 m 1
 334 464 l 1
 339 500 373 538 406 551 c 0
 417 556 429 569 429 582 c 0
 429 599 412 612 396 612 c 0
 350 612 326 531 326 494 c 0
 326 484 327 475 329 465 c 1
449 423 m 1
 451 418 l 1
 487 430 532 424 562 400 c 0
 569 395 576 392 585 392 c 0
 603 392 615 404 615 422 c 0
 615 452 581 462 557 462 c 0
 518 462 478 450 449 423 c 1
237 179 m 0
 237 182 242 185 244 186 c 0
 260 193 275 202 288 214 c 0
 303 227 316 242 326 259 c 0
 327 261 331 268 334 268 c 0
 338 268 338 257 338 255 c 0
 338 212 285 176 245 176 c 0
 243 176 237 176 237 179 c 0
158 349 m 0
 156 351 154 355 154 358 c 0
 154 360 155 360 157 360 c 0
 160 360 163 359 165 357 c 0
 179 347 194 339 211 333 c 0
 230 327 249 323 269 323 c 0
 271 323 281 323 281 319 c 0
 281 309 249 303 241 303 c 0
 210 303 175 323 158 349 c 0
406 286 m 0
 406 288 406 289 408 289 c 0
 411 289 416 286 419 284 c 0
 443 269 453 240 453 213 c 0
 453 204 446 159 435 159 c 0
 432 159 432 164 432 166 c 0
 432 173 433 179 433 186 c 0
 433 198 432 209 430 220 c 0
 426 239 420 259 410 276 c 0
 408 279 406 283 406 286 c 0
21 279 m 0
 21 316 57 342 92 342 c 0
 108 342 119 335 129 326 c 0
 150 306 169 276 222 276 c 0
 245 276 296 285 296 315 c 0
 296 332 279 341 265 345 c 0
 220 357 186 370 150 401 c 0
 116 429 93 474 93 518 c 0
 93 557 118 605 162 605 c 0
 194 605 231 575 231 542 c 0
 231 522 217 503 217 475 c 0
 217 435 241 398 274 377 c 0
 279 374 283 373 289 373 c 0
 306 373 315 386 315 402 c 0
 315 408 314 414 313 419 c 0
 306 446 300 472 300 500 c 0
 300 516 301 531 304 546 c 0
 314 603 363 668 426 668 c 0
 465 668 495 644 495 604 c 0
 495 571 479 545 445 540 c 0
 416 536 391 523 372 500 c 0
 357 482 346 451 346 427 c 0
 346 412 355 399 371 399 c 0
 383 399 393 406 401 414 c 0
 444 458 499 495 563 495 c 0
 617 495 685 464 685 401 c 0
 685 364 649 338 614 338 c 0
 566 338 563 404 484 404 c 0
 461 404 410 395 410 365 c 0
 410 348 427 339 441 335 c 0
 486 323 520 310 556 279 c 0
 590 251 613 206 613 162 c 0
 613 123 588 75 544 75 c 0
 512 75 475 105 475 138 c 0
 475 158 489 177 489 205 c 0
 489 245 465 282 432 303 c 0
 427 306 423 307 417 307 c 0
 400 307 391 294 391 278 c 0
 391 272 392 266 393 261 c 0
 400 234 406 208 406 180 c 0
 406 164 405 149 402 134 c 0
 392 77 343 12 280 12 c 0
 241 12 211 36 211 76 c 0
 211 109 227 135 261 140 c 0
 290 144 315 157 334 180 c 0
 349 198 360 229 360 253 c 0
 360 268 351 281 335 281 c 0
 323 281 313 274 305 266 c 0
 262 222 207 185 143 185 c 0
 89 185 21 216 21 279 c 0
298 391 m 0
 295 391 290 394 287 396 c 0
 263 411 253 440 253 467 c 0
 253 476 260 521 271 521 c 0
 274 521 274 516 274 514 c 0
 274 507 273 501 273 494 c 0
 273 482 274 471 276 460 c 0
 280 441 286 421 296 404 c 0
 298 401 300 397 300 394 c 0
 300 392 300 391 298 391 c 0
425 361 m 0
 425 371 457 377 465 377 c 0
 496 377 531 357 548 331 c 0
 550 329 552 325 552 322 c 0
 552 320 551 320 549 320 c 0
 546 320 543 321 541 323 c 0
 527 333 512 341 495 347 c 0
 476 353 457 357 437 357 c 0
 435 357 425 357 425 361 c 0
372 412 m 0
 368 412 368 423 368 425 c 0
 368 468 421 504 461 504 c 0
 463 504 469 504 469 501 c 0
 469 498 464 495 462 494 c 0
 446 487 431 478 418 466 c 0
 403 453 390 438 380 421 c 0
 379 419 375 412 372 412 c 0
EndSplineSet
EndChar

StartChar: a63
Encoding: 418 10052 162
Width: 687
Flags: HMW
HStem: -7 21G<291 291 397 397> 667 20G<291 291 397 397>
VStem: 326 36<81 146 81 146 198 291 389 482 534 599>
LayerCount: 2
Fore
SplineSet
70 121 m 1
 90 193 l 1
 17 212 l 1
 26 247 l 1
 111 226 l 1
 167 259 l 1
 70 283 l 1
 79 319 l 1
 212 285 l 1
 293 331 l 1
 293 349 l 1
 212 395 l 1
 79 361 l 1
 70 397 l 1
 167 421 l 1
 111 454 l 1
 26 433 l 1
 17 468 l 1
 90 487 l 1
 70 559 l 1
 105 569 l 1
 129 485 l 1
 185 453 l 1
 158 549 l 1
 193 559 l 1
 230 427 l 1
 311 380 l 1
 326 389 l 1
 326 482 l 1
 230 580 l 1
 256 606 l 1
 326 534 l 1
 326 599 l 1
 265 662 l 1
 291 687 l 1
 344 633 l 1
 397 687 l 1
 423 662 l 1
 362 599 l 1
 362 534 l 1
 432 606 l 1
 458 580 l 1
 362 482 l 1
 362 389 l 1
 377 380 l 1
 458 427 l 1
 495 559 l 1
 530 549 l 1
 503 453 l 1
 559 485 l 1
 583 569 l 1
 618 559 l 1
 598 487 l 1
 671 468 l 1
 662 433 l 1
 577 454 l 1
 521 421 l 1
 618 397 l 1
 609 361 l 1
 476 395 l 1
 395 349 l 1
 395 331 l 1
 476 285 l 1
 609 319 l 1
 618 283 l 1
 521 259 l 1
 577 226 l 1
 662 247 l 1
 671 212 l 1
 598 194 l 1
 618 121 l 1
 583 111 l 1
 559 195 l 1
 503 227 l 1
 530 131 l 1
 495 121 l 1
 458 253 l 1
 377 300 l 1
 362 291 l 1
 362 198 l 1
 458 100 l 1
 432 74 l 1
 362 146 l 1
 362 81 l 1
 423 18 l 1
 397 -7 l 1
 344 47 l 1
 291 -7 l 1
 265 18 l 1
 326 81 l 1
 326 146 l 1
 256 74 l 1
 230 100 l 1
 326 198 l 1
 326 291 l 1
 311 300 l 1
 230 253 l 1
 193 121 l 1
 158 131 l 1
 185 227 l 1
 129 195 l 1
 105 111 l 1
 70 121 l 1
EndSplineSet
EndChar

StartChar: a64
Encoding: 419 10053 163
Width: 696
Flags: HMW
HStem: -2 21G<291 291 405 405> 662 20G<291 291 405 405>
VStem: 221 37 327 40 328 40<91 185 91 185 227 305 375 453 495 589> 436 37 437 37
LayerCount: 2
Fore
SplineSet
257 183 m 1
 328 227 l 1
 328 305 l 1
 260 266 l 1
 257 183 l 1
240 301 m 1
 308 340 l 1
 240 379 l 1
 166 340 l 1
 240 301 l 1
368 227 m 1
 439 183 l 1
 436 266 l 1
 368 305 l 1
 368 227 l 1
328 375 m 1
 328 453 l 1
 257 497 l 1
 260 414 l 1
 328 375 l 1
388 340 m 1
 456 301 l 1
 530 340 l 1
 456 379 l 1
 388 340 l 1
368 375 m 1
 436 414 l 1
 439 497 l 1
 368 453 l 1
 368 375 l 1
80 120 m 1
 101 197 l 1
 23 218 l 1
 32 257 l 1
 122 233 l 1
 204 280 l 1
 115 326 l 1
 115 354 l 1
 204 400 l 1
 122 447 l 1
 32 423 l 1
 23 462 l 1
 101 483 l 1
 80 560 l 1
 118 572 l 1
 142 482 l 1
 224 435 l 1
 219 535 l 1
 244 549 l 1
 328 495 l 1
 328 589 l 1
 262 655 l 1
 291 682 l 1
 348 625 l 1
 405 682 l 1
 434 655 l 1
 368 589 l 1
 368 495 l 1
 452 549 l 1
 477 535 l 1
 472 435 l 1
 554 482 l 1
 578 572 l 1
 616 560 l 1
 595 483 l 1
 673 462 l 1
 664 423 l 1
 574 447 l 1
 492 400 l 1
 581 354 l 1
 581 326 l 1
 492 280 l 1
 574 233 l 1
 664 257 l 1
 673 218 l 1
 595 198 l 1
 616 120 l 1
 578 108 l 1
 554 198 l 1
 472 245 l 1
 477 145 l 1
 452 131 l 1
 368 185 l 1
 368 91 l 1
 434 25 l 1
 405 -2 l 1
 348 55 l 1
 291 -2 l 1
 262 25 l 1
 328 91 l 1
 328 185 l 1
 244 131 l 1
 219 145 l 1
 224 245 l 1
 142 198 l 1
 118 108 l 1
 80 120 l 1
EndSplineSet
EndChar

StartChar: a65
Encoding: 420 10054 164
Width: 689
Flags: HMW
HStem: -5 21G<291 291 397 397> 665 20G<291 291 397 397>
VStem: 318 52<96 134 96 134 207 292 388 473 546 584>
LayerCount: 2
Fore
SplineSet
72 122 m 1
 90 193 l 1
 19 213 l 1
 32 264 l 1
 120 241 l 1
 153 260 l 1
 67 283 l 1
 80 332 l 1
 216 296 l 1
 289 339 l 1
 289 341 l 1
 216 384 l 1
 80 348 l 1
 67 397 l 1
 153 420 l 1
 120 439 l 1
 32 416 l 1
 19 467 l 1
 90 487 l 1
 72 558 l 1
 122 572 l 1
 146 485 l 1
 179 466 l 1
 156 552 l 1
 205 565 l 1
 242 429 l 1
 315 387 l 1
 318 388 l 1
 318 473 l 1
 219 573 l 1
 255 609 l 1
 318 546 l 1
 318 584 l 1
 254 648 l 1
 291 685 l 1
 344 633 l 1
 397 685 l 1
 434 648 l 1
 370 584 l 1
 370 546 l 1
 433 609 l 1
 469 573 l 1
 370 473 l 1
 370 388 l 1
 373 387 l 1
 446 429 l 1
 483 565 l 1
 532 552 l 1
 509 466 l 1
 542 485 l 1
 566 572 l 1
 616 558 l 1
 598 487 l 1
 669 467 l 1
 656 416 l 1
 568 439 l 1
 535 420 l 1
 621 397 l 1
 608 348 l 1
 472 384 l 1
 399 341 l 1
 399 339 l 1
 472 296 l 1
 608 332 l 1
 621 283 l 1
 535 260 l 1
 568 241 l 1
 656 264 l 1
 669 213 l 1
 598 194 l 1
 616 122 l 1
 566 108 l 1
 542 195 l 1
 509 214 l 1
 532 128 l 1
 483 115 l 1
 446 251 l 1
 373 293 l 1
 370 292 l 1
 370 207 l 1
 469 107 l 1
 433 71 l 1
 370 134 l 1
 370 96 l 1
 434 32 l 1
 397 -5 l 1
 344 47 l 1
 291 -5 l 1
 254 32 l 1
 318 96 l 1
 318 134 l 1
 255 71 l 1
 219 107 l 1
 318 207 l 1
 318 292 l 1
 315 293 l 1
 242 251 l 1
 205 115 l 1
 156 128 l 1
 179 214 l 1
 146 195 l 1
 122 108 l 1
 72 122 l 1
EndSplineSet
EndChar

StartChar: a66
Encoding: 421 10055 165
Width: 786
Flags: HMW
HStem: -9 21G<367 367 419 419> -4 21G<389 397> 324 31 669 20G<367 367 419 419>
VStem: 377 31
LayerCount: 2
Fore
SplineSet
196 51 m 1
 365 302 l 1
 374 297 l 1
 241 25 l 1
 227 41 217 47 196 51 c 1
104 143 m 1
 100 164 94 174 78 188 c 1
 350 321 l 1
 355 312 l 1
 104 143 l 1
367 -9 m 1
 388 293 l 1
 398 293 l 1
 419 -9 l 1
 409 -6 401 -4 393 -4 c 0
 385 -4 377 -6 367 -9 c 1
44 314 m 1
 47 323 49 331 49 339 c 0
 49 348 48 355 44 366 c 1
 346 345 l 1
 346 335 l 1
 44 314 l 1
412 297 m 1
 421 302 l 1
 590 51 l 1
 569 47 559 41 545 25 c 1
 412 297 l 1
350 359 m 1
 78 492 l 1
 94 506 100 516 104 537 c 1
 355 368 l 1
 350 359 l 1
431 312 m 1
 436 321 l 1
 708 188 l 1
 692 174 686 164 682 143 c 1
 431 312 l 1
365 378 m 1
 196 629 l 1
 217 633 227 639 241 655 c 1
 374 383 l 1
 365 378 l 1
440 335 m 1
 440 345 l 1
 742 366 l 1
 738 356 737 348 737 340 c 0
 737 332 738 324 742 314 c 1
 440 335 l 1
388 387 m 1
 367 689 l 1
 378 685 386 684 394 684 c 0
 402 684 410 686 419 689 c 1
 398 387 l 1
 388 387 l 1
436 359 m 1
 431 368 l 1
 682 537 l 1
 686 516 692 506 708 492 c 1
 436 359 l 1
412 383 m 1
 545 655 l 1
 559 639 569 633 590 629 c 1
 421 378 l 1
 412 383 l 1
EndSplineSet
EndChar

StartChar: a67
Encoding: 422 10056 166
Width: 787
Flags: HMW
HStem: -9 21G<344 344 442 442> -4 21G<382 402> 669 20G<344 344 442 442>
VStem: 44 698<291 291 291 389>
LayerCount: 2
Fore
SplineSet
176 62 m 1
 369 309 l 1
 378 304 l 1
 261 13 l 1
 249 28 195 59 176 62 c 1
115 123 m 1
 112 142 81 196 66 208 c 1
 357 325 l 1
 362 316 l 1
 115 123 l 1
344 -9 m 1
 388 301 l 1
 398 301 l 1
 442 -9 l 1
 433 -5 412 -4 392 -4 c 0
 372 -4 353 -6 344 -9 c 1
44 291 m 1
 47 300 49 319 49 339 c 0
 49 359 48 380 44 389 c 1
 354 345 l 1
 354 335 l 1
 44 291 l 1
525 13 m 1
 408 304 l 1
 417 309 l 1
 610 62 l 1
 591 59 537 28 525 13 c 1
357 355 m 1
 66 472 l 1
 81 484 112 538 115 557 c 1
 362 364 l 1
 357 355 l 1
424 316 m 1
 429 325 l 1
 720 208 l 1
 705 196 674 142 671 123 c 1
 424 316 l 1
369 371 m 1
 176 618 l 1
 195 621 249 652 261 667 c 1
 378 376 l 1
 369 371 l 1
432 335 m 1
 432 345 l 1
 742 389 l 1
 739 380 737 361 737 341 c 0
 737 321 738 300 742 291 c 1
 432 335 l 1
388 379 m 1
 344 689 l 1
 353 685 373 684 393 684 c 0
 413 684 433 685 442 689 c 1
 398 379 l 1
 388 379 l 1
429 355 m 1
 424 364 l 1
 671 557 l 1
 674 538 705 484 720 472 c 1
 429 355 l 1
417 371 m 1
 408 376 l 1
 525 667 l 1
 537 652 591 621 610 618 c 1
 417 371 l 1
EndSplineSet
EndChar

StartChar: a68
Encoding: 423 10057 167
Width: 713
Flags: HMW
HStem: -14 21G<331.5 382> 125 175<101 135.5 95.5 147 577 615.5> 391 174<578 613> 674 20G
VStem: 35 177<187.5 215.5 187.5 232.5 471 500.5> 270 174<50.5 96 594 640> 339 35<161 317 161 317 373 530> 502 176<190.5 219.5 475 502.5>
LayerCount: 2
Fore
SplineSet
339 161 m 1
 339 317 l 1
 207 240 l 2
 199 235 212 221 212 210 c 0
 212 165 169 125 125 125 c 0
 77 125 35 159 35 209 c 0
 35 256 71 300 120 300 c 0
 151 300 171 291 192 269 c 1
 322 345 l 1
 192 421 l 1
 172 402 151 390 122 390 c 0
 74 390 35 431 35 478 c 0
 35 528 73 565 123 565 c 0
 172 565 212 525 212 476 c 0
 212 466 210 458 207 451 c 1
 339 373 l 1
 339 530 l 1
 301 541 270 573 270 615 c 0
 270 665 307 705 357 705 c 0
 407 705 444 665 444 615 c 0
 444 573 412 541 374 530 c 1
 374 373 l 1
 506 451 l 1
 503 459 502 470 502 480 c 0
 502 525 544 565 589 565 c 0
 637 565 678 531 678 481 c 0
 678 434 642 391 593 391 c 0
 563 391 543 400 522 421 c 1
 392 345 l 1
 522 269 l 1
 542 288 563 300 591 300 c 0
 640 300 678 259 678 212 c 0
 678 163 641 125 591 125 c 0
 542 125 502 166 502 215 c 0
 502 224 504 232 506 240 c 1
 374 317 l 1
 374 161 l 1
 412 149 444 118 444 75 c 0
 444 26 407 -14 357 -14 c 0
 306 -14 270 25 270 75 c 0
 270 117 302 149 339 161 c 1
EndSplineSet
EndChar

StartChar: a69
Encoding: 424 10058 168
Width: 791
Flags: HMW
HStem: -9 21G<333 337.5> 230 123<660.5 680.5> 327 123<111.5 131.5 111.5 141> 669 20G<454.5 459>
VStem: 286 123<55.5 75.5> 383 123<604.5 624.5 604.5 627>
LayerCount: 2
Fore
SplineSet
379 319 m 1
 370 313 361 307 352 300 c 0
 314 269 285 234 257 194 c 0
 242 173 206 120 178 120 c 0
 168 120 159 124 149 127 c 0
 139 130 129 133 119 133 c 0
 112 133 105 134 105 142 c 0
 105 144 105 146 106 148 c 0
 110 159 110 172 111 184 c 0
 112 201 114 217 127 226 c 0
 152 244 182 251 211 259 c 0
 271 275 319 295 371 331 c 1
 379 319 l 1
385 316 m 1
 398 313 l 1
 393 287 391 261 391 235 c 0
 391 202 395 170 401 138 c 0
 405 117 409 96 409 74 c 0
 409 27 393 25 369 13 c 0
 361 9 353 4 344 -4 c 0
 340 -7 340 -9 335 -9 c 0
 331 -9 328 -4 327 -1 c 0
 320 12 312 21 302 32 c 0
 294 40 286 49 286 62 c 0
 286 89 309 129 322 152 c 0
 353 206 374 254 385 316 c 1
369 338 m 1
 343 343 317 345 291 345 c 0
 258 345 226 341 194 335 c 0
 173 331 152 327 130 327 c 0
 87 327 82 340 72 361 c 0
 68 370 62 381 52 392 c 0
 49 396 47 396 47 401 c 0
 47 405 52 408 55 409 c 0
 68 416 77 424 88 434 c 0
 96 442 105 450 118 450 c 0
 145 450 185 427 208 414 c 0
 262 383 310 362 372 351 c 1
 369 338 l 1
405 315 m 1
 417 323 l 1
 423 314 429 305 436 296 c 0
 467 258 502 229 542 201 c 0
 563 186 616 150 616 122 c 0
 616 111 612 100 608 89 c 0
 605 80 603 72 603 63 c 0
 603 56 602 49 594 49 c 0
 592 49 590 49 588 50 c 0
 577 54 565 54 553 55 c 0
 536 56 519 57 510 71 c 0
 492 96 485 126 477 155 c 0
 461 215 441 263 405 315 c 1
375 357 m 1
 369 366 363 375 356 384 c 0
 325 422 290 451 250 479 c 0
 229 494 176 530 176 558 c 0
 176 567 179 576 182 585 c 0
 186 595 189 606 189 617 c 0
 189 624 190 631 198 631 c 0
 200 631 202 631 204 630 c 0
 216 626 229 626 242 625 c 0
 258 624 273 622 282 609 c 0
 300 584 307 554 315 525 c 0
 331 465 351 417 387 365 c 1
 375 357 l 1
420 329 m 1
 423 342 l 1
 449 337 475 335 501 335 c 0
 534 335 566 339 598 345 c 0
 619 349 640 353 662 353 c 0
 706 353 710 339 721 317 c 0
 725 308 731 299 740 288 c 0
 743 284 745 284 745 279 c 0
 745 275 740 272 737 271 c 0
 724 264 715 256 704 246 c 0
 696 238 687 230 674 230 c 0
 647 230 607 253 584 266 c 0
 530 297 482 318 420 329 c 1
394 367 m 1
 399 393 401 419 401 445 c 0
 401 478 397 510 391 542 c 0
 387 563 383 584 383 606 c 0
 383 648 396 654 416 664 c 0
 425 669 436 673 448 684 c 0
 452 687 452 689 457 689 c 0
 461 689 464 684 465 681 c 0
 472 668 480 659 490 648 c 0
 498 639 506 631 506 618 c 0
 506 591 483 551 470 528 c 0
 439 474 418 426 407 364 c 1
 394 367 l 1
421 349 m 1
 413 361 l 1
 422 367 431 373 440 380 c 0
 478 411 507 446 535 486 c 0
 550 507 586 560 614 560 c 0
 624 560 634 556 644 553 c 0
 653 550 663 547 673 547 c 0
 680 547 687 546 687 538 c 0
 687 536 687 534 686 532 c 0
 682 523 682 512 681 502 c 0
 680 483 680 464 665 454 c 0
 640 436 610 429 581 421 c 0
 521 405 473 385 421 349 c 1
EndSplineSet
EndChar

StartChar: a7
Encoding: 425 10014 169
Width: 552
Flags: HMW
HStem: 0 66<272 303 210 375 272 272> 356 70<126 183 126 126 375 375 375 448> 518 25<60 183 35 210 60 60 375 448> 666 26<210 303 210 210>
VStem: 35 25<426 518 426 543> 183 27<66 66 66 356 356 356 543 666> 303 72<66 356 0 426 0 426 543 619> 448 69<426 473 356 518 356 518>
LayerCount: 2
Fore
SplineSet
210 66 m 1
 303 66 l 1
 303 426 l 1
 448 426 l 1
 448 518 l 1
 303 518 l 1
 303 666 l 1
 210 666 l 1
 210 518 l 1
 60 518 l 1
 60 426 l 1
 210 426 l 1
 210 66 l 1
183 61 m 1
 183 356 l 1
 126 356 l 1
 35 422 l 1
 35 543 l 1
 183 543 l 1
 183 692 l 1
 306 692 l 1
 375 619 l 1
 375 543 l 1
 453 543 l 1
 517 473 l 1
 517 356 l 1
 375 356 l 1
 375 0 l 1
 272 0 l 1
 183 61 l 1
EndSplineSet
EndChar

StartChar: a70
Encoding: 426 10059 170
Width: 785
Flags: HMW
HStem: -14 21G<372.5 417.5> 685 20G<367 419.5>
LayerCount: 2
Fore
SplineSet
331 309 m 1
 323 328 l 1
 136 300 l 2
 95 294 36 285 36 346 c 0
 36 407 94 408 137 400 c 2
 323 364 l 1
 331 383 l 1
 175 484 l 2
 148 503 120 516 120 554 c 0
 120 588 148 611 181 611 c 0
 212 611 230 579 246 557 c 2
 356 408 l 1
 375 417 l 1
 337 602 l 2
 325 671 344 705 390 705 c 0
 449 705 450 644 443 602 c 2
 411 417 l 1
 429 408 l 1
 547 580 l 2
 563 603 576 618 607 618 c 0
 638 618 663 588 663 558 c 0
 663 533 631 505 631 505 c 1
 455 384 l 1
 463 364 l 1
 650 400 l 2
 693 407 751 409 751 346 c 0
 751 288 693 293 652 299 c 2
 463 329 l 1
 455 309 l 1
 633 189 l 2
 653 176 667 162 667 137 c 0
 667 106 645 76 612 76 c 0
 574 76 561 99 541 126 c 2
 429 284 l 1
 411 276 l 1
 449 66 l 2
 457 27 441 -14 394 -14 c 0
 351 -14 329 28 336 66 c 2
 375 276 l 1
 356 284 l 1
 246 130 l 2
 221 99 206 76 182 76 c 0
 148 76 121 106 128 140 c 0
 133 164 147 181 172 198 c 2
 331 309 l 1
EndSplineSet
EndChar

StartChar: a71
Encoding: 427 9679 171
Width: 791
Flags: HMW
HStem: -14 21G<297.5 496> 685 20G<297.5 496>
VStem: 35 722<247 445 247 446>
LayerCount: 2
Fore
SplineSet
35 346 m 0
 35 546 198 705 397 705 c 0
 595 705 757 544 757 346 c 0
 757 148 595 -14 397 -14 c 0
 198 -14 35 146 35 346 c 0
EndSplineSet
EndChar

StartChar: a72
Encoding: 428 10061 172
Width: 873
Flags: HMW
HStem: -14 35<323 470.5 290.5 537.5> 669 36<328.5 471>
VStem: 35 20<254 434 254 457> 705 133<255 433>
LayerCount: 2
Fore
SplineSet
55 344 m 0
 55 164 200 21 381 21 c 0
 560 21 705 166 705 344 c 0
 705 522 560 669 382 669 c 0
 203 669 55 524 55 344 c 0
35 344 m 0
 35 570 222 705 435 705 c 0
 648 705 838 571 838 344 c 0
 838 113 645 -14 430 -14 c 0
 216 -14 35 119 35 344 c 0
EndSplineSet
EndChar

StartChar: a73
Encoding: 429 9632 173
Width: 761
Flags: HMW
HStem: 0 21G<35 35 35 726> 672 20G<35 726 726 726>
VStem: 35 691<0 692 0 692>
LayerCount: 2
Fore
SplineSet
35 0 m 1
 35 692 l 1
 726 692 l 1
 726 0 l 1
 35 0 l 1
EndSplineSet
EndChar

StartChar: a74
Encoding: 430 10063 174
Width: 762
Flags: HMW
HStem: 0 126<143 597 64 727 143 143> 97 29<64 143> 662 30<64 597 64 64>
VStem: 35 29<126 126 126 662> 597 29<586 662 662 662>
LayerCount: 2
Fore
SplineSet
64 126 m 1
 597 126 l 1
 597 662 l 1
 64 662 l 1
 64 126 l 1
35 97 m 1
 35 692 l 1
 626 692 l 1
 626 586 l 1
 727 586 l 1
 727 0 l 1
 143 0 l 1
 143 97 l 1
 35 97 l 1
EndSplineSet
EndChar

StartChar: a75
Encoding: 431 10065 175
Width: 759
Flags: HMW
HStem: 0 123<153 598 66 725 153 153> 660 32<66 598 66 66>
VStem: 35 31<123 123 123 660> 598 127<123 563 0 660 0 660>
LayerCount: 2
Fore
SplineSet
66 123 m 1
 598 123 l 1
 598 660 l 1
 66 660 l 1
 66 123 l 1
35 115 m 1
 35 692 l 1
 604 692 l 1
 725 563 l 1
 725 0 l 1
 153 0 l 1
 35 115 l 1
EndSplineSet
EndChar

StartChar: a76
Encoding: 432 9650 176
Width: 892
Flags: HMW
HStem: 0 21G<35 35 35 858> 685 20G<446 446>
VStem: 35 823<0 0>
LayerCount: 2
Fore
SplineSet
35 0 m 1
 446 705 l 1
 858 0 l 1
 35 0 l 1
EndSplineSet
EndChar

StartChar: a77
Encoding: 433 9660 177
Width: 892
Flags: HMW
HStem: -14 21G<446 446> 672 20G<35 858 858 858>
VStem: 35 823<692 692>
LayerCount: 2
Fore
SplineSet
446 -14 m 1
 35 692 l 1
 858 692 l 1
 446 -14 l 1
EndSplineSet
EndChar

StartChar: a78
Encoding: 434 9670 178
Width: 788
Flags: HMW
HStem: -14 21G<394 394> 685 20G<394 394>
VStem: 24 719
LayerCount: 2
Fore
SplineSet
35 346 m 1
 394 705 l 1
 754 346 l 1
 394 -14 l 1
 35 346 l 1
EndSplineSet
EndChar

StartChar: a79
Encoding: 435 10070 179
Width: 784
Flags: HMW
HStem: -14 21G<392 392> 685 20G<392 392>
VStem: 36 713<341 348> 243 306
LayerCount: 2
Fore
SplineSet
189 196 m 1
 36 348 l 1
 187 502 l 1
 342 348 l 1
 189 196 l 1
239 143 m 1
 392 298 l 1
 548 143 l 1
 392 -14 l 1
 239 143 l 1
442 348 m 1
 596 502 l 1
 749 341 l 1
 594 196 l 1
 442 348 l 1
392 397 m 1
 239 551 l 1
 392 705 l 1
 545 550 l 1
 392 397 l 1
EndSplineSet
EndChar

StartChar: a8
Encoding: 436 10015 180
Width: 537
Flags: HMW
HStem: 0 25<198 340 198 364> 352 23<59 173 364 364 364 478> 406 79<90 229 90 229 310 447> 516 25<59 173 35 198 59 59 364 478> 667 25<198 340 198 198>
VStem: 35 24<375 516 375 541> 173 25<25 25 25 352 352 352 541 667> 229 81<55 406 55 406 485 635> 340 24<25 352 0 375 0 375 541 667 667 667> 478 25<375 516 516 516>
LayerCount: 2
Fore
SplineSet
229 55 m 1
 229 406 l 1
 90 406 l 1
 90 485 l 1
 229 485 l 1
 229 635 l 1
 310 635 l 1
 310 485 l 1
 447 485 l 1
 447 406 l 1
 310 406 l 1
 310 55 l 1
 229 55 l 1
198 25 m 1
 340 25 l 1
 340 375 l 1
 478 375 l 1
 478 516 l 1
 340 516 l 1
 340 667 l 1
 198 667 l 1
 198 516 l 1
 59 516 l 1
 59 375 l 1
 198 375 l 1
 198 25 l 1
173 0 m 1
 173 352 l 1
 35 352 l 1
 35 541 l 1
 173 541 l 1
 173 692 l 1
 364 692 l 1
 364 541 l 1
 503 541 l 1
 503 352 l 1
 364 352 l 1
 364 0 l 1
 173 0 l 1
EndSplineSet
EndChar

StartChar: a81
Encoding: 437 9687 181
Width: 438
Flags: HMW
HStem: -14 21G<35 140> 685 20G<35 137.5>
VStem: 35 368<247 447 247 705 247 705>
LayerCount: 2
Fore
SplineSet
35 -14 m 1
 35 705 l 1
 240 705 403 547 403 347 c 0
 403 147 245 -14 35 -14 c 1
EndSplineSet
EndChar

StartChar: a82
Encoding: 438 10072 182
Width: 138
Flags: HMW
HStem: 0 21G<35 35 35 104> 672 20G<35 104 104 104>
VStem: 35 69<0 692 0 692>
LayerCount: 2
Fore
SplineSet
35 0 m 1
 35 692 l 1
 104 692 l 1
 104 0 l 1
 35 0 l 1
EndSplineSet
EndChar

StartChar: a83
Encoding: 439 10073 183
Width: 277
Flags: HMW
HStem: 0 21G<35 35 35 242> 672 20G<35 242 242 242>
VStem: 35 207<0 692 0 692>
LayerCount: 2
Fore
SplineSet
35 0 m 1
 35 692 l 1
 242 692 l 1
 242 0 l 1
 35 0 l 1
EndSplineSet
EndChar

StartChar: a84
Encoding: 440 10074 184
Width: 415
Flags: HMW
HStem: 0 21G<35 35 35 380> 672 20G<35 380 380 380>
VStem: 35 345<0 692 0 692>
LayerCount: 2
Fore
SplineSet
35 0 m 1
 35 692 l 1
 380 692 l 1
 380 0 l 1
 35 0 l 1
EndSplineSet
EndChar

StartChar: a85
Encoding: 441 10095 185
Width: 509
Flags: HMW
HStem: -52 21G<57 57> 710 20G<51 51>
VStem: 36 437
LayerCount: 2
Fore
SplineSet
46 -39 m 1
 80 44 173 253 236 337 c 1
 168 431 80 600 36 719 c 1
 51 730 l 1
 211 531 382 392 473 337 c 1
 395 289 221 142 57 -52 c 1
 46 -39 l 1
EndSplineSet
EndChar

StartChar: a86
Encoding: 442 10097 186
Width: 410
Flags: HMW
HStem: 0 21G<35 35 35 275> 672 20G<35 275 275 275>
VStem: 35 340
LayerCount: 2
Fore
SplineSet
35 0 m 1
 135 346 l 1
 35 692 l 1
 275 692 l 1
 375 346 l 1
 275 0 l 1
 35 0 l 1
EndSplineSet
EndChar

StartChar: a87
Encoding: 443 10098 187
Width: 234
Flags: HMW
HStem: -14 21G 685 20G
VStem: 35 60<78 617 78 617 78 617>
LayerCount: 2
Fore
SplineSet
35 72 m 1
 35 617 l 1
 177 705 l 1
 199 685 l 1
 95 617 l 1
 95 78 l 1
 199 7 l 1
 177 -14 l 1
 35 72 l 1
EndSplineSet
EndChar

StartChar: a88
Encoding: 444 10099 188
Width: 234
Flags: HMW
HStem: -14 21G<56 56> 685 20G
VStem: 138 61<79 617 72 617>
LayerCount: 2
Fore
SplineSet
35 8 m 1
 138 79 l 1
 138 617 l 1
 35 685 l 1
 56 705 l 1
 199 617 l 1
 199 72 l 1
 56 -14 l 1
 35 8 l 1
EndSplineSet
EndChar

StartChar: a89
Encoding: 445 10088 189
Width: 390
Flags: HMW
HStem: -14 21G<350 350> 685 20G<348 348>
VStem: 35 124<274.5 414 274.5 444>
LayerCount: 2
Fore
SplineSet
350 -14 m 1
 169 36 35 146 35 345 c 0
 35 543 158 650 348 705 c 1
 356 694 l 1
 215 647 159 483 159 345 c 0
 159 204 211 46 356 -3 c 1
 350 -14 l 1
EndSplineSet
EndChar

StartChar: a9
Encoding: 446 10016 190
Width: 577
Flags: HMW
HStem: 104 23<105 115 115 115 410 463> 320 40 573 23<115 115 463 463>
VStem: 35 23<172 172> 268 41<273.5 326 366 417.5> 519 23<172 225.5 520 520>
CounterMasks: 1 1c
LayerCount: 2
Fore
SplineSet
105 104 m 1
 115 127 l 1
 228 123 268 221 268 326 c 1
 167 336 59 279 58 172 c 1
 35 162 l 1
 35 530 l 1
 58 520 l 1
 53 414 158 366 268 366 c 1
 268 480 222 570 115 573 c 1
 105 596 l 1
 473 596 l 1
 463 573 l 1
 352 579 309 469 309 366 c 1
 414 369 522 407 519 520 c 1
 542 530 l 1
 542 162 l 1
 519 172 l 1
 519 279 427 326 309 326 c 1
 309 214 357 127 463 127 c 1
 473 104 l 1
 105 104 l 1
EndSplineSet
EndChar

StartChar: a90
Encoding: 447 10089 191
Width: 390
Flags: HMW
HStem: -14 21G<42 42> 685 20G<42 42>
VStem: 232 123<274.5 414>
LayerCount: 2
Fore
SplineSet
35 -3 m 1
 179 46 232 204 232 345 c 0
 232 483 175 646 35 694 c 1
 42 705 l 1
 232 650 355 542 355 345 c 0
 355 146 230 38 42 -14 c 1
 35 -3 l 1
EndSplineSet
EndChar

StartChar: a91
Encoding: 448 10092 192
Width: 276
Flags: HMW
HStem: 0 21G<133 133 133 242> 672 20G<137 242 242 242>
VStem: 35 207
LayerCount: 2
Fore
SplineSet
133 0 m 1
 35 345 l 1
 137 692 l 1
 242 692 l 1
 141 345 l 1
 242 0 l 1
 133 0 l 1
EndSplineSet
EndChar

StartChar: a92
Encoding: 449 10093 193
Width: 276
Flags: HMW
HStem: 0 21G<35 35 35 141> 672 20G<35 139 139 139>
VStem: 35 207
LayerCount: 2
Fore
SplineSet
35 0 m 1
 135 345 l 1
 35 692 l 1
 139 692 l 1
 242 345 l 1
 141 0 l 1
 35 0 l 1
EndSplineSet
EndChar

StartChar: a93
Encoding: 450 10090 194
Width: 317
Flags: HMW
HStem: 0 21G<184 184 184 283> 672 20G<179 275 275 275>
VStem: 35 160<286.5 410>
LayerCount: 2
Fore
SplineSet
184 0 m 1
 100 93 35 220 35 346 c 0
 35 474 98 594 179 692 c 1
 275 692 l 1
 225 573 195 475 195 349 c 0
 195 224 228 112 283 0 c 1
 184 0 l 1
EndSplineSet
EndChar

StartChar: a94
Encoding: 451 10091 195
Width: 317
Flags: HMW
HStem: 0 21G<35 35 35 134> 672 20G<40 139 139 139>
VStem: 120 163<287 410 282.5 412>
LayerCount: 2
Fore
SplineSet
35 0 m 1
 89 112 120 225 120 349 c 0
 120 475 93 572 40 692 c 1
 139 692 l 1
 219 592 283 475 283 345 c 0
 283 220 217 92 134 0 c 1
 35 0 l 1
EndSplineSet
EndChar

StartChar: a95
Encoding: 452 10100 196
Width: 334
Flags: HMW
HStem: 0 21G<233 251 251 299> 672 20G<257 299 299 299>
VStem: 86 135
LayerCount: 2
Fore
SplineSet
299 0 m 1
 251 0 l 2
 215 0 144 2 120 14 c 0
 84 32 83 66 83 101 c 2
 89 270 l 2
 89 310 77 338 35 346 c 1
 77 354 89 384 89 423 c 2
 83 593 l 2
 83 628 87 655 118 677 c 0
 139 692 221 692 257 692 c 2
 299 692 l 1
 299 679 l 1
 221 679 221 643 221 567 c 0
 221 423 225 364 142 346 c 1
 225 329 221 276 221 122 c 0
 221 68 221 14 299 14 c 1
 299 0 l 1
EndSplineSet
EndChar

StartChar: a96
Encoding: 453 10101 197
Width: 334
Flags: HMW
HStem: 0 21G<35 35 35 83> 672 20G<35 77 77 95>
VStem: 113 135
LayerCount: 2
Fore
SplineSet
35 0 m 1
 35 14 l 1
 113 14 113 68 113 122 c 2
 113 206 l 2
 113 276 109 329 191 346 c 1
 109 364 113 417 113 487 c 2
 113 571 l 2
 113 624 113 679 35 679 c 1
 35 692 l 1
 77 692 l 2
 113 692 193 692 216 677 c 0
 248 656 251 628 251 593 c 2
 245 423 l 2
 243 375 257 354 299 346 c 1
 257 338 244 311 245 270 c 2
 251 101 l 2
 251 66 250 32 214 14 c 1
 200 0 119 0 83 0 c 2
 35 0 l 1
EndSplineSet
EndChar

StartChar: a97
Encoding: 454 10075 198
Width: 392
Flags: HMW
HStem: 228 471<147.5 307>
VStem: 37 101<510 518.5> 37 316<376.5 400 336.5 518.5>
LayerCount: 2
Fore
SplineSet
312 678 m 1
 174 646 138 581 138 531 c 0
 138 489 164 468 204 468 c 0
 231 468 241 473 260 478 c 0
 275 483 292 479 305 473 c 0
 327 461 353 428 353 372 c 0
 353 301 295 228 199 228 c 0
 96 228 37 334 37 419 c 0
 37 618 180 682 307 699 c 1
 312 678 l 1
EndSplineSet
EndChar

StartChar: a98
Encoding: 455 10076 199
Width: 392
Flags: HMW
HStem: 228 471<83 242.5>
VStem: 37 316<527 550.5 408.5 590.5> 252 101<408.5 417>
LayerCount: 2
Fore
SplineSet
83 228 m 1
 78 249 l 1
 216 281 252 346 252 396 c 0
 252 438 226 459 186 459 c 0
 159 459 149 454 130 449 c 0
 112 444 97 448 85 454 c 0
 63 466 37 499 37 555 c 0
 37 626 95 699 191 699 c 0
 294 699 353 593 353 508 c 0
 353 309 210 245 83 228 c 1
EndSplineSet
EndChar

StartChar: a99
Encoding: 456 10077 200
Width: 668
Flags: HW
LayerCount: 2
Fore
SplineSet
296 678 m 1
 166 646 132 581 132 531 c 0
 132 489 157 468 194 468 c 0
 220 468 229 473 247 478 c 0
 264 483 278 479 289 473 c 0
 310 461 335 428 335 372 c 0
 335 301 280 228 190 228 c 0
 93 228 37 334 37 419 c 0
 37 618 172 682 291 699 c 1
 296 678 l 1
600 678 m 1
 470 646 437 581 437 531 c 0
 437 489 461 468 499 468 c 0
 524 468 534 473 551 478 c 0
 568 483 583 479 594 473 c 0
 615 461 639 428 639 372 c 0
 639 301 584 228 494 228 c 0
 397 228 341 334 341 419 c 0
 341 618 476 682 596 699 c 1
 600 678 l 1
EndSplineSet
EndChar

